<svg width="116" height="113" viewBox="0 0 116 113" fill="none" xmlns="http://www.w3.org/2000/svg">
<path d="M57.9991 41.7901C49.6842 41.7901 42.8987 48.4001 42.8987 56.5C42.8987 64.5998 49.6842 71.2098 57.9991 71.2098C66.3139 71.2098 73.0995 64.5998 73.0995 56.5C73.0995 48.4001 66.3139 41.7901 57.9991 41.7901ZM103.289 56.5C103.289 50.4085 103.346 44.3723 102.994 38.2919C102.643 31.2294 100.989 24.9615 95.6878 19.797C90.3749 14.6215 83.9518 13.0214 76.7018 12.6794C70.4487 12.3373 64.2522 12.3924 58.0104 12.3924C51.7573 12.3924 45.5608 12.3373 39.319 12.6794C32.069 13.0214 25.6346 14.6326 20.3331 19.797C15.0202 24.9725 13.3776 31.2294 13.0264 38.2919C12.6752 44.3834 12.7319 50.4196 12.7319 56.5C12.7319 62.5803 12.6752 68.6276 13.0264 74.708C13.3776 81.7704 15.0315 88.0384 20.3331 93.2029C25.6459 98.3784 32.069 99.9784 39.319 100.321C45.5721 100.663 51.7686 100.607 58.0104 100.607C64.2635 100.607 70.46 100.663 76.7018 100.321C83.9518 99.9784 90.3862 98.3673 95.6878 93.2029C101.001 88.0274 102.643 81.7704 102.994 74.708C103.357 68.6276 103.289 62.5914 103.289 56.5ZM57.9991 79.133C45.1417 79.133 34.7651 69.0248 34.7651 56.5C34.7651 43.975 45.1417 33.8668 57.9991 33.8668C70.8565 33.8668 81.2331 43.975 81.2331 56.5C81.2331 69.0248 70.8565 79.133 57.9991 79.133ZM82.1846 38.2257C79.1827 38.2257 76.7585 35.8642 76.7585 32.9399C76.7585 30.0156 79.1827 27.6541 82.1846 27.6541C85.1866 27.6541 87.6108 30.0156 87.6108 32.9399C87.6117 33.6343 87.4719 34.322 87.1996 34.9637C86.9272 35.6054 86.5275 36.1885 86.0235 36.6795C85.5195 37.1705 84.9209 37.5598 84.2622 37.8252C83.6035 38.0905 82.8975 38.2266 82.1846 38.2257Z" fill="#9C4EDD"/>
</svg>
