<svg width="104" height="100" viewBox="0 0 104 100" fill="none" xmlns="http://www.w3.org/2000/svg">
<path d="M52 6.25C26.8734 6.25 6.5 25.8398 6.5 50C6.5 74.1602 26.8734 93.75 52 93.75C77.1266 93.75 97.5 74.1602 97.5 50C97.5 25.8398 77.1266 6.25 52 6.25ZM73.8664 39.2285C73.8969 39.6875 73.8969 40.166 73.8969 40.6348C73.8969 54.9707 62.5422 71.4844 41.793 71.4844C35.3945 71.4844 29.4633 69.6973 24.4664 66.6211C25.3805 66.7188 26.2539 66.7578 27.1883 66.7578C32.4695 66.7578 37.3242 65.0391 41.1937 62.1289C36.2375 62.0313 32.0734 58.9063 30.6516 54.6094C32.3883 54.8535 33.9523 54.8535 35.7398 54.4141C33.1878 53.9155 30.894 52.5828 29.2481 50.6424C27.6022 48.702 26.7057 46.2735 26.7109 43.7695V43.6328C28.2039 44.4434 29.9609 44.9414 31.7992 45.0098C30.2539 44.0195 28.9865 42.6778 28.1096 41.1038C27.2326 39.5298 26.7731 37.772 26.7719 35.9863C26.7719 33.9648 27.3203 32.1191 28.3055 30.5176C31.1381 33.8705 34.6727 36.6127 38.6797 38.5661C42.6867 40.5194 47.0763 41.6402 51.5633 41.8555C49.9687 34.4824 55.6969 28.5156 62.5828 28.5156C65.8328 28.5156 68.7578 29.8242 70.8195 31.9336C73.3687 31.4746 75.8062 30.5566 77.9797 29.3262C77.1367 31.8359 75.3695 33.9551 73.0234 35.293C75.2984 35.0586 77.4922 34.4531 79.5234 33.6035C77.9898 35.7715 76.0703 37.6953 73.8664 39.2285V39.2285Z" fill="#9C4EDD"/>
</svg>
