<svg width="95" height="62" viewBox="0 0 95 62" fill="none" xmlns="http://www.w3.org/2000/svg">
<path d="M93.0213 9.94339C92.4834 8.0851 91.4356 6.40271 89.9892 5.07505C88.502 3.70657 86.6793 2.72766 84.693 2.23072C77.2592 0.333218 47.4767 0.333218 47.4767 0.333218C35.0608 0.196417 22.6478 0.798104 10.308 2.13488C8.32166 2.66853 6.5023 3.66932 5.01174 5.04822C3.54716 6.41289 2.48632 8.09572 1.93216 9.93955C0.600941 16.8846 -0.0458542 23.9364 0.000489892 30.9999C-0.0470101 38.0571 0.598198 45.1066 1.93216 52.0602C2.47445 53.8964 3.53132 55.5716 4.99986 56.9247C6.46841 58.2779 8.29716 59.2554 10.308 59.7729C17.8407 61.6666 47.4767 61.6666 47.4767 61.6666C59.9085 61.8035 72.3373 61.2019 84.693 59.8649C86.6793 59.368 88.502 58.389 89.9892 57.0206C91.4538 55.6674 92.4949 53.9846 93.0174 52.1522C94.3833 45.2099 95.0475 38.1552 95.0005 31.0881C95.1032 23.991 94.4399 16.903 93.0213 9.93955V9.94339ZM38.0084 44.1252V17.8784L62.7876 31.0037L38.0084 44.1252Z" fill="#9C4EDD"/>
</svg>
