<svg width="16" height="16" viewBox="0 0 16 16" fill="none" xmlns="http://www.w3.org/2000/svg">
<path d="M4.64592 1.64598C4.69236 1.59942 4.74754 1.56247 4.80828 1.53727C4.86903 1.51206 4.93415 1.49908 4.99992 1.49908C5.06568 1.49908 5.13081 1.51206 5.19155 1.53727C5.2523 1.56247 5.30747 1.59942 5.35392 1.64598L11.3539 7.64598C11.4005 7.69242 11.4374 7.7476 11.4626 7.80834C11.4878 7.86909 11.5008 7.93421 11.5008 7.99998C11.5008 8.06575 11.4878 8.13087 11.4626 8.19161C11.4374 8.25236 11.4005 8.30753 11.3539 8.35398L5.35392 14.354C5.26003 14.4479 5.13269 14.5006 4.99992 14.5006C4.86714 14.5006 4.7398 14.4479 4.64592 14.354C4.55203 14.2601 4.49929 14.1328 4.49929 14C4.49929 13.8672 4.55203 13.7399 4.64592 13.646L10.2929 7.99998L4.64592 2.35398C4.59935 2.30753 4.56241 2.25236 4.5372 2.19161C4.512 2.13087 4.49902 2.06575 4.49902 1.99998C4.49902 1.93421 4.512 1.86909 4.5372 1.80834C4.56241 1.7476 4.59935 1.69242 4.64592 1.64598V1.64598Z" fill="#C4C4C4"/>
</svg>
