<svg width="20" height="20" viewBox="0 0 20 20" fill="none" xmlns="http://www.w3.org/2000/svg">
<path d="M13.8322 2.18078C13.8854 2.23793 13.9276 2.30584 13.9564 2.38058C13.9851 2.45534 14 2.53548 14 2.61642C14 2.69736 13.9851 2.7775 13.9564 2.85225C13.9276 2.92701 13.8854 2.9949 13.8322 3.05206L7.38011 10.0002L13.8322 16.9483C13.9394 17.0639 13.9997 17.2205 13.9997 17.3839C13.9997 17.5474 13.9394 17.704 13.8322 17.8196C13.7249 17.9351 13.5794 18 13.4277 18C13.276 18 13.1305 17.9351 13.0232 17.8196L6.16784 10.4358C6.11463 10.3787 6.07243 10.3108 6.04362 10.236C6.01483 10.1612 6 10.0811 6 10.0002C6 9.91923 6.01483 9.8391 6.04362 9.76434C6.07243 9.68959 6.11463 9.62168 6.16784 9.56453L13.0232 2.18078C13.0763 2.12348 13.1393 2.07801 13.2088 2.047C13.2781 2.01597 13.3525 2 13.4277 2C13.5029 2 13.5772 2.01597 13.6467 2.047C13.7161 2.07801 13.7791 2.12348 13.8322 2.18078Z" fill="#C4C4C4"/>
</svg>
