<svg width="418" height="1509" viewBox="0 0 418 1509" fill="none" xmlns="http://www.w3.org/2000/svg">
<rect x="-417" y="1479.23" width="1429.35" height="696.784" transform="rotate(-90 -417 1479.23)" fill="url(#paint0_linear_2_121)"/>
<path d="M88.169 1246.96C84.9531 1355.35 -17.6886 1446.97 -68.6074 1479.23L370.903 1479.23L370.903 49.8775L-52.5278 49.8776C1.74094 57.3221 35.2402 195.791 41.2701 250.136C47.2999 304.481 52.6598 340.215 141.768 368.504C213.054 391.136 209.883 484.639 199.387 528.562C191.57 571.989 175.133 678.347 171.917 756.365C167.897 853.889 200.392 971.885 214.461 1016.92C225.717 1052.96 225.181 1087.03 223.506 1099.56C220.826 1123.38 200.727 1172.81 141.768 1179.96C82.8092 1187.11 81.4692 1227.61 88.169 1246.96Z" fill="#F7EFFB"/>
<path d="M135.067 1263.17C131.852 1377.55 29.2099 1474.23 -21.709 1508.27L417.801 1508.27L417.801 0.00046907L-5.62941 0.000487578C48.6394 7.85608 82.1386 153.969 88.1685 211.315C94.1983 268.661 99.5582 306.367 188.666 336.218C259.953 360.099 256.781 458.765 246.285 505.113C238.468 550.937 222.031 663.166 218.816 745.492C214.796 848.4 247.29 972.911 261.36 1020.44C272.615 1058.46 272.079 1094.41 270.404 1107.63C267.725 1132.77 247.625 1184.93 188.666 1192.47C129.708 1200.01 128.368 1242.75 135.067 1263.17Z" fill="white"/>
<defs>
<linearGradient id="paint0_linear_2_121" x1="297.677" y1="1479.23" x2="297.677" y2="2176.02" gradientUnits="userSpaceOnUse">
<stop stop-color="white"/>
<stop offset="1" stop-color="#EFDBFB"/>
</linearGradient>
</defs>
</svg>
