<svg width="312" height="1509" viewBox="0 0 312 1509" fill="none" xmlns="http://www.w3.org/2000/svg">
<rect x="834.802" y="29.0352" width="1429.35" height="696.784" transform="rotate(90 834.802 29.0352)" fill="url(#paint0_linear_2_318)"/>
<path d="M329.633 261.305C332.849 152.912 435.49 61.2949 486.409 29.0352L46.899 29.0351L46.899 1458.39L470.329 1458.39C416.061 1450.94 382.561 1312.48 376.532 1258.13C370.502 1203.79 365.142 1168.05 276.034 1139.76C204.747 1117.13 207.919 1023.63 218.415 979.704C226.232 936.278 242.669 829.92 245.885 751.901C249.904 654.377 217.41 536.381 203.341 491.342C192.085 455.31 192.621 421.239 194.296 408.707C196.976 384.885 217.075 335.453 276.034 328.306C334.993 321.159 336.333 280.661 329.633 261.305Z" fill="#F7EFFB"/>
<path d="M282.734 245.093C285.95 130.716 388.592 34.0407 439.511 0L0.000640869 -1.92116e-05L0.000574941 1508.27L423.431 1508.27C369.162 1500.41 335.663 1354.3 329.633 1296.95C323.603 1239.61 318.243 1201.9 229.135 1172.05C157.849 1148.17 161.02 1049.5 171.517 1003.15C179.333 957.33 195.77 845.1 198.986 762.774C203.006 659.866 170.512 535.356 156.442 487.83C145.186 449.809 145.722 413.857 147.397 400.633C150.077 375.495 170.177 323.335 229.135 315.793C288.094 308.252 289.434 265.518 282.734 245.093Z" fill="white"/>
<defs>
<linearGradient id="paint0_linear_2_318" x1="1549.48" y1="29.0352" x2="1549.48" y2="725.819" gradientUnits="userSpaceOnUse">
<stop stop-color="white"/>
<stop offset="1" stop-color="#EFDBFB"/>
</linearGradient>
</defs>
</svg>
