<svg width="15" height="15" viewBox="0 0 15 15" fill="none" xmlns="http://www.w3.org/2000/svg">
<path d="M7.5 0C3.36457 0 0 3.36457 0 7.5C0 11.6354 3.36457 15 7.5 15C11.6354 15 15 11.6354 15 7.5C15 3.36457 11.6354 0 7.5 0ZM7.5 14.0625C3.88137 14.0625 0.937504 11.1186 0.937504 7.5C0.937504 3.88137 3.88137 0.937504 7.5 0.937504C11.1186 0.937504 14.0625 3.88137 14.0625 7.5C14.0625 11.1186 11.1186 14.0625 7.5 14.0625Z" fill="#9C4EDD"/>
<path d="M8.03802 3H7V7.36334L10.2661 10L11 9.40753L8.03802 7.01636V3Z" fill="#9C4EDD"/>
</svg>
