<?xml version="1.0" encoding="UTF-8"?>
<svg xmlns="http://www.w3.org/2000/svg" xmlns:xlink="http://www.w3.org/1999/xlink" width="14px" height="11px" viewBox="0 0 14 11" version="1.1">
<g id="surface1">
<path style=" stroke:none;fill-rule:nonzero;fill:rgb(48.235294%,17.647059%,74.901961%);fill-opacity:1;" d="M 12 0.191406 L 1.671875 0.191406 C 0.75 0.191406 0 0.960938 0 1.910156 L 0 9.160156 C 0 10.109375 0.75 10.878906 1.671875 10.878906 L 11.996094 10.878906 C 12.917969 10.878906 13.667969 10.109375 13.667969 9.160156 L 13.667969 1.914062 C 13.671875 0.964844 12.921875 0.191406 12 0.191406 Z M 12.90625 9.160156 C 12.90625 9.675781 12.5 10.09375 12 10.09375 L 1.671875 10.09375 C 1.171875 10.09375 0.761719 9.675781 0.761719 9.160156 L 0.761719 1.914062 C 0.761719 1.398438 1.171875 0.980469 1.671875 0.980469 L 11.996094 0.980469 C 12.496094 0.980469 12.902344 1.398438 12.902344 1.914062 L 12.902344 9.160156 Z M 12.90625 9.160156 "/>
<path style=" stroke:none;fill-rule:nonzero;fill:rgb(48.235294%,17.647059%,74.901961%);fill-opacity:1;" d="M 8.621094 5.445312 L 11.960938 2.367188 C 12.117188 2.222656 12.132812 1.972656 11.992188 1.8125 C 11.847656 1.652344 11.609375 1.636719 11.449219 1.78125 L 6.839844 6.03125 L 5.941406 5.207031 C 5.9375 5.203125 5.9375 5.203125 5.9375 5.199219 C 5.914062 5.179688 5.894531 5.160156 5.875 5.144531 L 2.214844 1.777344 C 2.054688 1.632812 1.816406 1.648438 1.675781 1.8125 C 1.53125 1.972656 1.546875 2.222656 1.707031 2.367188 L 5.085938 5.472656 L 1.71875 8.710938 C 1.566406 8.859375 1.558594 9.105469 1.703125 9.265625 C 1.777344 9.347656 1.878906 9.390625 1.980469 9.390625 C 2.074219 9.390625 2.167969 9.355469 2.242188 9.289062 L 5.660156 6 L 6.589844 6.851562 C 6.664062 6.917969 6.753906 6.949219 6.84375 6.949219 C 6.933594 6.949219 7.027344 6.917969 7.097656 6.847656 L 8.050781 5.972656 L 11.449219 9.289062 C 11.523438 9.363281 11.621094 9.398438 11.714844 9.398438 C 11.816406 9.398438 11.914062 9.355469 11.992188 9.277344 C 12.132812 9.117188 12.128906 8.867188 11.976562 8.71875 Z M 8.621094 5.445312 "/>
</g>
</svg>
