<svg width="34" height="26" viewBox="0 0 34 26" fill="none" xmlns="http://www.w3.org/2000/svg">
<path d="M29.1396 0.455078H4.0588C1.81993 0.455078 0 2.27501 0 4.51388V21.6556C0 23.8945 1.81993 25.7144 4.0588 25.7144H29.1327C31.3716 25.7144 33.1915 23.8945 33.1915 21.6556V4.52074C33.1984 2.28188 31.3784 0.455078 29.1396 0.455078ZM31.3441 21.6556C31.3441 22.8712 30.3551 23.8601 29.1396 23.8601H4.0588C2.84322 23.8601 1.85427 22.8712 1.85427 21.6556V4.52074C1.85427 3.30516 2.84322 2.31622 4.0588 2.31622H29.1327C30.3483 2.31622 31.3372 3.30516 31.3372 4.52074V21.6556H31.3441Z" fill="#7B2DBF"/>
<path d="M20.9329 12.8725L29.0505 5.59279C29.4282 5.24941 29.4625 4.66566 29.1192 4.28107C28.7758 3.90334 28.192 3.86901 27.8074 4.21239L16.6131 14.2598L14.4292 12.3094C14.4223 12.3025 14.4155 12.2956 14.4155 12.2888C14.3674 12.2407 14.3193 12.1995 14.2644 12.1583L5.3776 4.20552C4.99301 3.86214 4.40926 3.89648 4.06587 4.28107C3.72249 4.66566 3.75683 5.24941 4.14142 5.59279L12.3552 12.9343L4.17576 20.5918C3.8049 20.9421 3.7843 21.5258 4.13455 21.9035C4.31998 22.0958 4.56721 22.1988 4.81445 22.1988C5.04108 22.1988 5.26772 22.1164 5.44628 21.9516L13.7493 14.1843L16.0019 16.1965C16.1805 16.3544 16.4002 16.43 16.62 16.43C16.8398 16.43 17.0664 16.3476 17.2381 16.1896L19.5525 14.1156L27.8074 21.9585C27.986 22.1302 28.2195 22.2126 28.4461 22.2126C28.6934 22.2126 28.9337 22.1164 29.1192 21.9241C29.4694 21.5533 29.4557 20.9627 29.0848 20.6124L20.9329 12.8725Z" fill="#7B2DBF"/>
</svg>
