<svg width="14" height="14" viewBox="0 0 14 14" fill="none" xmlns="http://www.w3.org/2000/svg">
<path d="M11.0645 8.67229C10.7779 8.37386 10.4322 8.2143 10.0658 8.2143C9.70233 8.2143 9.35367 8.3709 9.05523 8.66934L8.12152 9.6001C8.04469 9.55873 7.96787 9.52032 7.894 9.48191C7.78762 9.42872 7.68716 9.37849 7.60147 9.3253C6.72685 8.7698 5.93201 8.04587 5.16967 7.1092C4.80032 6.64234 4.55212 6.24936 4.37188 5.85046C4.61417 5.62885 4.83874 5.39837 5.05739 5.17676C5.14012 5.09403 5.22286 5.00834 5.30559 4.92561C5.9261 4.3051 5.9261 3.50139 5.30559 2.88088L4.49893 2.07422C4.40733 1.98263 4.31278 1.88807 4.22414 1.79352C4.04685 1.61032 3.8607 1.42121 3.66863 1.24393C3.38202 0.960265 3.03926 0.80957 2.67878 0.80957C2.31829 0.80957 1.96963 0.960265 1.67415 1.24393C1.67119 1.24688 1.67119 1.24688 1.66824 1.24984L0.663604 2.26333C0.28539 2.64155 0.0696893 3.10249 0.0224125 3.63731C-0.0485027 4.50011 0.20561 5.30382 0.400627 5.82977C0.879304 7.12102 1.59437 8.31772 2.66105 9.6001C3.95525 11.1455 5.51243 12.3658 7.29122 13.2256C7.97082 13.5477 8.87795 13.9289 9.89144 13.9939C9.95349 13.9968 10.0185 13.9998 10.0776 13.9998C10.7602 13.9998 11.3334 13.7545 11.7825 13.267C11.7855 13.2611 11.7914 13.2581 11.7943 13.2522C11.948 13.0661 12.1253 12.8977 12.3114 12.7174C12.4385 12.5963 12.5685 12.4692 12.6955 12.3362C12.9881 12.0319 13.1417 11.6773 13.1417 11.3139C13.1417 10.9475 12.9851 10.5959 12.6867 10.3004L11.0645 8.67229ZM12.1223 11.7837C12.1194 11.7837 12.1194 11.7866 12.1223 11.7837C12.0071 11.9078 11.8889 12.0201 11.7618 12.1442C11.5698 12.3274 11.3748 12.5194 11.1916 12.7351C10.8931 13.0543 10.5415 13.205 10.0805 13.205C10.0362 13.205 9.98895 13.205 9.94463 13.202C9.06705 13.1459 8.25153 12.8031 7.63988 12.5106C5.96747 11.701 4.49893 10.5515 3.2786 9.09483C2.27101 7.8804 1.59732 6.75758 1.15115 5.55202C0.87635 4.81628 0.775886 4.24305 0.820208 3.70232C0.849756 3.35661 0.982722 3.06999 1.22797 2.82474L2.23556 1.81716C2.38034 1.68124 2.53399 1.60737 2.68469 1.60737C2.87084 1.60737 3.02153 1.71965 3.11609 1.8142C3.11904 1.81716 3.122 1.82011 3.12495 1.82307C3.30519 1.99149 3.47657 2.16582 3.65682 2.35198C3.74841 2.44653 3.84297 2.54108 3.93752 2.63859L4.74418 3.44525C5.05739 3.75846 5.05739 4.04803 4.74418 4.36124C4.65849 4.44693 4.57576 4.53262 4.49007 4.61535C4.24187 4.86946 4.00548 5.10585 3.74841 5.33632C3.7425 5.34223 3.7366 5.34519 3.73364 5.3511C3.47953 5.60521 3.5268 5.85341 3.57999 6.02184C3.58295 6.0307 3.5859 6.03956 3.58886 6.04843C3.79865 6.55665 4.09413 7.03533 4.54325 7.60561L4.54621 7.60856C5.36173 8.6132 6.22158 9.39622 7.17007 9.99604C7.29122 10.0729 7.41532 10.1349 7.53351 10.194C7.63988 10.2472 7.74035 10.2974 7.82604 10.3506C7.83786 10.3565 7.84968 10.3654 7.86149 10.3713C7.96196 10.4215 8.05651 10.4452 8.15402 10.4452C8.39927 10.4452 8.55292 10.2915 8.60315 10.2413L9.61369 9.23075C9.71415 9.13029 9.87371 9.00914 10.0599 9.00914C10.2431 9.00914 10.3938 9.12438 10.4854 9.22484C10.4883 9.22779 10.4883 9.22779 10.4913 9.23075L12.1194 10.8588C12.4237 11.1602 12.4237 11.4705 12.1223 11.7837Z" fill="#9C4EDD"/>
<path d="M7.56614 3.33038C8.34029 3.46039 9.04354 3.82679 9.60495 4.3882C10.1664 4.94961 10.5298 5.65285 10.6628 6.42701C10.6953 6.62203 10.8637 6.75795 11.0558 6.75795C11.0794 6.75795 11.1001 6.75499 11.1237 6.75204C11.3424 6.71658 11.4872 6.50975 11.4517 6.29109C11.2921 5.35442 10.8489 4.50048 10.1723 3.82383C9.49562 3.14718 8.64168 2.70396 7.70501 2.5444C7.48636 2.50895 7.28248 2.65373 7.24406 2.86943C7.20565 3.08513 7.34748 3.29492 7.56614 3.33038Z" fill="#9C4EDD"/>
<path d="M13.984 6.1757C13.7211 4.6333 12.9942 3.22977 11.8773 2.11285C10.7603 0.995939 9.35681 0.269059 7.81441 0.00608141C7.59871 -0.032331 7.39482 0.115409 7.35641 0.331109C7.32095 0.549765 7.46574 0.753646 7.68439 0.792058C9.06133 1.02549 10.3171 1.6785 11.3158 2.67427C12.3146 3.67299 12.9646 4.92878 13.1981 6.30571C13.2306 6.50073 13.399 6.63665 13.591 6.63665C13.6147 6.63665 13.6354 6.6337 13.659 6.63074C13.8747 6.59824 14.0224 6.3914 13.984 6.1757Z" fill="#9C4EDD"/>
</svg>
