<svg width="37" height="39" viewBox="0 0 37 39" fill="none" xmlns="http://www.w3.org/2000/svg">
<path d="M6.16116 17.6185H15.4015C15.81 17.6185 16.2017 17.4498 16.4905 17.1494C16.7794 16.849 16.9416 16.4416 16.9416 16.0168V6.40684C16.9416 5.98205 16.7794 5.57466 16.4905 5.27429C16.2017 4.97392 15.81 4.80518 15.4015 4.80518H6.16116C5.75271 4.80518 5.36099 4.97392 5.07217 5.27429C4.78335 5.57466 4.62109 5.98205 4.62109 6.40684V16.0168C4.62109 16.4416 4.78335 16.849 5.07217 17.1494C5.36099 17.4498 5.75271 17.6185 6.16116 17.6185ZM21.5618 17.6185H30.8022C31.2106 17.6185 31.6024 17.4498 31.8912 17.1494C32.18 16.849 32.3422 16.4416 32.3422 16.0168V6.40684C32.3422 5.98205 32.18 5.57466 31.8912 5.27429C31.6024 4.97392 31.2106 4.80518 30.8022 4.80518H21.5618C21.1533 4.80518 20.7616 4.97392 20.4728 5.27429C20.184 5.57466 20.0217 5.98205 20.0217 6.40684V16.0168C20.0217 16.4416 20.184 16.849 20.4728 17.1494C20.7616 17.4498 21.1533 17.6185 21.5618 17.6185ZM6.16116 33.6352H15.4015C15.81 33.6352 16.2017 33.4664 16.4905 33.1661C16.7794 32.8657 16.9416 32.4583 16.9416 32.0335V22.4235C16.9416 21.9987 16.7794 21.5913 16.4905 21.291C16.2017 20.9906 15.81 20.8218 15.4015 20.8218H6.16116C5.75271 20.8218 5.36099 20.9906 5.07217 21.291C4.78335 21.5913 4.62109 21.9987 4.62109 22.4235V32.0335C4.62109 32.4583 4.78335 32.8657 5.07217 33.1661C5.36099 33.4664 5.75271 33.6352 6.16116 33.6352ZM26.182 33.6352C29.5794 33.6352 32.3422 30.7618 32.3422 27.2285C32.3422 23.6952 29.5794 20.8218 26.182 20.8218C22.7846 20.8218 20.0217 23.6952 20.0217 27.2285C20.0217 30.7618 22.7846 33.6352 26.182 33.6352Z" fill="white"/>
</svg>
