<svg width="28" height="36" viewBox="0 0 28 36" fill="none" xmlns="http://www.w3.org/2000/svg">
<path d="M7.46094 5.07647V24.4611C7.46094 25.3179 7.80132 26.1397 8.40721 26.7456C9.0131 27.3515 9.83485 27.6919 10.6917 27.6919H23.6148C24.4716 27.6919 25.2934 27.3515 25.8993 26.7456C26.5052 26.1397 26.8456 25.3179 26.8456 24.4611V10.3135C26.8455 9.88315 26.7594 9.45709 26.5925 9.06041C26.4255 8.66372 26.1809 8.3044 25.8731 8.00355L20.5181 2.76647C19.9145 2.1763 19.1039 1.84581 18.2598 1.8457H10.6917C9.83485 1.8457 9.0131 2.18609 8.40721 2.79197C7.80132 3.39786 7.46094 4.21962 7.46094 5.07647V5.07647Z" stroke="#A1A1A1" stroke-width="2" stroke-linecap="round" stroke-linejoin="round"/>
<path d="M20.3846 27.6921V30.9229C20.3846 31.7797 20.0442 32.6015 19.4383 33.2074C18.8325 33.8132 18.0107 34.1536 17.1538 34.1536H4.23077C3.37392 34.1536 2.55216 33.8132 1.94627 33.2074C1.34038 32.6015 1 31.7797 1 30.9229V13.1536C1 12.2968 1.34038 11.475 1.94627 10.8691C2.55216 10.2632 3.37392 9.92285 4.23077 9.92285H7.46154" stroke="#A1A1A1" stroke-width="2" stroke-linecap="round" stroke-linejoin="round"/>
</svg>
