<svg width="21" height="20" viewBox="0 0 21 20" fill="none" xmlns="http://www.w3.org/2000/svg">
<path d="M20.346 2.425C20.4686 2.54216 20.5375 2.70083 20.5375 2.86625C20.5375 3.03168 20.4686 3.19035 20.346 3.3075L18.9771 4.6125L16.3521 2.1125L17.721 0.807503C17.8441 0.690334 18.011 0.624512 18.185 0.624512C18.359 0.624512 18.5259 0.690334 18.6489 0.807503L20.346 2.42375V2.425ZM18.0491 5.495L15.4241 2.995L6.48206 11.5125C6.40983 11.5813 6.35545 11.6652 6.32325 11.7575L5.26669 14.775C5.24753 14.83 5.24481 14.889 5.25883 14.9454C5.27286 15.0018 5.30307 15.0534 5.34611 15.0944C5.38914 15.1354 5.44329 15.1641 5.50251 15.1775C5.56173 15.1908 5.62368 15.1883 5.68144 15.17L8.84981 14.1638C8.94663 14.1335 9.03471 14.0821 9.10706 14.0138L18.0491 5.49625V5.495Z" fill="#A1A1A1"/>
<path fill-rule="evenodd" clip-rule="evenodd" d="M1.3125 16.875C1.3125 17.3723 1.51992 17.8492 1.88913 18.2008C2.25835 18.5525 2.75911 18.75 3.28125 18.75H17.7188C18.2409 18.75 18.7417 18.5525 19.1109 18.2008C19.4801 17.8492 19.6875 17.3723 19.6875 16.875V9.375C19.6875 9.20924 19.6184 9.05027 19.4953 8.93306C19.3722 8.81585 19.2053 8.75 19.0312 8.75C18.8572 8.75 18.6903 8.81585 18.5672 8.93306C18.4441 9.05027 18.375 9.20924 18.375 9.375V16.875C18.375 17.0408 18.3059 17.1997 18.1828 17.3169C18.0597 17.4342 17.8928 17.5 17.7188 17.5H3.28125C3.1072 17.5 2.94028 17.4342 2.81721 17.3169C2.69414 17.1997 2.625 17.0408 2.625 16.875V3.125C2.625 2.95924 2.69414 2.80027 2.81721 2.68306C2.94028 2.56585 3.1072 2.5 3.28125 2.5H11.8125C11.9865 2.5 12.1535 2.43415 12.2765 2.31694C12.3996 2.19973 12.4688 2.04076 12.4688 1.875C12.4688 1.70924 12.3996 1.55027 12.2765 1.43306C12.1535 1.31585 11.9865 1.25 11.8125 1.25H3.28125C2.75911 1.25 2.25835 1.44754 1.88913 1.79917C1.51992 2.15081 1.3125 2.62772 1.3125 3.125V16.875Z" fill="#A1A1A1"/>
</svg>
