<svg width="30" height="18" viewBox="0 0 30 18" fill="none" xmlns="http://www.w3.org/2000/svg">
<path fill-rule="evenodd" clip-rule="evenodd" d="M29.998 2.99999C29.998 3.79564 29.682 4.5587 29.1193 5.1213C28.5567 5.68391 27.7937 5.99998 26.998 5.99998C26.2024 5.99998 25.4393 5.68391 24.8767 5.1213C24.3141 4.5587 23.998 3.79564 23.998 2.99999C23.998 2.20434 24.3141 1.44128 24.8767 0.878677C25.4393 0.316069 26.2024 0 26.998 0C27.7937 0 28.5567 0.316069 29.1193 0.878677C29.682 1.44128 29.998 2.20434 29.998 2.99999Z" fill="#A1A1A1"/>
<path fill-rule="evenodd" clip-rule="evenodd" d="M29.998 14.9997C29.998 15.7954 29.682 16.5585 29.1193 17.1211C28.5567 17.6837 27.7937 17.9997 26.998 17.9997C26.2024 17.9997 25.4393 17.6837 24.8767 17.1211C24.3141 16.5585 23.998 15.7954 23.998 14.9997C23.998 14.2041 24.3141 13.441 24.8767 12.8784C25.4393 12.3158 26.2024 11.9998 26.998 11.9998C27.7937 11.9998 28.5567 12.3158 29.1193 12.8784C29.682 13.441 29.998 14.2041 29.998 14.9997Z" fill="#A1A1A1"/>
<path fill-rule="evenodd" clip-rule="evenodd" d="M18.0019 14.9997C18.0019 15.7954 17.6859 16.5585 17.1233 17.1211C16.5606 17.6837 15.7976 17.9997 15.0019 17.9997C14.2063 17.9997 13.4432 17.6837 12.8806 17.1211C12.318 16.5585 12.002 15.7954 12.002 14.9997C12.002 14.2041 12.318 13.441 12.8806 12.8784C13.4432 12.3158 14.2063 11.9998 15.0019 11.9998C15.7976 11.9998 16.5606 12.3158 17.1233 12.8784C17.6859 13.441 18.0019 14.2041 18.0019 14.9997Z" fill="#A1A1A1"/>
<path fill-rule="evenodd" clip-rule="evenodd" d="M5.99998 2.99999C5.99998 3.79564 5.68391 4.5587 5.1213 5.1213C4.5587 5.68391 3.79564 5.99998 2.99999 5.99998C2.20434 5.99998 1.44128 5.68391 0.878677 5.1213C0.316069 4.5587 0 3.79564 0 2.99999C0 2.20434 0.316069 1.44128 0.878677 0.878677C1.44128 0.316069 2.20434 0 2.99999 0C3.79564 0 4.5587 0.316069 5.1213 0.878677C5.68391 1.44128 5.99998 2.20434 5.99998 2.99999Z" fill="#A1A1A1"/>
<path fill-rule="evenodd" clip-rule="evenodd" d="M5.99998 14.9997C5.99998 15.7954 5.68391 16.5585 5.1213 17.1211C4.5587 17.6837 3.79564 17.9997 2.99999 17.9997C2.20434 17.9997 1.44128 17.6837 0.878677 17.1211C0.316069 16.5585 0 15.7954 0 14.9997C0 14.2041 0.316069 13.441 0.878677 12.8784C1.44128 12.3158 2.20434 11.9998 2.99999 11.9998C3.79564 11.9998 4.5587 12.3158 5.1213 12.8784C5.68391 13.441 5.99998 14.2041 5.99998 14.9997Z" fill="#A1A1A1"/>
<path fill-rule="evenodd" clip-rule="evenodd" d="M18.0019 2.99999C18.0019 3.79564 17.6859 4.5587 17.1233 5.1213C16.5606 5.68391 15.7976 5.99998 15.0019 5.99998C14.2063 5.99998 13.4432 5.68391 12.8806 5.1213C12.318 4.5587 12.002 3.79564 12.002 2.99999C12.002 2.20434 12.318 1.44128 12.8806 0.878677C13.4432 0.316069 14.2063 0 15.0019 0C15.7976 0 16.5606 0.316069 17.1233 0.878677C17.6859 1.44128 18.0019 2.20434 18.0019 2.99999Z" fill="#A1A1A1"/>
</svg>
