<svg width="18" height="18" viewBox="0 0 18 18" fill="none" xmlns="http://www.w3.org/2000/svg">
<path d="M7.44349 15.3945C9.09499 15.3941 10.6989 14.8224 11.9998 13.7704L16.09 18L17.4057 16.6395L13.3155 12.4099C14.3334 11.0645 14.8866 9.40549 14.887 7.69724C14.887 3.45318 11.5476 0 7.44349 0C3.33933 0 0 3.45318 0 7.69724C0 11.9413 3.33933 15.3945 7.44349 15.3945ZM7.44349 1.92431C10.5223 1.92431 13.0261 4.51347 13.0261 7.69724C13.0261 10.881 10.5223 13.4702 7.44349 13.4702C4.36467 13.4702 1.86087 10.881 1.86087 7.69724C1.86087 4.51347 4.36467 1.92431 7.44349 1.92431Z" fill="#7C7C89"/>
</svg>
