<svg width="17" height="19" viewBox="0 0 17 19" fill="none" xmlns="http://www.w3.org/2000/svg">
<path fill-rule="evenodd" clip-rule="evenodd" d="M8.50138 0.75C8.79146 0.75 9.06966 0.865234 9.27478 1.07035C9.4799 1.27547 9.59513 1.55367 9.59513 1.84375V14.5159L14.2895 9.81938C14.3912 9.71768 14.5119 9.63702 14.6448 9.58198C14.7777 9.52694 14.9201 9.49862 15.0639 9.49862C15.2077 9.49862 15.3501 9.52694 15.483 9.58198C15.6158 9.63702 15.7366 9.71768 15.8383 9.81938C15.9399 9.92107 16.0206 10.0418 16.0757 10.1747C16.1307 10.3075 16.159 10.4499 16.159 10.5938C16.159 10.7376 16.1307 10.88 16.0757 11.0128C16.0206 11.1457 15.9399 11.2664 15.8383 11.3681L9.27576 17.9306C9.17416 18.0325 9.05346 18.1133 8.92058 18.1684C8.7877 18.2236 8.64525 18.252 8.50138 18.252C8.35752 18.252 8.21506 18.2236 8.08218 18.1684C7.9493 18.1133 7.82861 18.0325 7.72701 17.9306L1.16451 11.3681C1.06281 11.2664 0.982148 11.1457 0.927112 11.0128C0.872076 10.88 0.84375 10.7376 0.84375 10.5938C0.84375 10.4499 0.872076 10.3075 0.927112 10.1747C0.982148 10.0418 1.06281 9.92107 1.16451 9.81938C1.36988 9.614 1.64844 9.49862 1.93888 9.49862C2.0827 9.49862 2.2251 9.52694 2.35797 9.58198C2.49084 9.63702 2.61156 9.71768 2.71326 9.81938L7.40763 14.5159V1.84375C7.40763 1.55367 7.52287 1.27547 7.72798 1.07035C7.9331 0.865234 8.2113 0.75 8.50138 0.75Z" fill="#545454"/>
</svg>
