<svg width="31" height="31" viewBox="0 0 31 31" fill="none" xmlns="http://www.w3.org/2000/svg">
<path d="M9.51167 28.8449L25 13.3565L17.6433 5.99988L2.155 21.4882C1.94177 21.7017 1.79031 21.9689 1.71667 22.2615L0 30.9999L8.73667 29.2832C9.03 29.2099 9.29833 29.0582 9.51167 28.8449ZM30 8.35655C30.6249 7.73146 30.976 6.88376 30.976 5.99988C30.976 5.116 30.6249 4.26831 30 3.64321L27.3567 0.999881C26.7316 0.374977 25.8839 0.0239258 25 0.0239258C24.1161 0.0239258 23.2684 0.374977 22.6433 0.999881L20 3.64321L27.3567 10.9999L30 8.35655Z" fill="white"/>
</svg>
