<svg width="34" height="38" viewBox="0 0 34 38" fill="none" xmlns="http://www.w3.org/2000/svg">
<path fill-rule="evenodd" clip-rule="evenodd" d="M33.25 7.5C33.25 8.16304 32.9866 8.79893 32.5178 9.26777C32.0489 9.73661 31.413 10 30.75 10H29.5V32.5C29.5 33.8261 28.9732 35.0979 28.0355 36.0355C27.0979 36.9732 25.8261 37.5 24.5 37.5H9.5C8.17392 37.5 6.90215 36.9732 5.96447 36.0355C5.02678 35.0979 4.5 33.8261 4.5 32.5V10H3.25C2.58696 10 1.95107 9.73661 1.48223 9.26777C1.01339 8.79893 0.75 8.16304 0.75 7.5V5C0.75 4.33696 1.01339 3.70107 1.48223 3.23223C1.95107 2.76339 2.58696 2.5 3.25 2.5H12C12 1.83696 12.2634 1.20107 12.7322 0.732233C13.2011 0.263392 13.837 0 14.5 0L19.5 0C20.163 0 20.7989 0.263392 21.2678 0.732233C21.7366 1.20107 22 1.83696 22 2.5H30.75C31.413 2.5 32.0489 2.76339 32.5178 3.23223C32.9866 3.70107 33.25 4.33696 33.25 5V7.5ZM7.295 10L7 10.1475V32.5C7 33.163 7.26339 33.7989 7.73223 34.2678C8.20107 34.7366 8.83696 35 9.5 35H24.5C25.163 35 25.7989 34.7366 26.2678 34.2678C26.7366 33.7989 27 33.163 27 32.5V10.1475L26.705 10H7.295ZM3.25 7.5V5H30.75V7.5H3.25Z" fill="white"/>
</svg>
