<svg width="18" height="18" viewBox="0 0 18 18" fill="none" xmlns="http://www.w3.org/2000/svg">
<path d="M4.99713 7.82627C6.13013 6.69327 8.10613 6.69327 9.23913 7.82627L9.94613 8.53327L11.3601 7.11927L10.6531 6.41227C9.71013 5.46827 8.45413 4.94727 7.11813 4.94727C5.78213 4.94727 4.52613 5.46827 3.58313 6.41227L1.46113 8.53327C0.525422 9.47198 0 10.7433 0 12.0688C0 13.3942 0.525422 14.6655 1.46113 15.6043C1.925 16.0688 2.47609 16.4371 3.08274 16.688C3.68939 16.9389 4.33964 17.0674 4.99613 17.0663C5.65279 17.0676 6.30324 16.9392 6.91008 16.6883C7.51692 16.4374 8.06817 16.069 8.53213 15.6043L9.23913 14.8973L7.82513 13.4833L7.11813 14.1903C6.5546 14.7513 5.7918 15.0662 4.99663 15.0662C4.20146 15.0662 3.43866 14.7513 2.87513 14.1903C2.31363 13.627 1.99833 12.8641 1.99833 12.0688C1.99833 11.2734 2.31363 10.5105 2.87513 9.94727L4.99713 7.82627Z" fill="white"/>
<path d="M8.53113 1.46195L7.82413 2.16895L9.23812 3.58295L9.94512 2.87595C10.5087 2.31494 11.2715 1.99998 12.0666 1.99998C12.8618 1.99998 13.6246 2.31494 14.1881 2.87595C14.7496 3.43922 15.0649 4.20212 15.0649 4.99745C15.0649 5.79279 14.7496 6.55568 14.1881 7.11895L12.0661 9.23995C10.9331 10.373 8.95713 10.373 7.82413 9.23995L7.11713 8.53295L5.70312 9.94695L6.41012 10.654C7.35312 11.598 8.60912 12.119 9.94512 12.119C11.2811 12.119 12.5371 11.598 13.4801 10.654L15.6021 8.53295C16.5378 7.59424 17.0633 6.32287 17.0633 4.99745C17.0633 3.67203 16.5378 2.40067 15.6021 1.46195C14.6637 0.525758 13.3922 0 12.0666 0C10.741 0 9.46958 0.525758 8.53113 1.46195Z" fill="white"/>
</svg>
