<svg width="21" height="21" viewBox="0 0 21 21" fill="none" xmlns="http://www.w3.org/2000/svg">
<path d="M12.0012 20.0012H2.00117C1.73604 20.0104 1.47185 19.9649 1.22503 19.8677C0.978215 19.7705 0.754042 19.6235 0.566456 19.4359C0.37887 19.2483 0.231882 19.0241 0.134633 18.7773C0.0373839 18.5305 -0.00804649 18.2663 0.00116676 18.0012V8.00117C-0.00804649 7.73604 0.0373839 7.47185 0.134633 7.22503C0.231882 6.97821 0.37887 6.75404 0.566456 6.56646C0.754042 6.37887 0.978215 6.23188 1.22503 6.13463C1.47185 6.03738 1.73604 5.99195 2.00117 6.00117H6.00117V2.00117C5.99195 1.73604 6.03738 1.47185 6.13463 1.22503C6.23188 0.978215 6.37887 0.754042 6.56646 0.566456C6.75404 0.37887 6.97821 0.231882 7.22503 0.134633C7.47185 0.0373839 7.73604 -0.00804649 8.00117 0.00116676H18.0012C18.2663 -0.00804649 18.5305 0.0373839 18.7773 0.134633C19.0241 0.231882 19.2483 0.37887 19.4359 0.566456C19.6235 0.754042 19.7705 0.978215 19.8677 1.22503C19.9649 1.47185 20.0104 1.73604 20.0012 2.00117V12.0012C20.0102 12.2663 19.9647 12.5304 19.8674 12.7771C19.7701 13.0239 19.6231 13.248 19.4355 13.4355C19.248 13.6231 19.0239 13.7701 18.7771 13.8674C18.5304 13.9647 18.2663 14.0102 18.0012 14.0012H14.0012V18.0012C14.0102 18.2663 13.9647 18.5304 13.8674 18.7771C13.7701 19.0239 13.6231 19.248 13.4355 19.4355C13.248 19.6231 13.0239 19.7701 12.7771 19.8674C12.5304 19.9647 12.2663 20.0102 12.0012 20.0012ZM2.00117 8.00117V18.0012H12.0012V14.0012H8.00117C7.73608 14.0102 7.47196 13.9647 7.2252 13.8674C6.97845 13.7701 6.75434 13.6231 6.56678 13.4355C6.37923 13.248 6.23224 13.0239 6.13493 12.7771C6.03763 12.5304 5.9921 12.2663 6.00117 12.0012V8.00117H2.00117ZM8.00117 2.00117V12.0012H18.0012V2.00117H8.00117Z" fill="white"/>
</svg>
