<svg width="35" height="35" viewBox="0 0 35 35" fill="none" xmlns="http://www.w3.org/2000/svg">
<path fill-rule="evenodd" clip-rule="evenodd" d="M17.5014 8.75C17.7915 8.75 18.0697 8.86523 18.2748 9.07035C18.4799 9.27547 18.5951 9.55367 18.5951 9.84375V22.5159L23.2895 17.8194C23.3912 17.7177 23.5119 17.637 23.6448 17.582C23.7777 17.5269 23.9201 17.4986 24.0639 17.4986C24.2077 17.4986 24.3501 17.5269 24.483 17.582C24.6158 17.637 24.7366 17.7177 24.8383 17.8194C24.9399 17.9211 25.0206 18.0418 25.0757 18.1747C25.1307 18.3075 25.159 18.4499 25.159 18.5938C25.159 18.7376 25.1307 18.88 25.0757 19.0128C25.0206 19.1457 24.9399 19.2664 24.8383 19.3681L18.2758 25.9306C18.1742 26.0325 18.0535 26.1133 17.9206 26.1684C17.7877 26.2236 17.6452 26.252 17.5014 26.252C17.3575 26.252 17.2151 26.2236 17.0822 26.1684C16.9493 26.1133 16.8286 26.0325 16.727 25.9306L10.1645 19.3681C10.0628 19.2664 9.98215 19.1457 9.92711 19.0128C9.87208 18.88 9.84375 18.7376 9.84375 18.5938C9.84375 18.4499 9.87208 18.3075 9.92711 18.1747C9.98215 18.0418 10.0628 17.9211 10.1645 17.8194C10.3699 17.614 10.6484 17.4986 10.9389 17.4986C11.0827 17.4986 11.2251 17.5269 11.358 17.582C11.4908 17.637 11.6116 17.7177 11.7133 17.8194L16.4076 22.5159V9.84375C16.4076 9.55367 16.5229 9.27547 16.728 9.07035C16.9331 8.86523 17.2113 8.75 17.5014 8.75Z" fill="#545454"/>
</svg>
