<svg width="36" height="30" viewBox="0 0 36 30" fill="none" xmlns="http://www.w3.org/2000/svg">
<path d="M19.2848 29.487L35.4686 13.6975C36.1771 13.0047 36.1771 11.8822 35.4686 11.1876C34.76 10.4948 33.6091 10.4948 32.9005 11.1876L18.0009 25.7247L3.10128 11.1893C2.3927 10.4965 1.2418 10.4965 0.531429 11.1893C-0.177143 11.8822 -0.177143 13.0064 0.531429 13.6993L16.7152 29.4887C17.4164 30.1711 18.5854 30.1711 19.2848 29.487Z" fill="#A1A1A1"/>
<path d="M19.2848 19.2809L35.4686 3.49145C36.1771 2.79862 36.1771 1.67612 35.4686 0.981538C34.76 0.288706 33.6091 0.288706 32.9005 0.981538L18.0009 15.5186L3.10128 0.983288C2.3927 0.290456 1.2418 0.290456 0.531429 0.983288C-0.177143 1.67612 -0.177143 2.80037 0.531429 3.4932L16.7152 19.2827C17.4164 19.965 18.5854 19.965 19.2848 19.2809Z" fill="#A1A1A1"/>
</svg>
