<svg width="55" height="55" viewBox="0 0 55 55" fill="none" xmlns="http://www.w3.org/2000/svg">
<path fill-rule="evenodd" clip-rule="evenodd" d="M50.4167 18.3333C50.4167 19.5489 49.9338 20.7147 49.0742 21.5742C48.2147 22.4338 47.0489 22.9167 45.8333 22.9167C44.6178 22.9167 43.452 22.4338 42.5924 21.5742C41.7329 20.7147 41.25 19.5489 41.25 18.3333C41.25 17.1178 41.7329 15.952 42.5924 15.0924C43.452 14.2329 44.6178 13.75 45.8333 13.75C47.0489 13.75 48.2147 14.2329 49.0742 15.0924C49.9338 15.952 50.4167 17.1178 50.4167 18.3333V18.3333Z" fill="#545454"/>
<path fill-rule="evenodd" clip-rule="evenodd" d="M50.4167 36.6663C50.4167 37.8819 49.9338 39.0477 49.0742 39.9072C48.2147 40.7668 47.0489 41.2497 45.8333 41.2497C44.6178 41.2497 43.452 40.7668 42.5924 39.9072C41.7329 39.0477 41.25 37.8819 41.25 36.6663C41.25 35.4508 41.7329 34.285 42.5924 33.4254C43.452 32.5659 44.6178 32.083 45.8333 32.083C47.0489 32.083 48.2147 32.5659 49.0742 33.4254C49.9338 34.285 50.4167 35.4508 50.4167 36.6663Z" fill="#545454"/>
<path fill-rule="evenodd" clip-rule="evenodd" d="M32.0846 36.6663C32.0846 37.8819 31.6018 39.0477 30.7422 39.9072C29.8827 40.7668 28.7169 41.2497 27.5013 41.2497C26.2857 41.2497 25.1199 40.7668 24.2604 39.9072C23.4009 39.0477 22.918 37.8819 22.918 36.6663C22.918 35.4508 23.4009 34.285 24.2604 33.4254C25.1199 32.5659 26.2857 32.083 27.5013 32.083C28.7169 32.083 29.8827 32.5659 30.7422 33.4254C31.6018 34.285 32.0846 35.4508 32.0846 36.6663V36.6663Z" fill="#545454"/>
<path fill-rule="evenodd" clip-rule="evenodd" d="M13.7507 18.3333C13.7507 19.5489 13.2678 20.7147 12.4082 21.5742C11.5487 22.4338 10.3829 22.9167 9.16732 22.9167C7.95174 22.9167 6.78595 22.4338 5.92641 21.5742C5.06687 20.7147 4.58398 19.5489 4.58398 18.3333C4.58398 17.1178 5.06687 15.952 5.92641 15.0924C6.78595 14.2329 7.95174 13.75 9.16732 13.75C10.3829 13.75 11.5487 14.2329 12.4082 15.0924C13.2678 15.952 13.7507 17.1178 13.7507 18.3333V18.3333Z" fill="#545454"/>
<path fill-rule="evenodd" clip-rule="evenodd" d="M13.7507 36.6663C13.7507 37.8819 13.2678 39.0477 12.4082 39.9072C11.5487 40.7668 10.3829 41.2497 9.16732 41.2497C7.95174 41.2497 6.78595 40.7668 5.92641 39.9072C5.06687 39.0477 4.58398 37.8819 4.58398 36.6663C4.58398 35.4508 5.06687 34.285 5.92641 33.4254C6.78595 32.5659 7.95174 32.083 9.16732 32.083C10.3829 32.083 11.5487 32.5659 12.4082 33.4254C13.2678 34.285 13.7507 35.4508 13.7507 36.6663Z" fill="#545454"/>
<path fill-rule="evenodd" clip-rule="evenodd" d="M32.0846 18.3333C32.0846 19.5489 31.6018 20.7147 30.7422 21.5742C29.8827 22.4338 28.7169 22.9167 27.5013 22.9167C26.2857 22.9167 25.1199 22.4338 24.2604 21.5742C23.4009 20.7147 22.918 19.5489 22.918 18.3333C22.918 17.1178 23.4009 15.952 24.2604 15.0924C25.1199 14.2329 26.2857 13.75 27.5013 13.75C28.7169 13.75 29.8827 14.2329 30.7422 15.0924C31.6018 15.952 32.0846 17.1178 32.0846 18.3333V18.3333Z" fill="#545454"/>
</svg>
