<svg width="32" height="33" viewBox="0 0 32 33" fill="none" xmlns="http://www.w3.org/2000/svg">
<path d="M11.6093 26.8666L24 14.2942L18.1147 8.32256L5.724 20.895C5.55342 21.0683 5.43225 21.2852 5.37333 21.5227L4 28.6159L10.9893 27.2224C11.224 27.1629 11.4387 27.0398 11.6093 26.8666V26.8666ZM28 10.2355C28.4999 9.72814 28.7808 9.04004 28.7808 8.32256C28.7808 7.60509 28.4999 6.91698 28 6.40958L25.8853 4.26389C25.3853 3.75664 24.7071 3.47168 24 3.47168C23.2929 3.47168 22.6147 3.75664 22.1147 4.26389L20 6.40958L25.8853 12.3812L28 10.2355Z" fill="#A1A1A1"/>
</svg>
