<svg width="34" height="33" viewBox="0 0 34 33" fill="none" xmlns="http://www.w3.org/2000/svg">
<path d="M1 7.11321C1 5.49188 1.6617 3.93697 2.83954 2.79052C4.01737 1.64407 5.61486 1 7.28057 1H26.1223C27.788 1 29.3855 1.64407 30.5633 2.79052C31.7412 3.93697 32.4029 5.49188 32.4029 7.11321V25.4528C32.4029 27.0742 31.7412 28.6291 30.5633 29.7755C29.3855 30.922 27.788 31.566 26.1223 31.566H7.28057C5.61486 31.566 4.01737 30.922 2.83954 29.7755C1.6617 28.6291 1 27.0742 1 25.4528V7.11321Z" stroke="#A1A1A1" stroke-width="2" stroke-linecap="round" stroke-linejoin="round"/>
<path d="M11.2066 14.7548C13.3745 14.7548 15.132 13.0442 15.132 10.934C15.132 8.82389 13.3745 7.11328 11.2066 7.11328C9.03869 7.11328 7.28125 8.82389 7.28125 10.934C7.28125 13.0442 9.03869 14.7548 11.2066 14.7548Z" stroke="#A1A1A1" stroke-width="2" stroke-linecap="round" stroke-linejoin="round"/>
<path d="M20.6683 17.2317L7.28125 31.5657H26.3318C27.9421 31.5657 29.4865 30.943 30.6252 29.8347C31.7638 28.7263 32.4035 27.2231 32.4035 25.6557V25.4525C32.4035 24.7403 32.1288 24.4667 31.6342 23.9394L25.3065 17.2225C25.0116 16.9094 24.6529 16.6596 24.2532 16.4889C23.8535 16.3183 23.4217 16.2306 22.9853 16.2315C22.5489 16.2323 22.1175 16.3217 21.7185 16.4939C21.3196 16.6662 20.9619 16.9174 20.6683 17.2317V17.2317Z" stroke="#A1A1A1" stroke-width="2" stroke-linecap="round" stroke-linejoin="round"/>
</svg>
