<?xml version="1.0" standalone="no"?>
<!DOCTYPE svg PUBLIC "-//W3C//DTD SVG 20010904//EN"
 "http://www.w3.org/TR/2001/REC-SVG-20010904/DTD/svg10.dtd">
<svg version="1.0" xmlns="http://www.w3.org/2000/svg"
 width="316.000000pt" height="316.000000pt" viewBox="0 0 316.000000 316.000000"
 preserveAspectRatio="xMidYMid meet">
<metadata>
Created by potrace 1.14, written by Peter Selinger 2001-2017
</metadata>
<g transform="translate(0.000000,316.000000) scale(0.100000,-0.100000)"
fill="#000000" stroke="none">
<path d="M1390 3153 c-223 -26 -477 -119 -679 -250 l-84 -55 100 -100 101
-101 43 30 c70 48 204 112 302 144 138 45 253 62 412 62 217 -1 381 -40 580
-138 202 -100 371 -250 501 -446 145 -217 214 -450 214 -719 0 -219 -46 -412
-144 -603 l-55 -107 95 -87 c53 -49 99 -89 104 -91 21 -8 158 262 204 402 82
249 98 568 40 826 -143 637 -668 1130 -1307 1224 -96 15 -334 19 -427 9z"/>
<path d="M294 2502 c-142 -199 -234 -420 -276 -666 -26 -157 -21 -426 11 -578
63 -289 199 -548 399 -760 237 -248 509 -400 852 -474 121 -27 466 -27 595 -1
123 25 262 71 375 124 100 46 299 174 339 217 l24 25 -98 94 -99 93 -70 -53
c-83 -63 -259 -152 -366 -186 -315 -101 -674 -76 -967 67 -140 68 -237 138
-354 255 -256 256 -382 560 -382 921 0 266 78 524 222 735 l41 60 -94 93 c-52
50 -98 92 -103 92 -4 0 -26 -26 -49 -58z"/>
<path d="M890 2150 l0 -181 543 3 c612 4 594 2 685 83 64 57 95 122 100 208
l4 67 -666 0 -666 0 0 -180z"/>
<path d="M890 1565 l0 -176 378 3 c361 3 379 4 423 24 105 49 176 149 186 263
l6 61 -497 0 -496 0 0 -175z"/>
<path d="M892 983 l3 -178 135 1 c167 0 217 15 294 85 62 57 93 120 103 209
l6 60 -272 0 -271 0 2 -177z"/>
</g>
</svg>
