<svg width="21" height="19" viewBox="0 0 21 19" fill="none" xmlns="http://www.w3.org/2000/svg">
<path d="M3.72933 0.125C4.14373 0.125 4.54116 0.28962 4.83418 0.582646C5.12721 0.875671 5.29183 1.2731 5.29183 1.6875V17.3125C5.29183 17.7269 5.12721 18.1243 4.83418 18.4174C4.54116 18.7104 4.14373 18.875 3.72933 18.875H1.646C1.2316 18.875 0.834167 18.7104 0.541142 18.4174C0.248116 18.1243 0.0834961 17.7269 0.0834961 17.3125V1.6875C0.0834961 1.2731 0.248116 0.875671 0.541142 0.582646C0.834167 0.28962 1.2316 0.125 1.646 0.125H3.72933ZM9.97933 0.125C10.3937 0.125 10.7912 0.28962 11.0842 0.582646C11.3772 0.875671 11.5418 1.2731 11.5418 1.6875V17.3125C11.5418 17.7269 11.3772 18.1243 11.0842 18.4174C10.7912 18.7104 10.3937 18.875 9.97933 18.875H7.896C7.4816 18.875 7.08417 18.7104 6.79114 18.4174C6.49812 18.1243 6.3335 17.7269 6.3335 17.3125V1.6875C6.3335 1.2731 6.49812 0.875671 6.79114 0.582646C7.08417 0.28962 7.4816 0.125 7.896 0.125H9.97933ZM17.5637 3.37917L20.9116 16.4198C20.9627 16.6186 20.974 16.8254 20.9451 17.0286C20.9162 17.2317 20.8476 17.4272 20.7431 17.6039C20.6386 17.7805 20.5004 17.9348 20.3363 18.058C20.1722 18.1812 19.9854 18.2709 19.7866 18.3219L17.8325 18.8219C17.6337 18.8729 17.4268 18.8843 17.2237 18.8554C17.0205 18.8265 16.825 18.7578 16.6484 18.6534C16.4718 18.5489 16.3174 18.4106 16.1942 18.2465C16.071 18.0824 15.9814 17.8956 15.9304 17.6969L12.5825 4.66042C12.5314 4.46166 12.52 4.25479 12.5489 4.05162C12.5779 3.84846 12.6465 3.65298 12.751 3.47636C12.8554 3.29973 12.9937 3.14541 13.1578 3.02221C13.3219 2.89901 13.5087 2.80934 13.7075 2.75833L15.6616 2.25521C16.063 2.1527 16.4887 2.21358 16.8452 2.42447C17.2018 2.63537 17.4602 2.97908 17.5637 3.38021V3.37917Z" fill="white"/>
</svg>
