<svg width="22" height="20" viewBox="0 0 22 20" fill="none" xmlns="http://www.w3.org/2000/svg">
<path d="M18.2463 2.58819e-07C17.6389 -0.000260557 17.0479 0.196606 16.5621 0.56101C16.0763 0.925415 15.7218 1.43767 15.552 2.02078C15.3823 2.60388 15.4064 3.22634 15.6207 3.79459C15.835 4.36284 16.2279 4.84618 16.7405 5.17196L14.9095 11.5805C14.8526 11.5769 14.7957 11.575 14.7387 11.5748C14.1351 11.5741 13.5476 11.7692 13.0642 12.1306L9.68149 9.3117C9.84163 8.83654 9.87153 8.32715 9.76808 7.83652C9.66462 7.3459 9.43158 6.89195 9.09321 6.52192C8.75485 6.15188 8.3235 5.87928 7.84406 5.73246C7.36462 5.58564 6.8546 5.56998 6.36705 5.68709C5.8795 5.80421 5.43224 6.04982 5.0718 6.39839C4.71136 6.74696 4.4509 7.18575 4.31753 7.6691C4.18415 8.15245 4.18273 8.66272 4.31341 9.1468C4.4441 9.63089 4.70211 10.0711 5.0606 10.4217L3.07483 14.3934C2.98786 14.3852 2.90056 14.3809 2.81321 14.3808C2.14098 14.3799 1.49073 14.6201 0.980471 15.0578C0.470216 15.4954 0.133784 16.1015 0.0322439 16.766C-0.0692966 17.4305 0.0707843 18.1094 0.42706 18.6795C0.783336 19.2495 1.33219 19.6729 1.974 19.8729C2.61581 20.0728 3.30803 20.036 3.92501 19.7691C4.542 19.5022 5.04285 19.023 5.33665 18.4184C5.63046 17.8137 5.69775 17.1238 5.5263 16.4738C5.35485 15.8238 4.95604 15.2568 4.40224 14.8758L6.27876 11.1232C6.7346 11.249 7.21486 11.2572 7.67473 11.1471C8.1346 11.0371 8.5591 10.8123 8.90861 10.4938L12.1837 13.2232C11.9613 13.7133 11.8846 14.257 11.9626 14.7896C12.0407 15.3221 12.2702 15.8209 12.6239 16.2266C12.9775 16.6323 13.4404 16.9277 13.9573 17.0777C14.4743 17.2276 15.0234 17.2257 15.5392 17.0722C16.0551 16.9187 16.5159 16.6201 16.8668 16.2119C17.2177 15.8038 17.4437 15.3034 17.5181 14.7703C17.5924 14.2373 17.5119 13.6941 17.2861 13.2055C17.0603 12.717 16.6988 12.3036 16.2446 12.0148L18.0755 5.60632C18.132 5.60974 18.1889 5.61202 18.2463 5.61202C18.9905 5.61202 19.7042 5.31639 20.2304 4.79016C20.7566 4.26393 21.0523 3.55021 21.0523 2.80601C21.0523 2.06181 20.7566 1.34809 20.2304 0.821861C19.7042 0.295632 18.9905 2.58819e-07 18.2463 2.58819e-07ZM2.81321 18.5898C2.53572 18.5898 2.26447 18.5075 2.03374 18.3534C1.80302 18.1992 1.62319 17.9801 1.517 17.7237C1.41081 17.4673 1.38303 17.1852 1.43716 16.9131C1.4913 16.6409 1.62492 16.3909 1.82114 16.1947C2.01735 15.9985 2.26734 15.8649 2.5395 15.8108C2.81165 15.7566 3.09375 15.7844 3.35012 15.8906C3.60648 15.9968 3.8256 16.1766 3.97977 16.4073C4.13393 16.6381 4.21621 16.9093 4.21621 17.1868C4.2158 17.5588 4.06785 17.9154 3.80482 18.1784C3.5418 18.4414 3.18518 18.5894 2.81321 18.5898ZM7.02222 9.82103C6.74473 9.82103 6.47348 9.73874 6.24276 9.58458C6.01203 9.43042 5.83221 9.2113 5.72602 8.95493C5.61983 8.69857 5.59204 8.41647 5.64618 8.14431C5.70031 7.87216 5.83394 7.62217 6.03015 7.42595C6.22636 7.22974 6.47635 7.09612 6.74851 7.04198C7.02067 6.98784 7.30276 7.01563 7.55913 7.12182C7.81549 7.22801 8.03461 7.40784 8.18878 7.63856C8.34294 7.86928 8.42523 8.14054 8.42523 8.41803C8.42481 8.79 8.27686 9.14661 8.01383 9.40964C7.75081 9.67266 7.39419 9.82061 7.02222 9.82103ZM14.7387 15.7838C14.4613 15.7838 14.19 15.7015 13.9593 15.5473C13.7286 15.3932 13.5487 15.1741 13.4425 14.9177C13.3363 14.6613 13.3086 14.3792 13.3627 14.1071C13.4168 13.8349 13.5505 13.5849 13.7467 13.3887C13.9429 13.1925 14.1929 13.0589 14.465 13.0047C14.7372 12.9506 15.0193 12.9784 15.2757 13.0846C15.532 13.1908 15.7511 13.3706 15.9053 13.6013C16.0595 13.832 16.1418 14.1033 16.1418 14.3808C16.1413 14.7528 15.9934 15.1094 15.7304 15.3724C15.4673 15.6354 15.1107 15.7834 14.7387 15.7838ZM18.2463 4.20901C17.9688 4.20901 17.6975 4.12673 17.4668 3.97256C17.2361 3.8184 17.0562 3.59928 16.9501 3.34292C16.8439 3.08655 16.8161 2.80445 16.8702 2.5323C16.9243 2.26014 17.058 2.01015 17.2542 1.81394C17.4504 1.61772 17.7004 1.4841 17.9725 1.42996C18.2447 1.37583 18.5268 1.40361 18.7832 1.5098C19.0395 1.61599 19.2586 1.79582 19.4128 2.02654C19.567 2.25726 19.6493 2.52852 19.6493 2.80601C19.6488 3.17798 19.5009 3.5346 19.2379 3.79762C18.9748 4.06065 18.6182 4.2086 18.2463 4.20901Z" fill="#C67EFF"/>
</svg>
