<svg width="17" height="19" viewBox="0 0 17 19" fill="none" xmlns="http://www.w3.org/2000/svg">
<path fill-rule="evenodd" clip-rule="evenodd" d="M8.27955 0.75C8.58409 0.75 8.87616 0.865234 9.0915 1.07035C9.30684 1.27547 9.42782 1.55367 9.42782 1.84375V14.5159L14.3562 9.81938C14.4629 9.71768 14.5897 9.63702 14.7292 9.58198C14.8687 9.52694 15.0182 9.49862 15.1692 9.49862C15.3201 9.49862 15.4696 9.52694 15.6091 9.58198C15.7486 9.63702 15.8754 9.71768 15.9821 9.81938C16.0889 9.92107 16.1736 10.0418 16.2314 10.1747C16.2891 10.3075 16.3189 10.4499 16.3189 10.5938C16.3189 10.7376 16.2891 10.88 16.2314 11.0128C16.1736 11.1457 16.0889 11.2664 15.9821 11.3681L9.09253 17.9306C8.98586 18.0325 8.85915 18.1133 8.71965 18.1684C8.58014 18.2236 8.43059 18.252 8.27955 18.252C8.12852 18.252 7.97896 18.2236 7.83946 18.1684C7.69996 18.1133 7.57325 18.0325 7.46658 17.9306L0.576979 11.3681C0.470218 11.2664 0.38553 11.1457 0.327751 11.0128C0.269973 10.88 0.240234 10.7376 0.240234 10.5938C0.240234 10.4499 0.269973 10.3075 0.327751 10.1747C0.38553 10.0418 0.470218 9.92107 0.576979 9.81938C0.792593 9.614 1.08503 9.49862 1.38995 9.49862C1.54094 9.49862 1.69044 9.52694 1.82993 9.58198C1.96942 9.63702 2.09616 9.71768 2.20293 9.81938L7.13129 14.5159V1.84375C7.13129 1.55367 7.25227 1.27547 7.46761 1.07035C7.68295 0.865234 7.97502 0.75 8.27955 0.75Z" fill="#545454"/>
</svg>
