<svg width="53" height="56" viewBox="0 0 53 56" fill="none" xmlns="http://www.w3.org/2000/svg">
<path d="M50.9207 45.6395C49.5912 42.5002 47.6619 39.6487 45.2402 37.2437C42.8258 34.8318 39.9658 32.9088 36.818 31.5809C36.7898 31.5669 36.7616 31.5598 36.7334 31.5458C41.1242 28.3842 43.9786 23.2343 43.9786 17.424C43.9786 7.79863 36.1555 0 26.5 0C16.8445 0 9.02139 7.79863 9.02139 17.424C9.02139 23.2343 11.8758 28.3842 16.2666 31.5528C16.2384 31.5669 16.2102 31.5739 16.182 31.588C13.0246 32.9158 10.1913 34.8198 7.75983 37.2507C5.34038 39.6575 3.41136 42.5086 2.07928 45.6466C0.77066 48.7186 0.0648889 52.0122 0.000176238 55.3492C-0.00170486 55.4242 0.0114889 55.4988 0.0389804 55.5686C0.0664719 55.6384 0.107705 55.702 0.160249 55.7557C0.212794 55.8094 0.275587 55.8521 0.344929 55.8812C0.414271 55.9103 0.488758 55.9253 0.564002 55.9253H4.7927C5.1028 55.9253 5.34948 55.6794 5.35652 55.3773C5.49748 49.9534 7.68231 44.8737 11.5445 41.0236C15.5406 37.04 20.8476 34.8479 26.5 34.8479C32.1524 34.8479 37.4594 37.04 41.4555 41.0236C45.3177 44.8737 47.5025 49.9534 47.6435 55.3773C47.6505 55.6864 47.8972 55.9253 48.2073 55.9253H52.436C52.5112 55.9253 52.5857 55.9103 52.6551 55.8812C52.7244 55.8521 52.7872 55.8094 52.8397 55.7557C52.8923 55.702 52.9335 55.6384 52.961 55.5686C52.9885 55.4988 53.0017 55.4242 52.9998 55.3492C52.9293 51.9908 52.2316 48.7239 50.9207 45.6395ZM26.5 29.5083C23.265 29.5083 20.2204 28.2507 17.9298 25.9673C15.6393 23.6839 14.3777 20.6488 14.3777 17.424C14.3777 14.1991 15.6393 11.164 17.9298 8.8806C20.2204 6.59722 23.265 5.3396 26.5 5.3396C29.735 5.3396 32.7796 6.59722 35.0702 8.8806C37.3607 11.164 38.6223 14.1991 38.6223 17.424C38.6223 20.6488 37.3607 23.6839 35.0702 25.9673C32.7796 28.2507 29.735 29.5083 26.5 29.5083Z" fill="#9C4EDD"/>
</svg>
