<svg width="61" height="61" viewBox="0 0 61 61" fill="none" xmlns="http://www.w3.org/2000/svg">
<path d="M48.1002 37.62C46.853 36.3254 45.3487 35.6333 43.7544 35.6333C42.173 35.6333 40.6558 36.3126 39.3573 37.6071L35.2944 41.6445C34.9601 41.4651 34.6258 41.2985 34.3044 41.1318C33.8415 40.9011 33.4044 40.6832 33.0315 40.4525C29.2258 38.0429 25.7672 34.9027 22.4501 30.8397C20.8429 28.8146 19.7629 27.1099 18.9787 25.3796C20.0329 24.4184 21.0101 23.4186 21.9615 22.4573C22.3215 22.0985 22.6815 21.7268 23.0415 21.3679C25.7415 18.6763 25.7415 15.19 23.0415 12.4985L19.5315 8.99939C19.1329 8.60206 18.7215 8.19191 18.3358 7.78176C17.5644 6.98711 16.7544 6.16681 15.9187 5.39778C14.6715 4.16734 13.1801 3.51367 11.6115 3.51367C10.0429 3.51367 8.52578 4.16734 7.24006 5.39778C7.22721 5.4106 7.22721 5.4106 7.21435 5.42342L2.84291 9.81968C1.19719 11.4603 0.25862 13.4597 0.0529054 15.7796C-0.255667 19.5222 0.85005 23.0085 1.69862 25.2899C3.78148 30.891 6.89292 36.0819 11.5344 41.6445C17.1658 48.3479 23.9415 53.6413 31.6815 57.3711C34.6387 58.7682 38.5858 60.4216 42.9959 60.7035C43.2659 60.7164 43.5487 60.7292 43.8059 60.7292C46.7759 60.7292 49.2702 59.6654 51.2244 57.5505C51.2373 57.5249 51.263 57.5121 51.2759 57.4865C51.9444 56.679 52.7159 55.9484 53.5259 55.1666C54.0787 54.6411 54.6445 54.0899 55.1973 53.5132C56.4702 52.193 57.1387 50.6549 57.1387 49.0784C57.1387 47.4891 56.4573 45.9639 55.1587 44.6822L48.1002 37.62ZM52.703 51.1164C52.6902 51.1164 52.6902 51.1292 52.703 51.1164C52.2016 51.6547 51.6873 52.1417 51.1344 52.68C50.2987 53.4747 49.4502 54.3078 48.653 55.2435C47.3544 56.6277 45.8244 57.2814 43.8187 57.2814C43.6259 57.2814 43.4201 57.2814 43.2273 57.2686C39.4087 57.025 35.8601 55.5383 33.1987 54.2694C25.9215 50.7575 19.5315 45.7716 14.2215 39.4528C9.83721 34.185 6.90578 29.3145 4.96434 24.0851C3.76863 20.8937 3.33148 18.4071 3.52434 16.0616C3.65291 14.562 4.23149 13.3188 5.29863 12.2549L9.68293 7.8843C10.3129 7.29471 10.9815 6.97429 11.6372 6.97429C12.4472 6.97429 13.1029 7.46134 13.5144 7.87148C13.5272 7.8843 13.5401 7.89712 13.5529 7.90994C14.3372 8.64051 15.0829 9.39672 15.8672 10.2042C16.2658 10.6143 16.6772 11.0245 17.0887 11.4475L20.5987 14.9465C21.9615 16.3051 21.9615 17.5612 20.5987 18.9198C20.2258 19.2915 19.8658 19.6632 19.4929 20.0221C18.4129 21.1244 17.3844 22.1497 16.2658 23.1495C16.2401 23.1751 16.2144 23.1879 16.2015 23.2135C15.0958 24.3158 15.3015 25.3925 15.5329 26.123C15.5458 26.1615 15.5587 26.1999 15.5715 26.2384C16.4844 28.4429 17.7701 30.5193 19.7244 32.993L19.7372 33.0058C23.2858 37.3636 27.0273 40.7602 31.1544 43.362C31.6815 43.6953 32.2215 43.9644 32.7358 44.2208C33.1987 44.4515 33.6358 44.6694 34.0087 44.9001C34.0601 44.9257 34.1115 44.9642 34.163 44.9898C34.6001 45.2077 35.0116 45.3102 35.4358 45.3102C36.503 45.3102 37.1716 44.6437 37.3901 44.4258L41.7873 40.0424C42.2244 39.6066 42.9187 39.0811 43.7287 39.0811C44.5259 39.0811 45.1816 39.581 45.5801 40.0168C45.593 40.0296 45.593 40.0296 45.6059 40.0424L52.6902 47.1046C54.0145 48.412 54.0145 49.7578 52.703 51.1164Z" fill="#7B2DBF"/>
<path d="M32.876 14.4457C36.2447 15.0096 39.3047 16.599 41.7476 19.0342C44.1906 21.4695 45.772 24.5199 46.3506 27.878C46.492 28.7239 47.2249 29.3135 48.0606 29.3135C48.1635 29.3135 48.2535 29.3007 48.3564 29.2879C49.3078 29.1341 49.9378 28.2369 49.7835 27.2884C49.0892 23.2254 47.1606 19.5213 44.2163 16.5861C41.2719 13.651 37.5561 11.7285 33.4803 11.0363C32.5289 10.8825 31.6417 11.5106 31.4746 12.4462C31.3074 13.3819 31.9246 14.2919 32.876 14.4457Z" fill="#7B2DBF"/>
<path d="M60.8016 26.7885C59.6573 20.0979 56.4944 14.0098 51.6343 9.16496C46.7743 4.3201 40.6671 1.1671 33.9556 0.0263795C33.017 -0.140243 32.1298 0.500612 31.9627 1.43626C31.8084 2.38472 32.4384 3.2691 33.3898 3.43572C39.3813 4.44827 44.8457 7.28085 49.1914 11.6002C53.5372 15.9324 56.3658 21.3796 57.3815 27.3524C57.523 28.1983 58.2558 28.7879 59.0916 28.7879C59.1944 28.7879 59.2844 28.7751 59.3873 28.7623C60.3259 28.6213 60.9687 27.7241 60.8016 26.7885Z" fill="#7B2DBF"/>
</svg>
