<svg width="69" height="69" viewBox="0 0 69 69" fill="none" xmlns="http://www.w3.org/2000/svg">
<path d="M45.2812 51.75H23.7188C22.575 51.75 21.4781 52.2044 20.6694 53.0131C19.8606 53.8219 19.4062 54.9188 19.4062 56.0625V60.375C19.4062 61.5187 19.8606 62.6156 20.6694 63.4244C21.4781 64.2331 22.575 64.6875 23.7188 64.6875H45.2812C46.425 64.6875 47.5219 64.2331 48.3306 63.4244C49.1394 62.6156 49.5938 61.5187 49.5938 60.375V56.0625C49.5938 54.9188 49.1394 53.8219 48.3306 53.0131C47.5219 52.2044 46.425 51.75 45.2812 51.75ZM45.2812 60.375H23.7188V56.0625H45.2812V60.375Z" fill="#9C4EDD"/>
<path d="M61.899 30.8193L36.024 4.94431C35.6197 4.54007 35.0713 4.31299 34.4995 4.31299C33.9278 4.31299 33.3794 4.54007 32.9751 4.94431L7.10007 30.8193C6.79861 31.1209 6.59332 31.505 6.51016 31.9232C6.427 32.3415 6.4697 32.7749 6.63286 33.1689C6.79602 33.5628 7.07232 33.8995 7.42683 34.1365C7.78134 34.3734 8.19814 34.4999 8.62454 34.5H19.4058V43.125C19.4069 44.2684 19.8617 45.3647 20.6702 46.1732C21.4787 46.9817 22.5749 47.4364 23.7183 47.4375H45.2808C46.424 47.4358 47.5199 46.9809 48.3283 46.1725C49.1367 45.3642 49.5916 44.2682 49.5933 43.125V34.5H60.3745C60.8009 34.4999 61.2177 34.3734 61.5723 34.1365C61.9268 33.8995 62.2031 33.5628 62.3662 33.1689C62.5294 32.7749 62.5721 32.3415 62.4889 31.9232C62.4058 31.505 62.2005 31.1209 61.899 30.8193ZM45.2808 30.1875V43.125H23.7183V30.1875H13.8297L34.4995 9.51772L55.1694 30.1875H45.2808Z" fill="#9C4EDD"/>
</svg>
