<svg width="33" height="38" viewBox="0 0 33 38" fill="none" xmlns="http://www.w3.org/2000/svg">
<path d="M9.75 12.75C10.0815 12.75 10.3995 12.8817 10.6339 13.1161C10.8683 13.3505 11 13.6685 11 14V29C11 29.3315 10.8683 29.6495 10.6339 29.8839C10.3995 30.1183 10.0815 30.25 9.75 30.25C9.41848 30.25 9.10054 30.1183 8.86612 29.8839C8.6317 29.6495 8.5 29.3315 8.5 29V14C8.5 13.6685 8.6317 13.3505 8.86612 13.1161C9.10054 12.8817 9.41848 12.75 9.75 12.75ZM16 12.75C16.3315 12.75 16.6495 12.8817 16.8839 13.1161C17.1183 13.3505 17.25 13.6685 17.25 14V29C17.25 29.3315 17.1183 29.6495 16.8839 29.8839C16.6495 30.1183 16.3315 30.25 16 30.25C15.6685 30.25 15.3505 30.1183 15.1161 29.8839C14.8817 29.6495 14.75 29.3315 14.75 29V14C14.75 13.6685 14.8817 13.3505 15.1161 13.1161C15.3505 12.8817 15.6685 12.75 16 12.75ZM23.5 14C23.5 13.6685 23.3683 13.3505 23.1339 13.1161C22.8995 12.8817 22.5815 12.75 22.25 12.75C21.9185 12.75 21.6005 12.8817 21.3661 13.1161C21.1317 13.3505 21 13.6685 21 14V29C21 29.3315 21.1317 29.6495 21.3661 29.8839C21.6005 30.1183 21.9185 30.25 22.25 30.25C22.5815 30.25 22.8995 30.1183 23.1339 29.8839C23.3683 29.6495 23.5 29.3315 23.5 29V14Z" fill="white"/>
<path fill-rule="evenodd" clip-rule="evenodd" d="M32.5 7.5C32.5 8.16304 32.2366 8.79893 31.7678 9.26777C31.2989 9.73661 30.663 10 30 10H28.75V32.5C28.75 33.8261 28.2232 35.0979 27.2855 36.0355C26.3479 36.9732 25.0761 37.5 23.75 37.5H8.75C7.42392 37.5 6.15215 36.9732 5.21447 36.0355C4.27678 35.0979 3.75 33.8261 3.75 32.5V10H2.5C1.83696 10 1.20107 9.73661 0.732233 9.26777C0.263392 8.79893 0 8.16304 0 7.5V5C0 4.33696 0.263392 3.70107 0.732233 3.23223C1.20107 2.76339 1.83696 2.5 2.5 2.5H11.25C11.25 1.83696 11.5134 1.20107 11.9822 0.732233C12.4511 0.263392 13.087 0 13.75 0L18.75 0C19.413 0 20.0489 0.263392 20.5178 0.732233C20.9866 1.20107 21.25 1.83696 21.25 2.5H30C30.663 2.5 31.2989 2.76339 31.7678 3.23223C32.2366 3.70107 32.5 4.33696 32.5 5V7.5ZM6.545 10L6.25 10.1475V32.5C6.25 33.163 6.51339 33.7989 6.98223 34.2678C7.45107 34.7366 8.08696 35 8.75 35H23.75C24.413 35 25.0489 34.7366 25.5178 34.2678C25.9866 33.7989 26.25 33.163 26.25 32.5V10.1475L25.955 10H6.545ZM2.5 7.5V5H30V7.5H2.5Z" fill="white"/>
</svg>
