<svg width="25" height="25" viewBox="0 0 25 25" fill="none" xmlns="http://www.w3.org/2000/svg">
<path d="M12.5 2.0835L6.77083 11.4585H18.2292L12.5 2.0835ZM12.5 6.0835L14.5104 9.37516H10.4792L12.5 6.0835ZM18.2292 13.5418C15.6354 13.5418 13.5417 15.6356 13.5417 18.2293C13.5417 20.8231 15.6354 22.9168 18.2292 22.9168C20.8229 22.9168 22.9167 20.8231 22.9167 18.2293C22.9167 15.6356 20.8229 13.5418 18.2292 13.5418ZM18.2292 20.8335C17.5385 20.8335 16.8761 20.5591 16.3877 20.0708C15.8994 19.5824 15.625 18.92 15.625 18.2293C15.625 17.5387 15.8994 16.8763 16.3877 16.3879C16.8761 15.8995 17.5385 15.6252 18.2292 15.6252C18.9198 15.6252 19.5822 15.8995 20.0706 16.3879C20.559 16.8763 20.8333 17.5387 20.8333 18.2293C20.8333 18.92 20.559 19.5824 20.0706 20.0708C19.5822 20.5591 18.9198 20.8335 18.2292 20.8335ZM3.125 22.396H11.4583V14.0627H3.125V22.396ZM5.20833 16.146H9.375V20.3127H5.20833V16.146Z" fill="white"/>
</svg>
