<svg width="39" height="41" viewBox="0 0 39 41" fill="none" xmlns="http://www.w3.org/2000/svg">
<path d="M19.5001 2.84717C9.94508 2.84717 2.16675 9.99939 2.16675 18.7916C2.16675 27.5838 9.94508 34.7361 19.5001 34.7361C21.2877 34.7339 23.0666 34.4733 24.7868 33.9616L30.7776 37.9705C30.9411 38.0808 31.1299 38.1429 31.3241 38.1501C31.5183 38.1574 31.7108 38.1096 31.8813 38.0118C32.0519 37.9139 32.1944 37.7697 32.2937 37.5941C32.393 37.4185 32.4456 37.2181 32.4459 37.0138V29.3491C33.8014 27.9821 34.8831 26.3438 35.6273 24.5307C36.3715 22.7176 36.7632 20.7663 36.7793 18.7916C36.8334 9.99939 29.0551 2.84717 19.5001 2.84717ZM30.6476 28.028C30.5387 28.1342 30.4517 28.2628 30.3921 28.4058C30.3324 28.5488 30.3014 28.7032 30.3009 28.8594V34.9411L25.5559 31.7636C25.4236 31.6756 25.2746 31.6189 25.1194 31.5972C24.9642 31.5756 24.8063 31.5896 24.6568 31.6383C22.987 32.1835 21.2485 32.4599 19.5001 32.4583C11.1367 32.4583 4.33342 26.3311 4.33342 18.7916C4.33342 11.2522 11.1367 5.12495 19.5001 5.12495C27.8634 5.12495 34.6668 11.2522 34.6668 18.7916C34.6421 20.5399 34.272 22.2637 33.5802 23.8537C32.8883 25.4437 31.8896 26.8652 30.6476 28.028Z" fill="#999999"/>
<path d="M27.0833 17.6528H11.9166C11.6293 17.6528 11.3537 17.7728 11.1506 17.9864C10.9474 18.2 10.8333 18.4897 10.8333 18.7917C10.8333 19.0938 10.9474 19.3835 11.1506 19.597C11.3537 19.8106 11.6293 19.9306 11.9166 19.9306H27.0833C27.3706 19.9306 27.6461 19.8106 27.8493 19.597C28.0524 19.3835 28.1666 19.0938 28.1666 18.7917C28.1666 18.4897 28.0524 18.2 27.8493 17.9864C27.6461 17.7728 27.3706 17.6528 27.0833 17.6528Z" fill="#999999"/>
<path d="M23.5626 23.3472H15.4376C15.1503 23.3472 14.8747 23.4672 14.6715 23.6807C14.4684 23.8943 14.3542 24.184 14.3542 24.4861C14.3542 24.7881 14.4684 25.0778 14.6715 25.2914C14.8747 25.505 15.1503 25.6249 15.4376 25.6249H23.5626C23.8499 25.6249 24.1255 25.505 24.3286 25.2914C24.5318 25.0778 24.6459 24.7881 24.6459 24.4861C24.6459 24.184 24.5318 23.8943 24.3286 23.6807C24.1255 23.4672 23.8499 23.3472 23.5626 23.3472Z" fill="#999999"/>
<path d="M12.2201 14.236H26.7801C27.0674 14.236 27.3429 14.116 27.5461 13.9025C27.7493 13.6889 27.8634 13.3992 27.8634 13.0971C27.8634 12.7951 27.7493 12.5054 27.5461 12.2918C27.3429 12.0782 27.0674 11.9583 26.7801 11.9583H12.2201C11.9327 11.9583 11.6572 12.0782 11.454 12.2918C11.2509 12.5054 11.1367 12.7951 11.1367 13.0971C11.1367 13.3992 11.2509 13.6889 11.454 13.9025C11.6572 14.116 11.9327 14.236 12.2201 14.236Z" fill="#999999"/>
</svg>
