<svg width="24" height="23" viewBox="0 0 24 23" fill="none" xmlns="http://www.w3.org/2000/svg">
<path d="M17.1432 3.97439L19.8841 6.58952L17.1432 3.97439ZM18.9058 1.67055L11.4943 8.74512C11.1113 9.11015 10.8502 9.57522 10.7437 10.0817L10.0591 13.3528L13.4859 12.6981C14.0165 12.5968 14.5031 12.3485 14.8862 11.9828L22.2977 4.90828C22.5204 4.69569 22.6971 4.4433 22.8176 4.16554C22.9381 3.88777 23.0002 3.59007 23.0002 3.28942C23.0002 2.98877 22.9381 2.69106 22.8176 2.41329C22.6971 2.13553 22.5204 1.88315 22.2977 1.67055C22.075 1.45796 21.8106 1.28933 21.5196 1.17427C21.2286 1.05922 20.9167 1 20.6017 1C20.2867 1 19.9749 1.05922 19.6839 1.17427C19.3929 1.28933 19.1285 1.45796 18.9058 1.67055V1.67055Z" stroke="#9C4EDB" stroke-width="2" stroke-linecap="round" stroke-linejoin="round"/>
<path d="M20.412 15.8237V19.5296C20.412 20.1849 20.1393 20.8133 19.6539 21.2766C19.1685 21.7399 18.5102 22.0002 17.8237 22.0002H3.58826C2.90181 22.0002 2.24348 21.7399 1.75808 21.2766C1.27269 20.8133 1 20.1849 1 19.5296V5.9413C1 5.28606 1.27269 4.65765 1.75808 4.19433C2.24348 3.731 2.90181 3.4707 3.58826 3.4707H7.47065" stroke="#9C4EDB" stroke-width="2" stroke-linecap="round" stroke-linejoin="round"/>
</svg>
