<svg width="16" height="18" viewBox="0 0 16 18" fill="none" xmlns="http://www.w3.org/2000/svg">
<path fill-rule="evenodd" clip-rule="evenodd" d="M13 2H3C2.73478 2 2.48043 2.10536 2.29289 2.29289C2.10536 2.48043 2 2.73478 2 3V15C2 15.2652 2.10536 15.5196 2.29289 15.7071C2.48043 15.8946 2.73478 16 3 16H13C13.2652 16 13.5196 15.8946 13.7071 15.7071C13.8946 15.5196 14 15.2652 14 15V3C14 2.73478 13.8946 2.48043 13.7071 2.29289C13.5196 2.10536 13.2652 2 13 2ZM3 0C2.20435 0 1.44129 0.316071 0.87868 0.87868C0.316071 1.44129 0 2.20435 0 3V15C0 15.7956 0.316071 16.5587 0.87868 17.1213C1.44129 17.6839 2.20435 18 3 18H13C13.7956 18 14.5587 17.6839 15.1213 17.1213C15.6839 16.5587 16 15.7956 16 15V3C16 2.20435 15.6839 1.44129 15.1213 0.87868C14.5587 0.316071 13.7956 0 13 0H3Z" fill="#C67EFF"/>
<path d="M4 4H12V6H4V4Z" fill="#C67EFF"/>
<path d="M4 8H12V10H4V8Z" fill="#C67EFF"/>
<path d="M4 12H9V14H4V12Z" fill="#C67EFF"/>
</svg>
