<svg width="25" height="25" viewBox="0 0 25 25" fill="none" xmlns="http://www.w3.org/2000/svg">
<path d="M14.1083 10.8916C13.2551 10.0387 12.0981 9.55957 10.8917 9.55957C9.68527 9.55957 8.52824 10.0387 7.67501 10.8916L4.4573 14.1082C3.60405 14.9615 3.12469 16.1187 3.12469 17.3254C3.12469 18.5321 3.60405 19.6894 4.4573 20.5426C5.31055 21.3959 6.46781 21.8752 7.67448 21.8752C8.88116 21.8752 10.0384 21.3959 10.8917 20.5426L12.5 18.9343" stroke="white" stroke-width="2.08333" stroke-linecap="round" stroke-linejoin="round"/>
<path d="M10.8917 14.1082C11.7449 14.961 12.9019 15.4402 14.1083 15.4402C15.3147 15.4402 16.4718 14.961 17.325 14.1082L20.5427 10.8915C21.396 10.0382 21.8753 8.88098 21.8753 7.6743C21.8753 6.46762 21.396 5.31037 20.5427 4.45711C19.6895 3.60386 18.5322 3.12451 17.3255 3.12451C16.1188 3.12451 14.9616 3.60386 14.1083 4.45711L12.5 6.06545" stroke="white" stroke-width="2.08333" stroke-linecap="round" stroke-linejoin="round"/>
</svg>
