<svg width="9" height="12" viewBox="0 0 9 12" fill="none" xmlns="http://www.w3.org/2000/svg">
<path d="M8.40833 3.83217C8.49744 3.95277 8.53934 4.10434 8.52553 4.25609C8.51171 4.40785 8.44322 4.54841 8.33395 4.64923C8.22468 4.75005 8.08284 4.80357 7.93723 4.79892C7.79162 4.79427 7.65316 4.73179 7.54997 4.62418L4.51503 1.44834L1.4801 4.62418L1.4262 4.67398C1.31095 4.76723 1.16611 4.81108 1.02109 4.79662C0.876065 4.78217 0.741738 4.71049 0.64539 4.59615C0.549042 4.48181 0.497897 4.33338 0.502343 4.18101C0.506789 4.02863 0.566494 3.88375 0.66933 3.77577L4.10965 0.175719L4.16355 0.125919C4.27387 0.0363665 4.41163 -0.0079855 4.55098 0.00118334C4.69032 0.0103522 4.82169 0.0724117 4.92042 0.175719L8.36074 3.77577L8.40833 3.83217ZM0.621738 8.16783C0.532627 8.04723 0.490724 7.89567 0.504539 7.74391C0.518354 7.59215 0.586851 7.45159 0.696119 7.35077C0.805386 7.24995 0.947231 7.19643 1.09284 7.20108C1.23845 7.20573 1.37691 7.26821 1.4801 7.37582L4.51503 10.5517L7.54997 7.37582L7.60387 7.32602C7.71911 7.23277 7.86396 7.18892 8.00898 7.20338C8.154 7.21783 8.28833 7.28951 8.38468 7.40385C8.48103 7.51819 8.53217 7.66662 8.52773 7.819C8.52328 7.97137 8.46358 8.11626 8.36074 8.22423L4.92042 11.8243L4.86652 11.8741C4.7562 11.9636 4.61844 12.008 4.47909 11.9988C4.33975 11.9896 4.20838 11.9276 4.10965 11.8243L0.66933 8.22423L0.621738 8.16783Z" fill="#9C4EDD"/>
</svg>
