<svg width="20" height="16" viewBox="0 0 20 16" fill="none" xmlns="http://www.w3.org/2000/svg">
<path d="M18.9375 0H1.0625C0.682227 0 0.375 0.307227 0.375 0.6875V14.4375C0.375 14.8178 0.682227 15.125 1.0625 15.125H18.9375C19.3178 15.125 19.625 14.8178 19.625 14.4375V0.6875C19.625 0.307227 19.3178 0 18.9375 0ZM18.0781 2.38047V13.5781H1.92188V2.38047L1.32891 1.91855L2.17324 0.833594L3.09277 1.54902H16.9094L17.8289 0.833594L18.6732 1.91855L18.0781 2.38047ZM16.9094 1.54688L10 6.91797L3.09062 1.54688L2.17109 0.831445L1.32676 1.91641L1.91973 2.37832L9.25879 8.08457C9.46985 8.24854 9.72951 8.33755 9.99678 8.33755C10.264 8.33755 10.5237 8.24854 10.7348 8.08457L18.0781 2.38047L18.6711 1.91855L17.8268 0.833594L16.9094 1.54688Z" fill="#9747FF"/>
</svg>
