<svg width="30" height="30" viewBox="0 0 30 30" fill="none" xmlns="http://www.w3.org/2000/svg">
<path d="M1.31134e-06 15C1.65913e-06 11.0218 1.58035 7.20644 4.3934 4.3934C7.20645 1.58035 11.0218 -1.65913e-06 15 -1.31134e-06C18.9783 -9.63552e-07 22.7936 1.58035 25.6066 4.3934C28.4196 7.20644 30 11.0218 30 15C30 18.9782 28.4196 22.7936 25.6066 25.6066C22.7936 28.4196 18.9782 30 15 30C11.0218 30 7.20644 28.4196 4.3934 25.6066C1.58035 22.7936 9.63552e-07 18.9782 1.31134e-06 15ZM14.0625 21.5625C14.0625 21.8111 14.1613 22.0496 14.3371 22.2254C14.5129 22.4012 14.7514 22.5 15 22.5C15.2486 22.5 15.4871 22.4012 15.6629 22.2254C15.8387 22.0496 15.9375 21.8111 15.9375 21.5625L15.9375 10.7006L19.9613 14.7262C20.1373 14.9023 20.376 15.0012 20.625 15.0012C20.874 15.0012 21.1127 14.9023 21.2888 14.7262C21.4648 14.5502 21.5637 14.3115 21.5637 14.0625C21.5637 13.8135 21.4648 13.5748 21.2888 13.3987L15.6638 7.77375C15.5767 7.68644 15.4732 7.61717 15.3593 7.56991C15.2454 7.52265 15.1233 7.49832 15 7.49832C14.8767 7.49832 14.7546 7.52265 14.6407 7.56991C14.5268 7.61717 14.4233 7.68644 14.3363 7.77375L8.71125 13.3987C8.53521 13.5748 8.43632 13.8135 8.43632 14.0625C8.43632 14.3115 8.53521 14.5502 8.71125 14.7262C8.88729 14.9023 9.12605 15.0012 9.375 15.0012C9.62396 15.0012 9.86271 14.9023 10.0388 14.7262L14.0625 10.7006L14.0625 21.5625Z" fill="#9C4EDD"/>
</svg>
