<svg width="28" height="18" viewBox="0 0 28 18" fill="none" xmlns="http://www.w3.org/2000/svg">
<path d="M14 16.5C20.9037 16.5 26.5 9 26.5 9C26.5 9 20.9037 1.5 14 1.5C7.09625 1.5 1.5 9 1.5 9C1.5 9 7.09625 16.5 14 16.5Z" stroke="white" stroke-width="2.5" stroke-linejoin="round"/>
<path d="M14 12.125C14.8288 12.125 15.6237 11.7958 16.2097 11.2097C16.7958 10.6237 17.125 9.8288 17.125 9C17.125 8.1712 16.7958 7.37634 16.2097 6.79029C15.6237 6.20424 14.8288 5.875 14 5.875C13.1712 5.875 12.3763 6.20424 11.7903 6.79029C11.2042 7.37634 10.875 8.1712 10.875 9C10.875 9.8288 11.2042 10.6237 11.7903 11.2097C12.3763 11.7958 13.1712 12.125 14 12.125Z" stroke="white" stroke-width="2.5" stroke-linejoin="round"/>
</svg>
