<svg width="100" height="100" viewBox="0 0 100 100" fill="none" xmlns="http://www.w3.org/2000/svg">
<path d="M50 12.5125C48.3601 12.5125 46.7363 12.8355 45.2212 13.4631C43.7062 14.0906 42.3296 15.0104 41.17 16.17C40.0104 17.3296 39.0906 18.7062 38.4631 20.2213C37.8355 21.7363 37.5125 23.3601 37.5125 25C37.5125 26.6399 37.8355 28.2637 38.4631 29.7788C39.0906 31.2938 40.0104 32.6704 41.17 33.83C42.3296 34.9896 43.7062 35.9094 45.2212 36.537C46.7363 37.1645 48.3601 37.4875 50 37.4875C53.3119 37.4875 56.4881 36.1719 58.83 33.83C61.1719 31.4881 62.4875 28.3119 62.4875 25C62.4875 21.6881 61.1719 18.5119 58.83 16.17C56.4881 13.8282 53.3119 12.5125 50 12.5125ZM78.125 18.75C75.6386 18.75 73.254 19.7377 71.4959 21.4959C69.7377 23.254 68.75 25.6386 68.75 28.125C68.75 30.6114 69.7377 32.996 71.4959 34.7541C73.254 36.5123 75.6386 37.5 78.125 37.5C80.6114 37.5 82.996 36.5123 84.7541 34.7541C86.5123 32.996 87.5 30.6114 87.5 28.125C87.5 25.6386 86.5123 23.254 84.7541 21.4959C82.996 19.7377 80.6114 18.75 78.125 18.75ZM21.875 18.75C19.3886 18.75 17.004 19.7377 15.2459 21.4959C13.4877 23.254 12.5 25.6386 12.5 28.125C12.5 30.6114 13.4877 32.996 15.2459 34.7541C17.004 36.5123 19.3886 37.5 21.875 37.5C24.3614 37.5 26.746 36.5123 28.5041 34.7541C30.2623 32.996 31.25 30.6114 31.25 28.125C31.25 25.6386 30.2623 23.254 28.5041 21.4959C26.746 19.7377 24.3614 18.75 21.875 18.75ZM31.25 49.9563C31.2616 48.3063 31.9251 46.7278 33.096 45.5651C34.2668 44.4024 35.8499 43.75 37.5 43.75H62.5C64.1576 43.75 65.7473 44.4085 66.9194 45.5806C68.0915 46.7527 68.75 48.3424 68.75 50V68.75C68.7496 70.717 68.4417 72.6719 67.8375 74.5438C66.4536 78.7857 63.6028 82.3952 59.797 84.7244C55.9912 87.0535 51.4797 87.9496 47.0727 87.2517C42.6656 86.5538 38.6518 84.3077 35.7518 80.9167C32.8518 77.5257 31.2556 73.212 31.25 68.75V50V49.9563ZM25 50C25 47.7188 25.6063 45.5875 26.675 43.75H12.5C10.8424 43.75 9.25269 44.4085 8.08058 45.5806C6.90848 46.7527 6.25 48.3424 6.25 50V65.625C6.24915 68.1832 6.87641 70.7024 8.07671 72.9615C9.277 75.2206 11.0136 77.1504 13.134 78.5815C15.2544 80.0126 17.6938 80.9012 20.2379 81.1692C22.7819 81.4372 25.3529 81.0765 27.725 80.1188C25.9261 76.5973 24.992 72.698 25 68.7438V50ZM75 50V68.75C75 72.8438 74.0188 76.7063 72.275 80.1188C74.6471 81.0765 77.2181 81.4372 79.7621 81.1692C82.3062 80.9012 84.7456 80.0126 86.866 78.5815C88.9864 77.1504 90.723 75.2206 91.9233 72.9615C93.1236 70.7024 93.7509 68.1832 93.75 65.625V50C93.75 48.3424 93.0915 46.7527 91.9194 45.5806C90.7473 44.4085 89.1576 43.75 87.5 43.75H73.325C74.3875 45.5875 75 47.7188 75 50Z" fill="#9C4EDD"/>
</svg>
