<svg width="28" height="25" viewBox="0 0 28 25" fill="none" xmlns="http://www.w3.org/2000/svg">
<path d="M13.5451 3.12793C13.1009 3.12793 12.661 3.20868 12.2505 3.36557C11.8401 3.52246 11.4672 3.75241 11.153 4.04231C10.8389 4.3322 10.5897 4.67635 10.4197 5.05511C10.2497 5.43388 10.1622 5.83983 10.1622 6.2498C10.1622 6.65978 10.2497 7.06573 10.4197 7.44449C10.5897 7.82326 10.8389 8.16741 11.153 8.4573C11.4672 8.7472 11.8401 8.97715 12.2505 9.13404C12.661 9.29093 13.1009 9.37168 13.5451 9.37168C14.4423 9.37168 15.3028 9.04277 15.9372 8.4573C16.5716 7.87184 16.928 7.07778 16.928 6.2498C16.928 5.42183 16.5716 4.62777 15.9372 4.04231C15.3028 3.45684 14.4423 3.12793 13.5451 3.12793ZM21.1643 4.6873C20.4907 4.6873 19.8447 4.93423 19.3684 5.37377C18.8921 5.81331 18.6246 6.40945 18.6246 7.03105C18.6246 7.65266 18.8921 8.2488 19.3684 8.68834C19.8447 9.12787 20.4907 9.3748 21.1643 9.3748C21.8378 9.3748 22.4838 9.12787 22.9601 8.68834C23.4364 8.2488 23.704 7.65266 23.704 7.03105C23.704 6.40945 23.4364 5.81331 22.9601 5.37377C22.4838 4.93423 21.8378 4.6873 21.1643 4.6873ZM5.92597 4.6873C5.2524 4.6873 4.60641 4.93423 4.13012 5.37377C3.65384 5.81331 3.38626 6.40945 3.38626 7.03105C3.38626 7.65266 3.65384 8.2488 4.13012 8.68834C4.60641 9.12787 5.2524 9.3748 5.92597 9.3748C6.59955 9.3748 7.24554 9.12787 7.72183 8.68834C8.19811 8.2488 8.46569 7.65266 8.46569 7.03105C8.46569 6.40945 8.19811 5.81331 7.72183 5.37377C7.24554 4.93423 6.59955 4.6873 5.92597 4.6873ZM8.46569 12.4889C8.46882 12.0764 8.64858 11.6817 8.96577 11.3911C9.28296 11.1004 9.71183 10.9373 10.1588 10.9373H16.9314C17.3805 10.9373 17.8111 11.1019 18.1286 11.395C18.4462 11.688 18.6246 12.0854 18.6246 12.4998V17.1873C18.6244 17.6791 18.541 18.1678 18.3774 18.6357C18.0024 19.6962 17.2301 20.5986 16.1991 21.1809C15.1681 21.7632 13.946 21.9872 12.7521 21.8127C11.5582 21.6383 10.4708 21.0767 9.68523 20.229C8.89961 19.3812 8.46722 18.3028 8.46569 17.1873V12.4998V12.4889ZM6.77255 12.4998C6.77255 11.9295 6.93678 11.3967 7.22631 10.9373H3.38626C2.93721 10.9373 2.50655 11.1019 2.18903 11.395C1.8715 11.688 1.69312 12.0854 1.69312 12.4998V16.4061C1.69288 17.0456 1.86281 17.6754 2.18798 18.2402C2.51314 18.8049 2.98359 19.2874 3.55802 19.6452C4.13244 20.0029 4.79327 20.2251 5.48247 20.2921C6.17166 20.3591 6.86815 20.2689 7.51076 20.0295C7.02343 19.1491 6.77038 18.1743 6.77255 17.1857V12.4998ZM20.3177 12.4998V17.1873C20.3177 18.2107 20.0519 19.1764 19.5795 20.0295C20.2221 20.2689 20.9186 20.3591 21.6078 20.2921C22.297 20.2251 22.9578 20.0029 23.5322 19.6452C24.1067 19.2874 24.5771 18.8049 24.9023 18.2402C25.2274 17.6754 25.3974 17.0456 25.3971 16.4061V12.4998C25.3971 12.0854 25.2187 11.688 24.9012 11.395C24.5837 11.1019 24.153 10.9373 23.704 10.9373H19.8639C20.1518 11.3967 20.3177 11.9295 20.3177 12.4998Z" fill="white"/>
</svg>
