<svg width="22" height="22" viewBox="0 0 22 22" fill="none" xmlns="http://www.w3.org/2000/svg">
<path d="M12.8332 7.33317H4.27762C4.11554 7.33317 3.9601 7.26879 3.84549 7.15418C3.73089 7.03958 3.6665 6.88414 3.6665 6.72206V4.27762C3.6665 4.11554 3.73089 3.9601 3.84549 3.84549C3.9601 3.73089 4.11554 3.6665 4.27762 3.6665H12.8332C12.9952 3.6665 13.1507 3.73089 13.2653 3.84549C13.3799 3.9601 13.4443 4.11554 13.4443 4.27762V6.72206C13.4443 6.88414 13.3799 7.03958 13.2653 7.15418C13.1507 7.26879 12.9952 7.33317 12.8332 7.33317ZM4.88873 6.11095H12.2221V4.85206H4.88873V6.11095Z" fill="#999999"/>
<path d="M12.8332 8.60449H4.27762C4.11554 8.60449 3.9601 8.66888 3.84549 8.78348C3.73089 8.89809 3.6665 9.05353 3.6665 9.2156V11.6112C3.6665 11.7732 3.73089 11.9287 3.84549 12.0433C3.9601 12.1579 4.11554 12.2223 4.27762 12.2223H11.2198L13.4443 9.96116V9.2156C13.4443 9.05353 13.3799 8.89809 13.2653 8.78348C13.1507 8.66888 12.9952 8.60449 12.8332 8.60449ZM12.2221 11H4.88873V9.77783H12.2221V11Z" fill="#999999"/>
<path d="M6.75884 19.2561V19.2194L6.95439 18.3699H2.44439V2.44439H14.6666V8.70828L15.8888 7.55328V1.83328C15.8888 1.6712 15.8245 1.51576 15.7098 1.40116C15.5952 1.28655 15.4398 1.22217 15.2777 1.22217H1.83328C1.6712 1.22217 1.51576 1.28655 1.40116 1.40116C1.28655 1.51576 1.22217 1.6712 1.22217 1.83328V18.9444C1.22217 19.1065 1.28655 19.2619 1.40116 19.3765C1.51576 19.4911 1.6712 19.5555 1.83328 19.5555H6.72217C6.7272 19.4549 6.73946 19.3549 6.75884 19.2561Z" fill="#9C4EDD"/>
<path d="M13.4444 11.7148L12.9678 12.1976C13.086 12.1732 13.1944 12.1144 13.2793 12.0285C13.3641 11.9425 13.4216 11.8334 13.4444 11.7148Z" fill="#999999"/>
<path d="M3.6665 16.4632C3.6665 16.6253 3.73089 16.7807 3.84549 16.8953C3.9601 17.0099 4.11554 17.0743 4.27762 17.0743H7.23539L7.41873 16.2799L7.49817 15.9438V15.9132H4.88873V14.6666H8.76317L9.98539 13.4443H4.27762C4.11554 13.4443 3.9601 13.5087 3.84549 13.6233C3.73089 13.7379 3.6665 13.8934 3.6665 14.0554V16.4632Z" fill="#999999"/>
<path d="M20.4663 10.1874L18.4069 8.128C18.3155 8.03635 18.2069 7.96363 18.0873 7.91402C17.9678 7.86441 17.8396 7.83887 17.7102 7.83887C17.5808 7.83887 17.4526 7.86441 17.3331 7.91402C17.2135 7.96363 17.1049 8.03635 17.0135 8.128L8.63519 16.5552L7.94464 19.4947C7.91878 19.6215 7.9182 19.7521 7.94293 19.8792C7.96765 20.0062 8.0172 20.1271 8.08872 20.235C8.16025 20.3428 8.25235 20.4355 8.35976 20.5077C8.46716 20.5799 8.58776 20.6302 8.71464 20.6558C8.77763 20.6621 8.84109 20.6621 8.90408 20.6558C8.97896 20.668 9.05532 20.668 9.13019 20.6558L12.0941 20.0019L20.4663 11.6113C20.5578 11.5205 20.6304 11.4124 20.6799 11.2933C20.7294 11.1743 20.7549 11.0467 20.7549 10.9177C20.7549 10.7888 20.7294 10.6611 20.6799 10.5421C20.6304 10.423 20.5578 10.315 20.4663 10.2241V10.1874ZM11.4707 18.8897L9.23408 19.3847L9.77797 17.1663L16.0602 10.8169L17.7835 12.5402L11.4707 18.8897ZM18.4741 11.8497L16.7507 10.1263L17.7224 9.16688L19.458 10.9024L18.4741 11.8497Z" fill="#9C4EDD"/>
</svg>
