<svg width="48" height="49" viewBox="0 0 48 49" fill="none" xmlns="http://www.w3.org/2000/svg">
<path d="M41.2969 15.3754C40.9844 15.3115 40.75 15.2796 40.5938 15.2796C39.4375 15.2796 38.4375 15.6787 37.5938 16.477C35.6875 15.6149 33.9062 14.9123 32.25 14.3695C29.5312 13.4754 26.6875 12.741 23.7188 12.1662C23.4375 11.3998 23.0156 10.7612 22.4531 10.2502C23.2344 6.48224 24.2812 3.06549 25.5938 0C29.5312 0.28739 33.1484 1.45292 36.4453 3.49658C39.7422 5.54024 42.4062 8.22255 44.4375 11.5435C43.2812 12.8208 42.2344 14.0981 41.2969 15.3754ZM19.5469 9.14858C18.7344 9.14858 17.9688 9.37211 17.25 9.81916C14.7188 7.90323 12.1719 6.27468 9.60938 4.93353C13.4844 1.9319 17.8281 0.28739 22.6406 0C21.4219 2.7781 20.4375 5.82763 19.6875 9.14858H19.5469ZM3.28125 12.1183C4.34375 10.2981 5.6875 8.5738 7.3125 6.94526C9.4375 8.06289 11.6406 9.43597 13.9219 11.0645C9.89062 10.9687 6.34375 11.32 3.28125 12.1183ZM15.0469 14.0342C15.1094 15.0241 15.4453 15.8943 16.0547 16.6447C16.6641 17.3951 17.4219 17.898 18.3281 18.1535C18.1406 20.3887 18.0469 22.5122 18.0469 24.5239C18.0469 25.929 18.0938 27.5415 18.1875 29.3617C17.5 29.5852 16.8906 29.9684 16.3594 30.5112C14.6719 29.8407 13.0469 29.0743 11.4844 28.2121C11.8281 27.5096 12 26.7911 12 26.0567C12 24.7794 11.5625 23.6937 10.6875 22.7996C9.8125 21.9055 8.75 21.4585 7.5 21.4585C6.125 21.4585 4.98438 22.0013 4.07812 23.087C2.76562 21.8736 1.59375 20.6123 0.5625 19.303C0.84375 17.9299 1.26562 16.5728 1.82812 15.2317C5.64062 14.146 10.0469 13.7468 15.0469 14.0342ZM3.04688 26.4399C3.14062 27.6214 3.61719 28.6193 4.47656 29.4335C5.33594 30.2478 6.34375 30.6549 7.5 30.6549C7.84375 30.6549 8.21875 30.5911 8.625 30.4633C10.625 31.6448 12.7656 32.6667 15.0469 33.5288V33.7204C15.0469 34.9658 15.4609 36.0275 16.2891 36.9057C17.1172 37.7838 18.1406 38.2548 19.3594 38.3187C20.1406 42.2144 21.2344 45.7748 22.6406 49C19.5156 48.8084 16.5625 48.034 13.7812 46.6769C11 45.3198 8.60156 43.5556 6.58594 41.3842C4.57031 39.2128 2.96875 36.6582 1.78125 33.7204C0.59375 30.7827 0 27.7172 0 24.5239C0 24.492 0.015625 24.0609 0.046875 23.2307C0.921875 24.3483 1.92188 25.4181 3.04688 26.4399ZM23.4844 35.8759C25.7344 36.291 28 36.5624 30.2812 36.6901C30.5 37.3288 30.8438 37.9195 31.3125 38.4624C30.5938 41.8152 30.1562 45.0723 30 48.2336C28.4062 48.6487 26.9375 48.9042 25.5938 49C24.125 45.5833 22.9844 41.7195 22.1719 37.4086C22.7344 37.0254 23.1719 36.5145 23.4844 35.8759ZM38.0156 38.175C38.4219 37.6641 38.7031 37.1212 38.8594 36.5464C41.1406 36.3548 43.3438 36.0515 45.4688 35.6364C43.9688 38.638 41.9062 41.2405 39.2812 43.4438C39 41.7833 38.5781 40.027 38.0156 38.175ZM30.375 33.6246C28.1875 33.4969 26.0312 33.2095 23.9062 32.7625C23.5625 31.1659 22.6719 30.0642 21.2344 29.4575C21.1094 27.5735 21.0469 25.929 21.0469 24.5239C21.0469 22.4164 21.1406 20.2291 21.3281 17.9619C21.3906 17.9619 21.4688 17.9299 21.5625 17.8661C21.6562 17.8022 21.7188 17.7703 21.75 17.7703C22.9688 18.9837 24.0312 20.1013 24.9375 21.1232C27.6562 24.1887 29.9688 27.6693 31.875 31.565C31.1875 32.1079 30.6875 32.7944 30.375 33.6246ZM34.5469 39.8514C34.6094 39.8514 34.7812 39.8354 35.0625 39.8035C35.5938 41.7514 35.9844 43.6833 36.2344 45.5992C35.3281 46.1421 34.2344 46.6849 32.9531 47.2278C33.1719 44.737 33.5469 42.2623 34.0781 39.8035C34.3281 39.8354 34.4844 39.8514 34.5469 39.8514ZM34.3125 28.4037C34.2812 28.4676 34.2422 28.5634 34.1953 28.6911C34.1484 28.8188 34.1094 28.9146 34.0781 28.9785C32.1094 25.3382 29.7969 22.0332 27.1406 19.0635C26.1719 17.9459 25.0156 16.7325 23.6719 15.4233C23.7031 15.4233 23.7266 15.3993 23.7422 15.3514L23.7656 15.2796C26.3906 15.8224 28.9062 16.493 31.3125 17.2913C32.7812 17.7703 34.3906 18.4089 36.1406 19.2072C36.0781 19.5266 36.0469 19.766 36.0469 19.9257C36.0469 20.8837 36.3281 21.7618 36.8906 22.5601C35.8594 24.5718 35 26.5197 34.3125 28.4037ZM36.5156 31.1818C36.8906 30.0642 37.0781 29.4894 37.0781 29.4575C37.7031 27.8609 38.4844 26.1525 39.4219 24.3324C39.8281 24.4601 40.2188 24.5239 40.5938 24.5239C41.6562 24.5239 42.6094 24.1567 43.4531 23.4223C44.9844 24.508 46.4844 25.7214 47.9531 27.0626C47.7656 28.8827 47.3906 30.639 46.8281 32.3314C44.2656 32.8742 41.5625 33.2574 38.7188 33.4809C38.3125 32.4591 37.5781 31.6927 36.5156 31.1818ZM45.0938 19.8778C45.0938 18.824 44.75 17.8661 44.0625 17.0039C44.7188 16.1417 45.375 15.3594 46.0312 14.6569C47.1562 17.2753 47.8125 19.9736 48 22.7517C46.9688 21.9534 45.9688 21.2349 45 20.5963C45.0625 20.3089 45.0938 20.0694 45.0938 19.8778Z" fill="#9747FF"/>
</svg>
