<svg width="14" height="17" viewBox="0 0 14 17" fill="none" xmlns="http://www.w3.org/2000/svg">
<path d="M13.3558 8.31131C12.5058 7.41408 11.3725 6.80019 10.1919 6.56408C9.67249 6.42242 9.15304 6.32797 8.6336 6.28075C9.95582 4.72242 9.71971 2.36131 8.16137 1.03908C6.60304 -0.283139 4.24193 -0.047028 2.91971 1.51131C1.59749 3.06964 1.8336 5.43075 3.39193 6.75297C3.67526 6.98908 3.9586 7.17797 4.24193 7.27242V8.31131L3.48637 7.60297C2.82526 6.94186 1.73915 6.94186 1.03082 7.60297C0.369708 8.26408 0.322485 9.30297 0.983596 9.96408L3.15582 12.5141C3.25026 13.1752 3.48637 13.7891 3.81693 14.3558C4.05304 14.7808 4.3836 15.2058 4.71415 15.5363V16.4335C4.71415 16.7169 4.90304 16.9058 5.18637 16.9058H11.6086C11.8447 16.9058 12.0808 16.6696 12.0808 16.4335V15.2058C12.978 14.1196 13.4503 12.7502 13.4503 11.3808V8.64186C13.4975 8.45297 13.4503 8.35853 13.3558 8.31131ZM2.96693 3.87242C2.96693 2.31408 4.24193 1.08631 5.80026 1.13353C7.3586 1.13353 8.58637 2.40853 8.53915 3.96686C8.53915 4.81686 8.16137 5.57242 7.50026 6.09186V3.73075C7.47615 3.32151 7.29641 2.93699 6.99788 2.65603C6.69935 2.37506 6.30466 2.21893 5.89471 2.21964C5.04471 2.17242 4.28915 2.88075 4.28915 3.73075V6.18631C3.48637 5.71408 3.01415 4.81686 2.96693 3.87242ZM12.553 11.3335C12.6003 12.5613 12.1753 13.7419 11.3725 14.6863C11.278 14.7808 11.1836 14.8752 11.1836 15.0169V16.0085H5.70582V15.3474C5.70582 15.2058 5.61137 15.0641 5.51693 14.9696C5.18637 14.6863 4.90304 14.3558 4.66693 13.9308C4.3836 13.4585 4.19471 12.8919 4.10026 12.3252C4.10026 12.2308 4.05304 12.1363 4.00582 12.0419L1.73915 9.35019C1.59749 9.20853 1.50304 9.01964 1.50304 8.78353C1.50304 8.59464 1.59749 8.35853 1.73915 8.21686C2.06971 7.93353 2.54193 7.93353 2.87249 8.21686L4.24193 9.58631V11.003L5.13915 10.5308V3.73075C5.18637 3.40019 5.46971 3.11686 5.84749 3.16408C6.17804 3.16408 6.5086 3.40019 6.5086 3.73075V9.16131L7.45304 9.35019V7.17797C7.50026 7.13075 7.54749 7.13075 7.59471 7.08353C7.92526 7.08353 8.25582 7.13075 8.58637 7.17797V9.58631L9.34193 9.72797V7.27242L9.9086 7.41408C10.1447 7.46131 10.3808 7.55575 10.6169 7.6502V10.0113L11.3725 10.153V7.98075C11.7975 8.16964 12.1753 8.45297 12.5058 8.78353L12.553 11.3335Z" fill="#7B2DBF"/>
</svg>
