<svg width="46" height="54" viewBox="0 0 46 54" fill="none" xmlns="http://www.w3.org/2000/svg">
<path d="M15.8672 35.0587C15.796 35.4919 15.9208 35.9326 16.2139 36.2838C16.5071 36.635 16.9447 36.868 17.4304 36.9314C17.9162 36.9949 18.4103 36.8837 18.8041 36.6222C19.1978 36.3607 19.459 35.9704 19.5302 35.5372L19.8484 33.6001H24.4364L24.1922 35.0587C24.121 35.4919 24.2458 35.9326 24.5389 36.2838C24.8321 36.635 25.2697 36.868 25.7554 36.9314C26.2412 36.9949 26.7353 36.8837 27.1291 36.6222C27.5228 36.3607 27.784 35.9704 27.8552 35.5372L28.1734 33.6001H30.4008C30.8914 33.6001 31.362 33.4263 31.7089 33.1168C32.0559 32.8074 32.2508 32.3877 32.2508 31.9501C32.2508 31.5125 32.0559 31.0928 31.7089 30.7834C31.362 30.4739 30.8914 30.3001 30.4008 30.3001H28.7136L29.5276 25.3501H32.2508C32.7414 25.3501 33.212 25.1763 33.5589 24.8668C33.9059 24.5574 34.1008 24.1377 34.1008 23.7001C34.1008 23.2625 33.9059 22.8428 33.5589 22.5334C33.212 22.2239 32.7414 22.0501 32.2508 22.0501H30.0678L30.5747 18.9811C30.6099 18.7666 30.5974 18.548 30.5379 18.3378C30.4784 18.1276 30.3731 17.9299 30.2279 17.756C29.9348 17.4048 29.4972 17.1718 29.0114 17.1083C28.7709 17.0769 28.5258 17.0881 28.2901 17.1411C28.0544 17.1942 27.8328 17.2881 27.6378 17.4176C27.244 17.6791 26.9828 18.0694 26.9117 18.5026L26.3308 22.0501H21.7428L22.2497 18.9811C22.2849 18.7666 22.2724 18.548 22.2129 18.3378C22.1534 18.1276 22.0481 17.9299 21.9029 17.756C21.6098 17.4048 21.1722 17.1718 20.6864 17.1083C20.4459 17.0769 20.2008 17.0881 19.9651 17.1411C19.7294 17.1942 19.5078 17.2881 19.3128 17.4176C18.919 17.6791 18.6578 18.0694 18.5867 18.5026L18.0058 22.0501H15.6008C15.1101 22.0501 14.6396 22.2239 14.2926 22.5334C13.9457 22.8428 13.7508 23.2625 13.7508 23.7001C13.7508 24.1377 13.9457 24.5574 14.2926 24.8668C14.6396 25.1763 15.1101 25.3501 15.6008 25.3501H17.4619L16.6479 30.3001H13.7508C13.2601 30.3001 12.7896 30.4739 12.4426 30.7834C12.0957 31.0928 11.9008 31.5125 11.9008 31.9501C11.9008 32.3877 12.0957 32.8074 12.4426 33.1168C12.7896 33.4263 13.2601 33.6001 13.7508 33.6001H16.1077L15.8672 35.0587ZM25.7869 25.3501L24.9729 30.3001H20.3923L21.2063 25.3501H25.7943H25.7869ZM8.20078 0.600098C6.23818 0.600098 4.35596 1.29545 2.96819 2.53319C1.58042 3.77093 0.800781 5.44967 0.800781 7.2001V46.8001C0.800781 48.5505 1.58042 50.2293 2.96819 51.467C4.35596 52.7047 6.23818 53.4001 8.20078 53.4001H37.8008C39.7634 53.4001 41.6456 52.7047 43.0334 51.467C44.4211 50.2293 45.2008 48.5505 45.2008 46.8001V7.2001C45.2008 5.44967 44.4211 3.77093 43.0334 2.53319C41.6456 1.29545 39.7634 0.600098 37.8008 0.600098H8.20078ZM8.20078 3.9001H37.8008C38.7821 3.9001 39.7232 4.24777 40.4171 4.86664C41.111 5.48551 41.5008 6.32488 41.5008 7.2001V46.8001C41.5008 47.6753 41.111 48.5147 40.4171 49.1335C39.7232 49.7524 38.7821 50.1001 37.8008 50.1001H8.20078C7.21948 50.1001 6.27837 49.7524 5.58449 49.1335C4.8906 48.5147 4.50078 47.6753 4.50078 46.8001V7.2001C4.50078 6.32488 4.8906 5.48551 5.58449 4.86664C6.27837 4.24777 7.21948 3.9001 8.20078 3.9001Z" fill="#9747FF"/>
</svg>
