<svg width="20" height="18" viewBox="0 0 20 18" fill="none" xmlns="http://www.w3.org/2000/svg">
<path d="M0.999787 9.90008H1.99979V16.2C1.99979 17.1927 2.89679 18 3.99979 18H15.9998C17.1028 18 17.9998 17.1927 17.9998 16.2V9.90008H18.9998C19.1975 9.90004 19.3908 9.84724 19.5552 9.74835C19.7197 9.64945 19.8478 9.5089 19.9235 9.34448C19.9991 9.18005 20.0189 8.99912 19.9804 8.82456C19.9418 8.65001 19.8466 8.48966 19.7068 8.3638L10.7068 0.263878C10.614 0.180228 10.5038 0.113865 10.3825 0.0685854C10.2612 0.0233062 10.1311 0 9.99979 0C9.86845 0 9.73841 0.0233062 9.61709 0.0685854C9.49578 0.113865 9.38558 0.180228 9.29279 0.263878L0.292787 8.3638C0.152977 8.48966 0.057771 8.65001 0.0192035 8.82456C-0.0193641 8.99912 0.000438951 9.18005 0.076109 9.34448C0.151779 9.5089 0.279918 9.64945 0.444328 9.74835C0.608738 9.84724 0.802037 9.90004 0.999787 9.90008ZM9.99979 2.17276L15.9998 7.5727V11.7001L16.0008 16.2H3.99979V7.57361L9.99979 2.17276Z" fill="#C67EFF"/>
<path d="M10 13.4997C12.206 13.4997 14 11.8851 14 9.89977C14 7.91439 12.206 6.2998 10 6.2998C7.794 6.2998 6 7.91439 6 9.89977C6 11.8851 7.794 13.4997 10 13.4997ZM10 8.09979C11.103 8.09979 12 8.90708 12 9.89977C12 10.8925 11.103 11.6998 10 11.6998C8.897 11.6998 8 10.8925 8 9.89977C8 8.90708 8.897 8.09979 10 8.09979Z" fill="#C67EFF"/>
</svg>
