<svg width="32" height="31" viewBox="0 0 32 31" fill="none" xmlns="http://www.w3.org/2000/svg">
<path d="M1.60352 6.8C1.60352 5.26174 2.22293 3.78649 3.32548 2.69878C4.42804 1.61107 5.92343 1 7.48269 1H25.1202C26.6795 1 28.1748 1.61107 29.2774 2.69878C30.38 3.78649 30.9994 5.26174 30.9994 6.8V24.2C30.9994 25.7383 30.38 27.2135 29.2774 28.3012C28.1748 29.3889 26.6795 30 25.1202 30H7.48269C5.92343 30 4.42804 29.3889 3.32548 28.3012C2.22293 27.2135 1.60352 25.7383 1.60352 24.2V6.8Z" stroke="#A1A1A1" stroke-width="2" stroke-linecap="round" stroke-linejoin="round"/>
<path d="M11.1579 14.05C13.1872 14.05 14.8324 12.4271 14.8324 10.425C14.8324 8.42302 13.1872 6.80005 11.1579 6.80005C9.12852 6.80005 7.4834 8.42302 7.4834 10.425C7.4834 12.4271 9.12852 14.05 11.1579 14.05Z" stroke="#A1A1A1" stroke-width="2" stroke-linecap="round" stroke-linejoin="round"/>
<path d="M20.0148 16.4002L7.4834 29.9997H25.3164C26.8238 29.9997 28.2695 29.409 29.3354 28.3574C30.4013 27.3059 31.0001 25.8797 31.0001 24.3926V24.1997C31.0001 23.524 30.7429 23.2645 30.2799 22.7642L24.3566 16.3915C24.0806 16.0944 23.7448 15.8574 23.3706 15.6955C22.9965 15.5336 22.5923 15.4504 22.1838 15.4512C21.7753 15.452 21.3714 15.5368 20.998 15.7002C20.6245 15.8636 20.2897 16.102 20.0148 16.4002V16.4002Z" stroke="#A1A1A1" stroke-width="2" stroke-linecap="round" stroke-linejoin="round"/>
</svg>
