<svg width="25" height="25" viewBox="0 0 25 25" fill="none" xmlns="http://www.w3.org/2000/svg">
<g clip-path="url(#clip0_1807_2689)">
<path fill-rule="evenodd" clip-rule="evenodd" d="M2.34375 3.125H22.6562L23.4375 3.90625V12.5047C22.9536 12.1416 22.4293 11.836 21.875 11.5938V4.6875H3.125V18.75H10.9375C10.9375 20.4404 11.4858 22.0852 12.5 23.4375H6.25V21.875H10.9375V20.3125H2.34375L1.5625 19.5312V3.90625L2.34375 3.125Z" fill="black"/>
<path fill-rule="evenodd" clip-rule="evenodd" d="M15.2782 13.553C15.9606 13.092 16.7273 12.7703 17.5344 12.6065C18.3415 12.4428 19.173 12.4401 19.9811 12.5987C20.7892 12.7573 21.558 13.074 22.2433 13.5307C22.9286 13.9874 23.5168 14.575 23.9743 15.2598C24.4318 15.9445 24.7494 16.713 24.909 17.5209C25.0685 18.3288 25.0668 19.1603 24.904 19.9675C24.7411 20.7748 24.4204 21.5419 23.9601 22.2248C23.4998 22.9077 22.9091 23.4929 22.222 23.9468C20.8436 24.8572 19.1608 25.1849 17.5415 24.8583C15.9222 24.5316 14.4981 23.5772 13.5804 22.2036C12.6628 20.83 12.3262 19.149 12.6444 17.528C12.9625 15.907 13.9095 14.4779 15.2782 13.553ZM18.6064 21.3499L22.3361 16.378L21.0861 15.4405L17.8407 19.7671L15.8079 18.1405L14.8314 19.3593L17.4939 21.4905L18.6079 21.3499H18.6064Z" fill="black"/>
</g>
<defs>
<clipPath id="clip0_1807_2689">
<rect width="25" height="25" fill="white"/>
</clipPath>
</defs>
</svg>
