<svg width="61" height="47" viewBox="0 0 61 47" fill="none" xmlns="http://www.w3.org/2000/svg">
<path d="M53.4811 0H7.44929C3.34021 0 0 3.32981 0 7.4261V38.7891C0 42.8854 3.34021 46.2152 7.44929 46.2152H53.4685C57.5776 46.2152 60.9178 42.8854 60.9178 38.7891V7.43866C60.9304 3.34237 57.5902 0 53.4811 0ZM57.5272 38.7891C57.5272 41.0132 55.7121 42.8226 53.4811 42.8226H7.44929C5.21828 42.8226 3.40323 41.0132 3.40323 38.7891V7.43866C3.40323 5.2146 5.21828 3.4052 7.44929 3.4052H53.4685C55.6995 3.4052 57.5146 5.2146 57.5146 7.43866V38.7891H57.5272Z" fill="#7B2DBF"/>
<path d="M38.4168 22.7193L53.3154 9.40011C54.0086 8.77184 54.0716 7.70379 53.4414 7.00013C52.8112 6.30904 51.7398 6.24621 51.0339 6.87448L30.4885 25.2575L26.4802 21.689C26.4676 21.6764 26.455 21.6639 26.455 21.6513C26.3668 21.5633 26.2786 21.4879 26.1777 21.4125L9.86742 6.86192C9.16156 6.23365 8.09018 6.29648 7.45995 7.00013C6.82972 7.70379 6.89274 8.77184 7.5986 9.40011L22.6737 22.8324L7.66162 36.8427C6.98097 37.4836 6.94316 38.5516 7.58599 39.2427C7.92632 39.5945 8.38008 39.783 8.83385 39.783C9.2498 39.783 9.66575 39.6322 9.99347 39.3307L25.2324 25.1193L29.3667 28.8009C29.6944 29.09 30.0977 29.2282 30.5011 29.2282C30.9044 29.2282 31.3204 29.0774 31.6355 28.7884L35.8832 24.9937L51.0339 39.3432C51.3616 39.6574 51.7902 39.8082 52.2062 39.8082C52.6599 39.8082 53.1011 39.6322 53.4414 39.2804C54.0842 38.6019 54.059 37.5213 53.3784 36.8804L38.4168 22.7193Z" fill="#7B2DBF"/>
</svg>
