<svg width="78" height="75" viewBox="0 0 78 75" fill="none" xmlns="http://www.w3.org/2000/svg">
<path d="M39 70.3125L18.4373 46.9945C18.1516 46.6444 17.8688 46.292 17.589 45.9375C14.0765 41.4885 12.179 36.0544 12.1875 30.4687C12.1875 23.6311 15.0124 17.0736 20.0407 12.2387C25.069 7.40373 31.8889 4.6875 39 4.6875C46.1111 4.6875 52.931 7.40373 57.9593 12.2387C62.9877 17.0736 65.8125 23.6311 65.8125 30.4687C65.821 36.0519 63.9244 41.4835 60.4135 45.9305L60.411 45.9375C60.411 45.9375 59.6798 46.8609 59.5701 46.9852L39 70.3125ZM21.4793 43.1133C21.4842 43.1133 22.0497 43.8352 22.1788 43.9898L39 63.0656L55.8432 43.9641C55.9504 43.8352 56.5208 43.1086 56.5232 43.1062C59.3925 39.4714 60.9432 35.0321 60.9375 30.4687C60.9375 24.8743 58.6263 19.5091 54.5122 15.5532C50.3981 11.5974 44.8182 9.375 39 9.375C33.1818 9.375 27.602 11.5974 23.4879 15.5532C19.3738 19.5091 17.0625 24.8743 17.0625 30.4687C17.0574 35.0349 18.6098 39.4767 21.4817 43.1133H21.4793Z" fill="#9747FF"/>
<path d="M51.1875 42.1875H46.3125V23.4375H31.6875V42.1875H26.8125V23.4375C26.8138 22.1947 27.3278 21.0031 28.2418 20.1243C29.1557 19.2455 30.395 18.7512 31.6875 18.75H46.3125C47.605 18.7512 48.8443 19.2455 49.7582 20.1243C50.6722 21.0031 51.1862 22.1947 51.1875 23.4375V42.1875Z" fill="#9747FF"/>
<path d="M36.5625 37.5H41.4375V42.1875H36.5625V37.5Z" fill="#9747FF"/>
<path d="M36.5625 28.125H41.4375V32.8125H36.5625V28.125Z" fill="#9747FF"/>
</svg>
