<svg width="58" height="58" viewBox="0 0 58 58" fill="none" xmlns="http://www.w3.org/2000/svg">
<path d="M48.1002 34.62C46.853 33.3254 45.3487 32.6333 43.7544 32.6333C42.173 32.6333 40.6558 33.3126 39.3573 34.6071L35.2944 38.6445C34.9601 38.4651 34.6258 38.2985 34.3044 38.1318C33.8415 37.9011 33.4044 37.6832 33.0315 37.4525C29.2258 35.0429 25.7672 31.9027 22.4501 27.8397C20.8429 25.8146 19.7629 24.1099 18.9787 22.3796C20.0329 21.4184 21.0101 20.4186 21.9615 19.4573C22.3215 19.0985 22.6815 18.7268 23.0415 18.3679C25.7415 15.6763 25.7415 12.19 23.0415 9.49846L19.5315 5.99939C19.1329 5.60206 18.7215 5.19191 18.3358 4.78176C17.5644 3.98711 16.7544 3.16681 15.9187 2.39778C14.6715 1.16734 13.1801 0.513672 11.6115 0.513672C10.0429 0.513672 8.52578 1.16734 7.24006 2.39778C7.22721 2.4106 7.22721 2.4106 7.21435 2.42342L2.84291 6.81968C1.19719 8.46027 0.25862 10.4597 0.0529054 12.7796C-0.255667 16.5222 0.85005 20.0085 1.69862 22.2899C3.78148 27.891 6.89292 33.0819 11.5344 38.6445C17.1658 45.3479 23.9415 50.6413 31.6815 54.3711C34.6387 55.7682 38.5858 57.4216 42.9959 57.7035C43.2659 57.7164 43.5487 57.7292 43.8059 57.7292C46.7759 57.7292 49.2702 56.6654 51.2244 54.5505C51.2373 54.5249 51.263 54.5121 51.2759 54.4865C51.9444 53.679 52.7159 52.9484 53.5259 52.1666C54.0787 51.6411 54.6445 51.0899 55.1973 50.5132C56.4702 49.193 57.1387 47.6549 57.1387 46.0784C57.1387 44.4891 56.4573 42.9639 55.1587 41.6822L48.1002 34.62ZM52.703 48.1164C52.6902 48.1164 52.6902 48.1292 52.703 48.1164C52.2016 48.6547 51.6873 49.1417 51.1344 49.68C50.2987 50.4747 49.4502 51.3078 48.653 52.2435C47.3544 53.6277 45.8244 54.2814 43.8187 54.2814C43.6259 54.2814 43.4201 54.2814 43.2273 54.2686C39.4087 54.025 35.8601 52.5383 33.1987 51.2694C25.9215 47.7575 19.5315 42.7716 14.2215 36.4528C9.83721 31.185 6.90578 26.3145 4.96434 21.0851C3.76863 17.8937 3.33148 15.4071 3.52434 13.0616C3.65291 11.562 4.23149 10.3188 5.29863 9.25493L9.68293 4.8843C10.3129 4.29471 10.9815 3.97429 11.6372 3.97429C12.4472 3.97429 13.1029 4.46134 13.5144 4.87148C13.5272 4.8843 13.5401 4.89712 13.5529 4.90994C14.3372 5.64051 15.0829 6.39672 15.8672 7.2042C16.2658 7.61434 16.6772 8.02449 17.0887 8.44745L20.5987 11.9465C21.9615 13.3051 21.9615 14.5612 20.5987 15.9198C20.2258 16.2915 19.8658 16.6632 19.4929 17.0221C18.4129 18.1244 17.3844 19.1497 16.2658 20.1495C16.2401 20.1751 16.2144 20.1879 16.2015 20.2135C15.0958 21.3158 15.3015 22.3925 15.5329 23.123C15.5458 23.1615 15.5587 23.1999 15.5715 23.2384C16.4844 25.4429 17.7701 27.5193 19.7244 29.993L19.7372 30.0058C23.2858 34.3636 27.0273 37.7602 31.1544 40.362C31.6815 40.6953 32.2215 40.9644 32.7358 41.2208C33.1987 41.4515 33.6358 41.6694 34.0087 41.9001C34.0601 41.9257 34.1115 41.9642 34.163 41.9898C34.6001 42.2077 35.0116 42.3102 35.4358 42.3102C36.503 42.3102 37.1716 41.6437 37.3901 41.4258L41.7873 37.0424C42.2244 36.6066 42.9187 36.0811 43.7287 36.0811C44.5259 36.0811 45.1816 36.581 45.5801 37.0168C45.593 37.0296 45.593 37.0296 45.6059 37.0424L52.6902 44.1046C54.0145 45.412 54.0145 46.7578 52.703 48.1164Z" fill="#7B2DBF"/>
</svg>
