<svg width="64" height="57" viewBox="0 0 64 57" fill="none" xmlns="http://www.w3.org/2000/svg">
<path d="M41.9004 21.0561C42.8807 21.0563 43.8268 21.4166 44.5591 22.0684C45.2913 22.7203 45.7586 23.6183 45.8724 24.5921L45.9004 25.0561V42.5281C45.9265 46.1755 44.5216 49.6878 41.9872 52.311C39.4528 54.9343 35.991 56.4593 32.3448 56.5588C28.6986 56.6583 25.1588 55.3243 22.4851 52.8431C19.8115 50.362 18.2171 46.9315 18.0444 43.2881L18.0244 42.5281V25.0561C18.0245 24.0763 18.3842 23.1307 19.0352 22.3986C19.6863 21.6664 20.5834 21.1987 21.5564 21.0841L22.0244 21.0561H41.9004ZM15.0964 21.0561C14.5145 22.0604 14.1595 23.1799 14.0564 24.3361L14.0244 25.0561V42.5281L14.0444 43.3681C14.1644 45.9401 14.8244 48.3681 15.9124 50.5481C14.228 51.2555 12.3986 51.5486 10.5776 51.4029C8.75656 51.2572 6.99703 50.6769 5.44662 49.7106C3.8962 48.7444 2.60011 47.4205 1.66709 45.8499C0.734061 44.2792 0.191307 42.5078 0.0843592 40.6841L0.0683594 40.0121V25.0561C0.0684886 24.0763 0.428184 23.1307 1.07922 22.3986C1.73026 21.6664 2.62736 21.1987 3.60036 21.0841L4.06836 21.0561H15.0964ZM48.8284 21.0561H59.9644C60.9447 21.0563 61.8908 21.4166 62.6231 22.0684C63.3553 22.7203 63.8226 23.6183 63.9364 24.5921L63.9644 25.0561V40.0161C63.9655 41.9081 63.4965 43.7707 62.5996 45.4366C61.7027 47.1025 60.406 48.5194 58.8259 49.5601C57.2458 50.6008 55.432 51.2326 53.5473 51.3988C51.6626 51.5649 49.7661 51.2602 48.0284 50.5121C49.1031 48.3535 49.729 45.9994 49.8684 43.5921L49.9004 42.5281V25.0561L49.8764 24.4601C49.7888 23.2608 49.4305 22.0969 48.8284 21.0561ZM31.9524 0.956055C34.3154 0.956055 36.5817 1.89478 38.2527 3.56573C39.9236 5.23668 40.8624 7.50298 40.8624 9.86605C40.8624 12.2291 39.9236 14.4954 38.2527 16.1664C36.5817 17.8373 34.3154 18.7761 31.9524 18.7761C29.5893 18.7761 27.323 17.8373 25.652 16.1664C23.9811 14.4954 23.0424 12.2291 23.0424 9.86605C23.0424 7.50298 23.9811 5.23668 25.652 3.56573C27.323 1.89478 29.5893 0.956055 31.9524 0.956055ZM51.9044 3.46806C53.9343 3.46806 55.8812 4.27446 57.3166 5.70986C58.752 7.14526 59.5584 9.09209 59.5584 11.1221C59.5584 13.152 58.752 15.0988 57.3166 16.5343C55.8812 17.9697 53.9343 18.7761 51.9044 18.7761C49.8744 18.7761 47.9276 17.9697 46.4922 16.5343C45.0568 15.0988 44.2504 13.152 44.2504 11.1221C44.2504 9.09209 45.0568 7.14526 46.4922 5.70986C47.9276 4.27446 49.8744 3.46806 51.9044 3.46806ZM12.0644 3.46806C14.0943 3.46806 16.0412 4.27446 17.4766 5.70986C18.912 7.14526 19.7184 9.09209 19.7184 11.1221C19.7184 13.152 18.912 15.0988 17.4766 16.5343C16.0412 17.9697 14.0943 18.7761 12.0644 18.7761C10.0344 18.7761 8.08757 17.9697 6.65217 16.5343C5.21676 15.0988 4.41036 13.152 4.41036 11.1221C4.41036 9.09209 5.21676 7.14526 6.65217 5.70986C8.08757 4.27446 10.0344 3.46806 12.0644 3.46806Z" fill="#9C4EDD"/>
</svg>
