<svg width="21" height="20" viewBox="0 0 21 20" fill="none" xmlns="http://www.w3.org/2000/svg">
<path d="M18.0166 12.0581L16.3177 10.3662V8.125C16.3158 6.57615 15.7372 5.08303 14.6939 3.93436C13.6505 2.7857 12.2166 2.06308 10.6693 1.90625V0.625H9.41406V1.90625C7.86675 2.06308 6.43279 2.7857 5.38947 3.93436C4.34614 5.08303 3.76757 6.57615 3.76563 8.125V10.3662L2.0667 12.0581C1.94899 12.1753 1.88285 12.3343 1.88281 12.5V14.375C1.88281 14.5408 1.94893 14.6997 2.06663 14.8169C2.18433 14.9342 2.34397 15 2.51042 15H6.90365V15.4856C6.88999 16.2785 7.17063 17.0485 7.69178 17.6482C8.21293 18.2478 8.93793 18.6348 9.72786 18.735C10.1642 18.7781 10.6047 18.7298 11.0211 18.5931C11.4375 18.4565 11.8206 18.2346 12.1457 17.9416C12.4708 17.6487 12.7308 17.2913 12.9089 16.8923C13.087 16.4933 13.1792 16.0616 13.1797 15.625V15H17.5729C17.7394 15 17.899 14.9342 18.0167 14.8169C18.1344 14.6997 18.2005 14.5408 18.2005 14.375V12.5C18.2005 12.3343 18.1343 12.1753 18.0166 12.0581ZM11.9245 15.625C11.9245 16.1223 11.7261 16.5992 11.373 16.9508C11.0199 17.3025 10.541 17.5 10.0417 17.5C9.54231 17.5 9.06341 17.3025 8.71032 16.9508C8.35722 16.5992 8.15885 16.1223 8.15885 15.625V15H11.9245V15.625ZM16.9453 13.75H3.13802V12.7587L4.83695 11.0669C4.95465 10.9497 5.0208 10.7907 5.02083 10.625V8.125C5.02083 6.79892 5.54981 5.52715 6.4914 4.58947C7.43299 3.65178 8.71006 3.125 10.0417 3.125C11.3733 3.125 12.6503 3.65178 13.5919 4.58947C14.5335 5.52715 15.0625 6.79892 15.0625 8.125V10.625C15.0625 10.7907 15.1287 10.9497 15.2464 11.0669L16.9453 12.7587V13.75Z" fill="#9C4EDB"/>
</svg>
