<svg width="32" height="32" viewBox="0 0 32 32" fill="none" xmlns="http://www.w3.org/2000/svg">
<path d="M17.3399 8.3212H14.1996V14.4344H7.91907V17.491H14.1996V23.6042H17.3399V17.491H23.6205V14.4344H17.3399V8.3212ZM15.7698 0.679688C7.1026 0.679688 0.0683594 7.52648 0.0683594 15.9627C0.0683594 24.3989 7.1026 31.2457 15.7698 31.2457C24.437 31.2457 31.4712 24.3989 31.4712 15.9627C31.4712 7.52648 24.437 0.679688 15.7698 0.679688ZM15.7698 28.1891C8.84546 28.1891 3.20865 22.7025 3.20865 15.9627C3.20865 9.2229 8.84546 3.73629 15.7698 3.73629C22.6941 3.73629 28.3309 9.2229 28.3309 15.9627C28.3309 22.7025 22.6941 28.1891 15.7698 28.1891Z" fill="#989898"/>
</svg>
