<svg width="25" height="25" viewBox="0 0 25 25" fill="none" xmlns="http://www.w3.org/2000/svg">
<path d="M7.60933 23.0568L20 10.6661L14.1147 4.78076L1.724 17.1714C1.55342 17.3422 1.43225 17.556 1.37333 17.7901L0 24.7808L6.98933 23.4074C7.224 23.3488 7.43867 23.2274 7.60933 23.0568ZM24 6.6661C24.4999 6.16602 24.7808 5.48787 24.7808 4.78076C24.7808 4.07366 24.4999 3.3955 24 2.89543L21.8853 0.780764C21.3853 0.280841 20.7071 0 20 0C19.2929 0 18.6147 0.280841 18.1147 0.780764L16 2.89543L21.8853 8.78076L24 6.6661Z" fill="#9C4EDD"/>
</svg>
