<svg width="66" height="42" viewBox="0 0 66 42" fill="none" xmlns="http://www.w3.org/2000/svg">
<path d="M33.0007 38.5C49.1094 38.5 62.1673 21 62.1673 21C62.1673 21 49.1094 3.5 33.0007 3.5C16.8919 3.5 3.83398 21 3.83398 21C3.83398 21 16.8919 38.5 33.0007 38.5Z" stroke="#9C4EDD" stroke-width="5.83333" stroke-linejoin="round"/>
<path d="M33.0007 28.2916C34.9345 28.2916 36.7892 27.5234 38.1566 26.156C39.5241 24.7885 40.2923 22.9339 40.2923 21C40.2923 19.0661 39.5241 17.2114 38.1566 15.844C36.7892 14.4765 34.9345 13.7083 33.0007 13.7083C31.0668 13.7083 29.2121 14.4765 27.8447 15.844C26.4772 17.2114 25.709 19.0661 25.709 21C25.709 22.9339 26.4772 24.7885 27.8447 26.156C29.2121 27.5234 31.0668 28.2916 33.0007 28.2916Z" stroke="#9C4EDD" stroke-width="5.83333" stroke-linejoin="round"/>
</svg>
