<svg width="26" height="26" viewBox="0 0 26 26" fill="none" xmlns="http://www.w3.org/2000/svg">
<g clip-path="url(#clip0_2220_5599)">
<path d="M20.6042 16.1543C20.0859 15.6168 19.4607 15.3295 18.7981 15.3295C18.1409 15.3295 17.5104 15.6115 16.9707 16.1489L15.2822 17.8252C15.1433 17.7507 15.0044 17.6815 14.8708 17.6123C14.6784 17.5165 14.4968 17.4261 14.3418 17.3303C12.7602 16.3299 11.3229 15.0261 9.94428 13.3393C9.27637 12.4985 8.82753 11.7908 8.50159 11.0724C8.93974 10.6733 9.34583 10.2582 9.74124 9.8591C9.89085 9.7101 10.0405 9.55579 10.1901 9.40679C11.3122 8.2893 11.3122 6.8419 10.1901 5.72441L8.73135 4.27168C8.56571 4.10672 8.39472 3.93644 8.23442 3.76615C7.91383 3.43623 7.5772 3.09566 7.22988 2.77638C6.71158 2.26553 6.09176 1.99414 5.43988 1.99414C4.78799 1.99414 4.15748 2.26553 3.62315 2.77638C3.61781 2.7817 3.61781 2.7817 3.61247 2.78702L1.79574 4.61225C1.1118 5.29338 0.721738 6.12351 0.636245 7.08668C0.508005 8.64051 0.96753 10.0879 1.32019 11.0351C2.1858 13.3606 3.47888 15.5157 5.40782 17.8252C7.74818 20.6082 10.5641 22.806 13.7808 24.3545C15.0097 24.9345 16.6501 25.621 18.4829 25.738C18.5951 25.7433 18.7126 25.7487 18.8195 25.7487C20.0538 25.7487 21.0904 25.307 21.9026 24.429C21.9079 24.4183 21.9186 24.413 21.924 24.4024C22.2018 24.0671 22.5224 23.7638 22.859 23.4392C23.0888 23.221 23.3239 22.9922 23.5537 22.7527C24.0827 22.2046 24.3605 21.5661 24.3605 20.9116C24.3605 20.2517 24.0773 19.6185 23.5376 19.0863L20.6042 16.1543ZM22.5171 21.7577C22.5117 21.7577 22.5117 21.763 22.5171 21.7577C22.3087 21.9811 22.095 22.1834 21.8652 22.4069C21.5179 22.7368 21.1652 23.0827 20.8339 23.4711C20.2943 24.0458 19.6584 24.3172 18.8249 24.3172C18.7447 24.3172 18.6592 24.3172 18.5791 24.3119C16.9921 24.2108 15.5173 23.5935 14.4113 23.0667C11.387 21.6087 8.73135 19.5386 6.52457 16.9152C4.7025 14.7281 3.48423 12.706 2.67739 10.5349C2.18046 9.2099 1.99879 8.17756 2.07894 7.20375C2.13237 6.58115 2.37282 6.06498 2.81631 5.62331L4.63838 3.80872C4.9002 3.56394 5.17805 3.43091 5.45056 3.43091C5.78719 3.43091 6.0597 3.63312 6.23068 3.8034C6.23603 3.80872 6.24137 3.81404 6.24671 3.81937C6.57266 4.12268 6.88257 4.43664 7.20851 4.77189C7.37415 4.94217 7.54514 5.11245 7.71612 5.28806L9.17484 6.74079C9.74123 7.30485 9.74123 7.82635 9.17484 8.39041C9.01989 8.54473 8.87028 8.69905 8.71532 8.84805C8.26648 9.30568 7.83902 9.73139 7.37415 10.1465C7.36346 10.1571 7.35278 10.1624 7.34743 10.1731C6.88791 10.6307 6.9734 11.0777 7.06958 11.381C7.07493 11.397 7.08027 11.4129 7.08561 11.4289C7.46499 12.3442 7.99932 13.2062 8.8115 14.2333L8.81684 14.2386C10.2916 16.0478 11.8465 17.458 13.5617 18.5382C13.7808 18.6766 14.0052 18.7883 14.2189 18.8948C14.4113 18.9905 14.593 19.081 14.7479 19.1768C14.7693 19.1874 14.7907 19.2034 14.812 19.214C14.9937 19.3045 15.1647 19.3471 15.341 19.3471C15.7845 19.3471 16.0624 19.0704 16.1532 18.9799L17.9806 17.16C18.1623 16.9791 18.4508 16.7609 18.7874 16.7609C19.1187 16.7609 19.3912 16.9684 19.5569 17.1494C19.5622 17.1547 19.5622 17.1547 19.5676 17.16L22.5117 20.0921C23.0621 20.6348 23.0621 21.1936 22.5171 21.7577Z" fill="white"/>
<path d="M14.2774 6.53252C15.6773 6.76666 16.949 7.42651 17.9642 8.43756C18.9795 9.44862 19.6367 10.7151 19.8771 12.1093C19.9359 12.4605 20.2405 12.7053 20.5878 12.7053C20.6305 12.7053 20.6679 12.7 20.7107 12.6946C21.1061 12.6308 21.3679 12.2583 21.3038 11.8645C21.0153 10.1776 20.2138 8.63978 18.9902 7.42119C17.7665 6.2026 16.2223 5.40439 14.5285 5.11704C14.1331 5.05318 13.7644 5.31393 13.6949 5.70239C13.6255 6.09085 13.8819 6.46866 14.2774 6.53252Z" fill="white"/>
<path d="M25.8834 11.6571C25.4078 8.87935 24.0933 6.3517 22.0736 4.34023C20.0538 2.32876 17.5157 1.01971 14.7265 0.546108C14.3365 0.476931 13.9678 0.742998 13.8983 1.13146C13.8342 1.52524 14.096 1.89241 14.4914 1.96159C16.9814 2.38198 19.2523 3.55799 21.0584 5.35129C22.8644 7.14991 24.0399 9.41148 24.462 11.8912C24.5208 12.2424 24.8254 12.4872 25.1727 12.4872C25.2154 12.4872 25.2528 12.4819 25.2956 12.4766C25.6857 12.418 25.9528 12.0456 25.8834 11.6571Z" fill="white"/>
</g>
<defs>
<clipPath id="clip0_2220_5599">
<rect width="25.3169" height="25.2129" fill="white" transform="translate(0.595703 0.535156)"/>
</clipPath>
</defs>
</svg>
