<svg width="27" height="26" viewBox="0 0 27 26" fill="none" xmlns="http://www.w3.org/2000/svg">
<g clip-path="url(#clip0_2220_5605)">
<path d="M22.9266 3.54883H3.79607C2.08836 3.54883 0.700195 4.93129 0.700195 6.63197V19.6532C0.700195 21.3538 2.08836 22.7363 3.79607 22.7363H22.9214C24.6291 22.7363 26.0172 21.3538 26.0172 19.6532V6.63719C26.0225 4.9365 24.6343 3.54883 22.9266 3.54883ZM24.6081 19.6532C24.6081 20.5765 23.8538 21.3278 22.9266 21.3278H3.79607C2.86888 21.3278 2.11456 20.5765 2.11456 19.6532V6.63719C2.11456 5.71381 2.86888 4.96259 3.79607 4.96259H22.9214C23.8486 4.96259 24.6029 5.71381 24.6029 6.63719V19.6532H24.6081Z" fill="white"/>
<path d="M16.6671 12.9803L22.8589 7.45045C23.147 7.18961 23.1732 6.74618 22.9113 6.45404C22.6494 6.16711 22.2041 6.14103 21.9107 6.40187L13.3722 14.0341L11.7064 12.5525C11.7012 12.5473 11.6959 12.5421 11.6959 12.5369C11.6592 12.5003 11.6226 12.469 11.5807 12.4377L4.80222 6.39665C4.50887 6.13581 4.06361 6.1619 3.80169 6.45404C3.53977 6.74618 3.56597 7.18961 3.85931 7.45045L10.1244 13.0272L3.88551 18.844C3.60263 19.11 3.58692 19.5535 3.85408 19.8404C3.99551 19.9865 4.18409 20.0647 4.37268 20.0647C4.54554 20.0647 4.71841 20.0021 4.85461 19.8769L11.1878 13.9767L12.906 15.5052C13.0422 15.6252 13.2098 15.6826 13.3774 15.6826C13.5451 15.6826 13.7179 15.62 13.8489 15.5L15.6142 13.9245L21.9107 19.8821C22.0469 20.0126 22.225 20.0752 22.3979 20.0752C22.5865 20.0752 22.7698 20.0021 22.9113 19.856C23.1784 19.5743 23.1679 19.1257 22.8851 18.8596L16.6671 12.9803Z" fill="white"/>
</g>
<defs>
<clipPath id="clip0_2220_5605">
<rect width="25.317" height="25.2129" fill="white" transform="translate(0.700195 0.535156)"/>
</clipPath>
</defs>
</svg>
