<svg width="18" height="19" viewBox="0 0 18 19" fill="none" xmlns="http://www.w3.org/2000/svg">
<path d="M5.875 6.875C6.04076 6.875 6.19973 6.94085 6.31694 7.05806C6.43415 7.17527 6.5 7.33424 6.5 7.5V15C6.5 15.1658 6.43415 15.3247 6.31694 15.4419C6.19973 15.5592 6.04076 15.625 5.875 15.625C5.70924 15.625 5.55027 15.5592 5.43306 15.4419C5.31585 15.3247 5.25 15.1658 5.25 15V7.5C5.25 7.33424 5.31585 7.17527 5.43306 7.05806C5.55027 6.94085 5.70924 6.875 5.875 6.875ZM9 6.875C9.16576 6.875 9.32473 6.94085 9.44194 7.05806C9.55915 7.17527 9.625 7.33424 9.625 7.5V15C9.625 15.1658 9.55915 15.3247 9.44194 15.4419C9.32473 15.5592 9.16576 15.625 9 15.625C8.83424 15.625 8.67527 15.5592 8.55806 15.4419C8.44085 15.3247 8.375 15.1658 8.375 15V7.5C8.375 7.33424 8.44085 7.17527 8.55806 7.05806C8.67527 6.94085 8.83424 6.875 9 6.875ZM12.75 7.5C12.75 7.33424 12.6842 7.17527 12.5669 7.05806C12.4497 6.94085 12.2908 6.875 12.125 6.875C11.9592 6.875 11.8003 6.94085 11.6831 7.05806C11.5658 7.17527 11.5 7.33424 11.5 7.5V15C11.5 15.1658 11.5658 15.3247 11.6831 15.4419C11.8003 15.5592 11.9592 15.625 12.125 15.625C12.2908 15.625 12.4497 15.5592 12.5669 15.4419C12.6842 15.3247 12.75 15.1658 12.75 15V7.5Z" fill="#F24E1E"/>
<path fill-rule="evenodd" clip-rule="evenodd" d="M17.125 3.75C17.125 4.08152 16.9933 4.39946 16.7589 4.63388C16.5245 4.8683 16.2065 5 15.875 5H15.25V16.25C15.25 16.913 14.9866 17.5489 14.5178 18.0178C14.0489 18.4866 13.413 18.75 12.75 18.75H5.25C4.58696 18.75 3.95107 18.4866 3.48223 18.0178C3.01339 17.5489 2.75 16.913 2.75 16.25V5H2.125C1.79348 5 1.47554 4.8683 1.24112 4.63388C1.0067 4.39946 0.875 4.08152 0.875 3.75V2.5C0.875 2.16848 1.0067 1.85054 1.24112 1.61612C1.47554 1.3817 1.79348 1.25 2.125 1.25H6.5C6.5 0.918479 6.6317 0.600537 6.86612 0.366117C7.10054 0.131696 7.41848 0 7.75 0L10.25 0C10.5815 0 10.8995 0.131696 11.1339 0.366117C11.3683 0.600537 11.5 0.918479 11.5 1.25H15.875C16.2065 1.25 16.5245 1.3817 16.7589 1.61612C16.9933 1.85054 17.125 2.16848 17.125 2.5V3.75ZM4.1475 5L4 5.07375V16.25C4 16.5815 4.1317 16.8995 4.36612 17.1339C4.60054 17.3683 4.91848 17.5 5.25 17.5H12.75C13.0815 17.5 13.3995 17.3683 13.6339 17.1339C13.8683 16.8995 14 16.5815 14 16.25V5.07375L13.8525 5H4.1475ZM2.125 3.75V2.5H15.875V3.75H2.125Z" fill="#F24E1E"/>
</svg>
