<svg width="15" height="16" viewBox="0 0 15 16" fill="none" xmlns="http://www.w3.org/2000/svg">
<path d="M14.0078 10.5655L12.5679 9.11761V5.54982C12.587 4.22496 12.1262 2.93791 11.2705 1.92631C10.4147 0.914713 9.22187 0.246891 7.91216 0.0461548C7.15206 -0.0539454 6.37934 0.00920896 5.64558 0.231404C4.91182 0.453599 4.23388 0.829725 3.657 1.33469C3.08011 1.83965 2.61756 2.46183 2.30018 3.15972C1.98281 3.85762 1.81793 4.61517 1.81653 5.38183V9.11761L0.376614 10.5655C0.19575 10.7494 0.073099 10.9825 0.0239954 11.2357C-0.0251083 11.4889 0.00151352 11.751 0.100533 11.9891C0.199552 12.2273 0.366575 12.431 0.580722 12.5747C0.79487 12.7185 1.04664 12.7959 1.30456 12.7974H3.9924V13.0694C4.02976 13.8815 4.38753 14.6457 4.98732 15.1945C5.5871 15.7433 6.37998 16.0319 7.1922 15.9972C8.00443 16.0319 8.79731 15.7433 9.39709 15.1945C9.99687 14.6457 10.3546 13.8815 10.392 13.0694V12.7974H13.0798C13.3378 12.7959 13.5895 12.7185 13.8037 12.5747C14.0178 12.431 14.1849 12.2273 14.2839 11.9891C14.3829 11.751 14.4095 11.4889 14.3604 11.2357C14.3113 10.9825 14.1887 10.7494 14.0078 10.5655ZM8.79211 13.0694C8.74774 13.4541 8.55664 13.807 8.2586 14.0543C7.96056 14.3017 7.57857 14.4246 7.1922 14.3973C6.80584 14.4246 6.42385 14.3017 6.12581 14.0543C5.82777 13.807 5.63666 13.4541 5.5923 13.0694V12.7974H8.79211V13.0694ZM2.00052 11.1975L2.94446 10.2535C3.09418 10.1047 3.21297 9.9277 3.29398 9.73275C3.37498 9.53779 3.4166 9.32872 3.41643 9.11761V5.38183C3.41687 4.84219 3.53273 4.30888 3.75625 3.81769C3.97976 3.32651 4.30576 2.88883 4.71235 2.534C5.11346 2.17057 5.58876 1.89864 6.10534 1.73704C6.62192 1.57543 7.16745 1.52801 7.70417 1.59806C8.6293 1.74827 9.46903 2.22763 10.0687 2.94788C10.6685 3.66813 10.9878 4.58079 10.968 5.51782V9.11761C10.9668 9.32817 11.0071 9.53689 11.0867 9.73182C11.1664 9.92675 11.2837 10.104 11.4319 10.2535L12.3839 11.1975H2.00052Z" fill="#FF0B00"/>
</svg>
