<svg width="30" height="30" viewBox="0 0 30 30" fill="none" xmlns="http://www.w3.org/2000/svg">
<path d="M12.4058 25.6575C15.1583 25.6569 17.8315 24.704 19.9997 22.9506L26.8167 30L29.0094 27.7325L22.1924 20.6831C23.8889 18.4408 24.811 15.6758 24.8116 12.8287C24.8116 5.75529 19.2461 0 12.4058 0C5.56556 0 0 5.75529 0 12.8287C0 19.9022 5.56556 25.6575 12.4058 25.6575ZM12.4058 3.20718C17.5372 3.20718 21.7102 7.52245 21.7102 12.8287C21.7102 18.135 17.5372 22.4503 12.4058 22.4503C7.27446 22.4503 3.10145 18.135 3.10145 12.8287C3.10145 7.52245 7.27446 3.20718 12.4058 3.20718Z" fill="#7C7C89"/>
</svg>
