<svg width="29" height="13" viewBox="0 0 29 13" fill="none" xmlns="http://www.w3.org/2000/svg">
<path d="M8.05256 13C12.4999 13 16.1051 10.0899 16.1051 6.5C16.1051 2.91015 12.4999 0 8.05256 0C3.60525 0 0 2.91015 0 6.5C0 10.0899 3.60525 13 8.05256 13Z" fill="#AAAAAA"/>
<path d="M8.05277 11.8865C11.7386 11.8865 14.7266 9.47465 14.7266 6.49942C14.7266 3.5242 11.7386 1.1123 8.05277 1.1123C4.3669 1.1123 1.37891 3.5242 1.37891 6.49942C1.37891 9.47465 4.3669 11.8865 8.05277 11.8865Z" fill="white"/>
<path d="M1.5625 2.31333L2.9778 1.11182L14.9468 10.3694L13.5315 11.5709L1.5625 2.31333Z" fill="white"/>
<path d="M8.26815 2.6001C5.93905 2.6001 4.43359 3.61215 4.43359 5.17865C4.43359 6.72987 6.16188 7.19202 7.30548 7.49785C7.81965 7.63532 8.45875 7.80595 8.46318 7.97462C8.45995 8.10495 8.07755 8.1251 7.84947 8.1251C7.08949 8.1251 5.92373 7.8716 5.01506 7.5089L4.43359 7.27652V9.81055L4.6798 9.89342C5.62554 10.2139 6.73328 10.3985 7.71932 10.4001C10.204 10.4001 11.6868 9.47645 11.6868 7.9301C11.6868 6.2427 9.91061 5.78412 8.73558 5.48057C8.30602 5.36942 7.65726 5.20172 7.65726 5.06165C7.65726 4.98722 7.65726 4.8751 8.1529 4.8751C8.89837 4.8751 9.93478 5.12372 10.6746 5.4796L11.2839 5.77275V3.10287L11.0272 3.02227C10.1584 2.7496 9.17924 2.6001 8.26815 2.6001ZM8.26815 3.2501C8.99307 3.2501 9.76755 3.3567 10.478 3.55235V4.66742C9.71799 4.39475 8.8472 4.2251 8.1529 4.2251C6.97828 4.2251 6.85134 4.8101 6.85134 5.06165C6.85134 5.67622 7.64719 5.88227 8.48977 6.0997C9.89005 6.4611 10.8809 6.80365 10.8809 7.9301C10.8809 9.57232 8.6699 9.7501 7.72012 9.7501C6.92227 9.7488 6.03213 9.61262 5.23951 9.37375V8.29962C6.04261 8.55865 7.03912 8.7751 7.84947 8.7751C9.08011 8.7751 9.26789 8.27655 9.2691 7.97657V7.97267C9.26587 7.33697 8.43699 7.11565 7.55894 6.88067C6.20097 6.51797 5.23951 6.18355 5.23951 5.17897C5.23951 3.98882 6.40003 3.2501 8.26815 3.2501Z" fill="#5A1E9A"/>
</svg>
