<svg width="40" height="40" viewBox="0 0 40 40" fill="none" xmlns="http://www.w3.org/2000/svg">
<path d="M19.9836 40C31.0202 40 39.9672 31.0457 39.9672 20C39.9672 8.9543 31.0202 0 19.9836 0C8.94696 0 0 8.9543 0 20C0 31.0457 8.94696 40 19.9836 40Z" fill="#AAAAAA"/>
<path d="M19.984 36.5753C29.1311 36.5753 36.5462 29.1541 36.5462 19.9996C36.5462 10.845 29.1311 3.42383 19.984 3.42383C10.837 3.42383 3.42188 10.845 3.42188 19.9996C3.42188 29.1541 10.837 36.5753 19.984 36.5753Z" fill="white"/>
<path d="M20.516 8C14.736 8 11 11.114 11 15.934C11 20.707 15.289 22.129 18.127 23.07C19.403 23.493 20.989 24.018 21 24.537C20.992 24.938 20.043 25 19.477 25C17.591 25 14.698 24.22 12.443 23.104L11 22.389V30.186L11.611 30.441C13.958 31.427 16.707 31.995 19.154 32C25.32 32 29 29.158 29 24.4C29 19.208 24.592 17.797 21.676 16.863C20.61 16.521 19 16.005 19 15.574C19 15.345 19 15 20.23 15C22.08 15 24.652 15.765 26.488 16.86L28 17.762V9.547L27.363 9.299C25.207 8.46 22.777 8 20.516 8ZM20.516 10C22.315 10 24.237 10.328 26 10.93V14.361C24.114 13.522 21.953 13 20.23 13C17.315 13 17 14.8 17 15.574C17 17.465 18.975 18.099 21.066 18.768C24.541 19.88 27 20.934 27 24.4C27 29.453 21.513 30 19.156 30C17.176 29.996 14.967 29.577 13 28.842V25.537C14.993 26.334 17.466 27 19.477 27C22.531 27 22.997 25.466 23 24.543V24.531C22.992 22.575 20.935 21.894 18.756 21.171C15.386 20.055 13 19.026 13 15.935C13 12.273 15.88 10 20.516 10Z" fill="#5A1E9A"/>
</svg>
