<svg width="440" height="112" viewBox="0 0 440 112" fill="none" xmlns="http://www.w3.org/2000/svg">
<path d="M56.6975 112C88.0107 112 113.395 86.9279 113.395 56C113.395 25.0721 88.0107 0 56.6975 0C25.3843 0 0 25.0721 0 56C0 86.9279 25.3843 112 56.6975 112Z" fill="#8D8D8D"/>
<path d="M56.6973 102.408C82.6492 102.408 103.687 81.6288 103.687 55.9961C103.687 30.3634 82.6492 9.58398 56.6973 9.58398C30.7453 9.58398 9.70703 30.3634 9.70703 55.9961C9.70703 81.6288 30.7453 102.408 56.6973 102.408Z" fill="white"/>
<path d="M10.9941 19.9365L20.9592 9.58496L105.232 89.3425L95.2673 99.694L10.9941 19.9365Z" fill="white"/>
<path d="M128.087 49.1308C128.087 41.2399 130.149 34.9611 134.358 30.3793C138.825 25.7975 144.667 23.5066 151.969 23.5066C159.099 23.5066 164.94 25.7975 169.579 30.3793C173.874 35.046 176.022 41.3248 176.022 49.1308C176.022 56.9369 173.874 63.1308 169.579 67.7975C165.198 72.2945 159.356 74.5854 151.969 74.5854C144.581 74.5854 138.653 72.2945 134.358 67.7975C130.149 63.2157 128.087 57.0217 128.087 49.1308ZM138.224 49.1308C138.224 54.5611 139.426 58.7187 141.832 61.5187C144.237 64.4036 147.587 65.9308 151.969 65.9308C156.264 65.9308 159.614 64.4884 162.105 61.5187C164.597 58.549 165.799 54.3914 165.799 49.1308C165.799 43.8702 164.597 39.7127 162.105 36.5733C159.614 33.6884 156.264 32.1611 151.969 32.1611C147.587 32.1611 144.237 33.6036 141.832 36.5733C139.426 39.4581 138.224 43.6157 138.224 49.1308Z" fill="#676666"/>
<path d="M180.312 73.3925V34.7016C180.312 31.3076 181.257 28.7622 183.061 27.0652C184.78 25.4531 187.614 24.6895 191.48 24.6895C192.425 24.6895 193.198 24.7743 193.8 24.8591C194.831 24.8591 195.69 24.944 196.205 25.0288V32.7501H193.628C192.253 32.7501 191.308 32.9198 190.793 33.344C190.278 33.6834 190.106 34.447 190.106 35.6349V38.1804H196.291V40.3016C196.291 41.744 195.775 42.847 194.831 43.7804C193.886 44.7137 192.769 45.1379 191.566 45.1379H190.106V73.4773H180.312V73.3925Z" fill="#676666"/>
<path d="M199.043 73.3925V34.7016C199.043 31.3076 199.988 28.7622 201.792 27.0652C203.51 25.4531 206.345 24.6895 210.211 24.6895C211.156 24.6895 211.929 24.7743 212.53 24.8591C213.561 24.8591 214.42 24.944 214.935 25.0288V32.7501H212.358C210.984 32.7501 210.039 32.9198 209.523 33.344C209.008 33.6834 208.836 34.447 208.836 35.6349V38.1804H215.021V40.3016C215.021 41.744 214.506 42.847 213.561 43.7804C212.616 44.7137 211.499 45.1379 210.297 45.1379H208.75V73.4773H199.043V73.3925Z" fill="#676666"/>
<path d="M244.145 61.772H251.275C250.244 65.7598 248.268 68.7295 245.262 70.7659C242.341 72.972 238.561 73.9901 234.094 73.9901C228.682 73.9901 224.387 72.2932 221.38 68.7295C218.373 65.3356 216.827 60.4992 216.827 54.2204C216.827 48.1962 218.288 43.5295 221.294 40.1356C224.301 36.6568 228.596 34.875 234.008 34.875C239.764 34.875 244.145 36.572 247.324 39.9659C250.33 43.4447 251.877 48.281 251.877 54.475C251.877 54.8144 251.877 55.1538 251.877 55.4932C251.877 55.7477 251.877 56.0023 251.877 56.0871C251.877 56.5962 251.791 56.8507 251.705 57.1053H226.964C227.05 59.9901 227.737 62.1962 229.112 63.5538C230.314 65.081 232.204 65.8447 234.695 65.8447C236.328 65.8447 237.702 65.5053 238.819 64.8265C239.077 64.7416 239.334 64.572 239.592 64.3174C239.85 64.0629 240.107 63.8083 240.365 63.5538C240.451 63.2992 240.795 62.875 241.396 62.4508C242.169 62.0265 243.028 61.772 244.145 61.772ZM227.05 50.8265H241.654C241.482 48.281 240.795 46.4144 239.678 45.1417C238.475 43.7841 236.671 43.1901 234.352 43.1901C232.29 43.1901 230.572 43.8689 229.198 45.1417C227.823 46.4992 227.136 48.3659 227.05 50.8265Z" fill="#676666"/>
<path d="M255.567 73.3954V55.153C255.567 51.5045 256.083 48.3651 257.2 45.9045C258.316 43.4439 259.777 41.4075 261.667 39.8802C263.471 38.4378 265.618 37.4196 268.024 36.7408C270.429 36.062 272.92 35.7227 275.497 35.7227C275.669 35.7227 275.927 35.7227 276.185 35.7227C276.442 35.7227 276.7 35.7227 276.872 35.7227V45.8196H273.607C270.859 45.8196 268.797 46.4984 267.422 47.7711C266.048 49.1287 265.446 51.1651 265.446 53.9651V73.3105H255.567V73.3954Z" fill="#676666"/>
<path d="M280.483 73.3931V29.9506C280.483 28.5082 280.999 27.3203 281.944 26.387C282.889 25.4537 284.177 24.9446 285.552 24.9446H316.134V33.2597H290.448V43.6961H309.605V46.9203C309.605 48.3628 309.09 49.5506 308.145 50.484C307.2 51.4173 305.911 51.9264 304.537 51.9264H290.534V73.3931H280.483Z" fill="#5A1E9A"/>
<path d="M324.719 69.9926C322.743 68.2956 321.282 66.0047 320.423 63.1199C319.564 60.235 319.135 57.2653 319.135 54.1259C319.135 51.5805 319.478 49.035 320.166 46.4896C320.853 43.9441 321.97 41.8229 323.516 40.1259C326.007 37.3259 329.186 35.629 333.051 35.1199C336.917 34.6108 340.439 34.9502 343.618 36.0532C347.226 37.4956 349.889 39.8714 351.607 43.3502C353.239 46.4896 354.012 50.0532 354.012 54.2108C354.012 57.1805 353.669 59.8108 352.981 61.932C352.294 64.138 351.435 65.9199 350.404 67.4471C348.085 70.5865 345.25 72.4532 341.728 73.2168C338.549 74.0653 335.457 74.1502 332.192 73.3865C329.186 72.8774 326.609 71.6896 324.719 69.9926ZM331.591 45.132C329.615 47.338 328.67 50.4774 328.842 54.8047C329.014 59.0471 329.873 62.1017 331.247 63.7986C331.849 64.5623 332.794 65.1562 334.254 65.6653C335.714 66.1744 337.175 66.2593 338.635 65.835C340.096 65.4108 341.384 64.3926 342.587 62.6956C343.704 60.9986 344.305 58.2835 344.477 54.5502C344.477 51.1562 343.961 48.6108 342.845 46.9138C341.728 45.2168 340.525 44.1138 339.065 43.6896C337.604 43.1805 336.23 43.1805 334.77 43.6047C333.309 43.9441 332.278 44.4532 331.591 45.132Z" fill="#5A1E9A"/>
<path d="M357.881 73.3951V55.1527C357.881 51.5042 358.396 48.3648 359.513 45.9042C360.63 43.4436 362.09 41.4073 363.98 39.88C365.784 38.4376 367.932 37.4194 370.337 36.7406C372.742 36.0618 375.234 35.7224 377.811 35.7224C377.983 35.7224 378.24 35.7224 378.498 35.7224C378.756 35.7224 379.014 35.7224 379.185 35.7224V45.8194H375.921C373.172 45.8194 371.11 46.4982 369.736 47.7709C368.361 49.1285 367.76 51.1648 367.76 53.9648V73.3103H357.881V73.3951Z" fill="#5A1E9A"/>
<path d="M415.52 73.395H405.641V51.4192V49.4677C405.641 47.1768 404.953 45.5647 403.579 44.5465C402.205 43.5283 400.658 43.0192 398.94 43.0192C397.222 43.0192 395.676 43.5283 394.387 44.5465C393.013 45.5647 392.411 47.2616 392.411 49.4677V73.4798H382.446V51.5041C382.446 45.1404 384.164 40.8132 387.515 38.6919C390.865 36.5707 394.645 35.3828 398.768 35.1283C400.916 35.1283 403.064 35.3828 405.211 35.8071C407.273 36.3162 409.249 37.2495 410.967 38.6071C412.427 37.4192 414.059 36.4859 416.035 35.9768C418.011 35.4677 419.987 35.1283 422.135 35.0435C426.344 35.0435 430.21 36.1465 433.732 38.2677C437.254 40.4738 439.058 44.801 439.058 51.4192V73.395H433.818C432.357 73.395 431.241 72.9707 430.296 72.0374C429.351 71.104 428.921 70.001 428.921 68.5586V49.3828C428.921 47.0919 428.234 45.4798 426.859 44.4616C425.485 43.4434 423.939 42.9344 422.22 42.9344C420.502 42.9344 418.956 43.4434 417.582 44.4616C416.207 45.4798 415.52 47.1768 415.52 49.3828V51.3344V73.395Z" fill="#5A1E9A"/>
<path d="M134.956 91.901H130.66L129.887 94.0222H128.513L132.035 84.4343H133.495L137.017 94.0222H135.729L134.956 91.901ZM134.526 90.8828L132.722 86.0464L130.918 90.8828H134.526Z" fill="black"/>
<path d="M155.058 89.4386C155.316 89.6931 155.574 89.9477 155.746 90.2871C155.917 90.6264 156.003 90.9658 156.003 91.3901C156.003 91.8992 155.917 92.3234 155.66 92.7477C155.402 93.1719 155.058 93.4264 154.543 93.681C154.027 93.9355 153.512 94.0204 152.825 94.0204H149.217V84.3477H152.739C153.426 84.3477 153.942 84.4325 154.457 84.6871C154.972 84.9416 155.316 85.1961 155.488 85.5355C155.746 85.8749 155.831 86.2992 155.831 86.8083C155.831 87.4022 155.66 87.8265 155.402 88.2507C155.058 88.5901 154.715 88.9295 154.199 89.0992C154.457 89.0992 154.801 89.2689 155.058 89.4386ZM150.505 88.5052H152.653C153.254 88.5052 153.684 88.3355 154.027 88.081C154.371 87.8265 154.543 87.4022 154.543 86.8931C154.543 86.384 154.371 86.0446 154.027 85.7052C153.684 85.4507 153.254 85.281 152.653 85.281H150.505V88.5052ZM154.199 92.578C154.543 92.3234 154.715 91.8992 154.715 91.3052C154.715 90.7962 154.543 90.3719 154.113 90.0325C153.684 89.6931 153.254 89.6083 152.653 89.6083H150.419V93.0022H152.653C153.34 93.0022 153.856 92.8325 154.199 92.578Z" fill="black"/>
<path d="M168.198 90.712H162.099C162.185 91.4757 162.443 92.0696 162.872 92.4938C163.302 92.9181 163.903 93.0878 164.59 93.0878C165.106 93.0878 165.621 93.0029 165.965 92.7484C166.308 92.4939 166.566 92.1545 166.738 91.7302H168.112C167.941 92.4939 167.511 93.0878 166.91 93.512C166.308 93.9363 165.535 94.1908 164.59 94.1908C163.903 94.1908 163.216 94.0211 162.615 93.6817C162.013 93.3423 161.584 92.9181 161.24 92.3242C160.896 91.7302 160.725 91.0514 160.725 90.2878C160.725 89.5241 160.896 88.8454 161.24 88.2514C161.584 87.6575 162.013 87.2332 162.615 86.8938C163.216 86.5545 163.817 86.3848 164.59 86.3848C165.278 86.3848 165.965 86.5545 166.566 86.8938C167.168 87.2332 167.597 87.6575 167.855 88.1666C168.112 88.6757 168.284 89.3545 168.284 90.0332C168.284 90.2029 168.198 90.4575 168.198 90.712ZM166.566 88.4211C166.308 88.0817 166.051 87.8272 165.707 87.6575C165.363 87.4878 164.934 87.4029 164.504 87.4029C163.817 87.4029 163.302 87.5726 162.872 87.9969C162.443 88.4211 162.185 88.9302 162.099 89.6938H166.91C166.91 89.1848 166.824 88.7605 166.566 88.4211Z" fill="black"/>
<path d="M174.902 87.4861V91.983C174.902 92.3224 174.987 92.577 175.159 92.7467C175.331 92.9164 175.589 93.0012 176.018 93.0012H176.963V94.1042H175.846C175.159 94.1042 174.644 93.9345 174.214 93.5951C173.871 93.2557 173.699 92.7466 173.699 91.983V87.4861H172.668V86.4679H173.699V84.5164H174.987V86.4679H176.963V87.4861H174.902Z" fill="black"/>
<path d="M183.495 87.4861V91.983C183.495 92.3224 183.581 92.577 183.753 92.7467C183.925 92.9164 184.182 93.0012 184.612 93.0012H185.557V94.1042H184.44C183.753 94.1042 183.238 93.9345 182.808 93.5951C182.464 93.2557 182.293 92.7466 182.293 91.983V87.4861H181.262V86.4679H182.293V84.5164H183.581V86.4679H185.557V87.4861H183.495Z" fill="black"/>
<path d="M197.406 90.712H191.307C191.393 91.4757 191.651 92.0696 192.08 92.4938C192.51 92.9181 193.111 93.0878 193.798 93.0878C194.314 93.0878 194.829 93.0029 195.173 92.7484C195.516 92.4939 195.774 92.1545 195.946 91.7302H197.32C197.149 92.4939 196.719 93.0878 196.118 93.512C195.516 93.9363 194.743 94.1908 193.798 94.1908C193.111 94.1908 192.424 94.0211 191.823 93.6817C191.221 93.3423 190.792 92.9181 190.448 92.3242C190.104 91.7302 189.933 91.0514 189.933 90.2878C189.933 89.5241 190.104 88.8454 190.448 88.2514C190.792 87.6575 191.221 87.2332 191.823 86.8938C192.424 86.5545 193.025 86.3848 193.798 86.3848C194.486 86.3848 195.173 86.5545 195.774 86.8938C196.376 87.2332 196.805 87.6575 197.063 88.1666C197.32 88.6757 197.492 89.3545 197.492 90.0332C197.406 90.2029 197.406 90.4575 197.406 90.712ZM195.774 88.4211C195.516 88.0817 195.259 87.8272 194.915 87.6575C194.571 87.4878 194.142 87.4029 193.712 87.4029C193.025 87.4029 192.51 87.5726 192.08 87.9969C191.651 88.4211 191.393 88.9302 191.307 89.6938H196.118C196.118 89.1848 196.032 88.7605 195.774 88.4211Z" fill="black"/>
<path d="M204.793 86.6375C205.223 86.383 205.738 86.2981 206.339 86.2981V87.5708H205.996C204.535 87.5708 203.848 88.3345 203.848 89.8617V94.0193H202.56V86.4678H203.848V87.7405C204.106 87.2314 204.364 86.892 204.793 86.6375Z" fill="black"/>
<path d="M230.655 84.3477L227.82 94.0204H226.36L224.126 86.2143L221.807 94.0204H220.433L217.684 84.3477H219.058L221.206 92.4931L223.525 84.3477H224.986L227.219 92.4931L229.367 84.3477H230.655Z" fill="black"/>
<path d="M235.553 88.1648C235.896 87.5708 236.326 87.1466 236.841 86.8072C237.357 86.4678 238.044 86.2981 238.731 86.2981C239.418 86.2981 240.02 86.4678 240.449 86.7223C240.965 86.9769 241.308 87.4011 241.566 87.8254V86.4678H242.855V94.0193H241.566V92.5769C241.308 93.0011 240.965 93.4254 240.449 93.6799C239.934 93.9345 239.332 94.1042 238.731 94.1042C238.044 94.1042 237.442 93.9345 236.841 93.5951C236.326 93.2557 235.896 92.8314 235.553 92.2375C235.209 91.6436 235.037 90.9648 235.037 90.2011C235.037 89.4375 235.209 88.7587 235.553 88.1648ZM241.222 88.6739C240.965 88.2496 240.707 87.9102 240.277 87.6557C239.848 87.4011 239.418 87.3163 238.989 87.3163C238.559 87.3163 238.044 87.4011 237.7 87.6557C237.271 87.9102 237.013 88.1648 236.755 88.589C236.497 89.0132 236.412 89.5223 236.412 90.1163C236.412 90.7102 236.497 91.2193 236.755 91.6436C237.013 92.0678 237.271 92.4072 237.7 92.6617C238.13 92.9163 238.559 93.0011 238.989 93.0011C239.418 93.0011 239.934 92.9163 240.277 92.6617C240.707 92.4072 240.965 92.0678 241.222 91.6436C241.48 91.2193 241.566 90.7102 241.566 90.1163C241.566 89.5223 241.394 89.0981 241.222 88.6739Z" fill="black"/>
<path d="M255.047 86.4622L250.408 97.6622H249.12L250.666 94.0137L247.573 86.547H248.948L251.353 92.6561L253.758 86.547H255.047V86.4622Z" fill="black"/>
<path d="M270.088 87.4879H268.456V94.0212H267.168V87.4879H266.137V86.4697H267.168V85.9606C267.168 85.1121 267.425 84.5182 267.855 84.094C268.284 83.6697 268.972 83.5 270.002 83.5V84.5182C269.401 84.5182 269.058 84.603 268.8 84.8576C268.542 85.1121 268.456 85.4515 268.456 85.9606V86.4697H270.088V87.4879Z" fill="black"/>
<path d="M276.358 93.6817C275.756 93.3423 275.327 92.9181 274.983 92.3242C274.64 91.7302 274.468 91.0514 274.468 90.2878C274.468 89.5241 274.64 88.8454 274.983 88.2514C275.327 87.6575 275.756 87.2332 276.358 86.8938C276.959 86.5545 277.646 86.3848 278.334 86.3848C279.021 86.3848 279.708 86.5545 280.309 86.8938C280.911 87.2332 281.34 87.6575 281.684 88.2514C282.027 88.8454 282.199 89.5241 282.199 90.2878C282.199 91.0514 282.027 91.7302 281.684 92.3242C281.34 92.9181 280.825 93.3423 280.223 93.6817C279.622 94.0211 278.935 94.1908 278.248 94.1908C277.646 94.106 276.959 94.0211 276.358 93.6817ZM279.622 92.7484C280.052 92.5787 280.309 92.2393 280.567 91.8151C280.825 91.3908 280.911 90.8817 280.911 90.2878C280.911 89.6938 280.825 89.1848 280.567 88.7605C280.309 88.3363 279.966 87.9969 279.622 87.8272C279.193 87.6575 278.763 87.4878 278.334 87.4878C277.904 87.4878 277.474 87.5726 277.045 87.8272C276.615 87.9969 276.358 88.3363 276.1 88.7605C275.842 89.1848 275.756 89.6938 275.756 90.2878C275.756 90.8817 275.842 91.3908 276.1 91.8151C276.358 92.2393 276.615 92.5787 277.045 92.7484C277.389 92.9181 277.818 93.0878 278.334 93.0878C278.849 93.0878 279.193 92.9181 279.622 92.7484Z" fill="black"/>
<path d="M289.589 86.6375C290.019 86.383 290.534 86.2981 291.135 86.2981V87.5708H290.792C289.331 87.5708 288.644 88.3345 288.644 89.8617V94.0193H287.355V86.4678H288.644V87.7405C288.902 87.2314 289.245 86.892 289.589 86.6375Z" fill="black"/>
<path d="M303.244 88.1648C303.588 87.5708 304.017 87.1466 304.533 86.8072C305.048 86.4678 305.735 86.2981 306.422 86.2981C307.11 86.2981 307.711 86.4678 308.141 86.7223C308.656 86.9769 309 87.4011 309.257 87.8254V86.4678H310.546V94.0193H309.257V92.5769C309 93.0011 308.656 93.4254 308.141 93.6799C307.625 93.9345 307.024 94.1042 306.422 94.1042C305.735 94.1042 305.134 93.9345 304.533 93.5951C304.017 93.2557 303.588 92.8314 303.244 92.2375C302.9 91.6436 302.729 90.9648 302.729 90.2011C302.729 89.4375 302.9 88.7587 303.244 88.1648ZM308.914 88.6739C308.656 88.2496 308.398 87.9102 307.969 87.6557C307.539 87.4011 307.11 87.3163 306.68 87.3163C306.251 87.3163 305.735 87.4011 305.392 87.6557C304.962 87.9102 304.704 88.1648 304.447 88.589C304.189 89.0132 304.103 89.5223 304.103 90.1163C304.103 90.7102 304.189 91.2193 304.447 91.6436C304.704 92.0678 304.962 92.4072 305.392 92.6617C305.821 92.9163 306.251 93.0011 306.68 93.0011C307.11 93.0011 307.625 92.9163 307.969 92.6617C308.398 92.4072 308.656 92.0678 308.914 91.6436C309.171 91.2193 309.257 90.7102 309.257 90.1163C309.257 89.5223 309.171 89.0981 308.914 88.6739Z" fill="black"/>
<path d="M329.188 89.4386C329.446 89.6931 329.704 89.9477 329.875 90.2871C330.047 90.6264 330.133 90.9658 330.133 91.3901C330.133 91.8992 330.047 92.3234 329.79 92.7477C329.532 93.1719 329.188 93.4264 328.673 93.681C328.157 93.9355 327.642 94.0204 326.955 94.0204H323.347V84.3477H326.869C327.556 84.3477 328.071 84.4325 328.587 84.6871C329.102 84.9416 329.446 85.1961 329.618 85.5355C329.875 85.8749 329.961 86.2992 329.961 86.8083C329.961 87.4022 329.79 87.8265 329.532 88.2507C329.188 88.5901 328.845 88.9295 328.329 89.0992C328.587 89.0992 328.931 89.2689 329.188 89.4386ZM324.635 88.5052H326.783C327.384 88.5052 327.814 88.3355 328.157 88.081C328.501 87.8265 328.673 87.4022 328.673 86.8931C328.673 86.384 328.501 86.0446 328.157 85.7052C327.814 85.4507 327.384 85.281 326.783 85.281H324.635V88.5052ZM328.329 92.578C328.673 92.3234 328.845 91.8992 328.845 91.3052C328.845 90.7962 328.673 90.3719 328.243 90.0325C327.9 89.6931 327.384 89.6083 326.783 89.6083H324.549V93.0022H326.783C327.47 93.0022 327.986 92.8325 328.329 92.578Z" fill="black"/>
<path d="M342.328 90.712H336.229C336.315 91.4757 336.573 92.0696 337.002 92.4938C337.432 92.9181 338.033 93.0878 338.72 93.0878C339.236 93.0878 339.751 93.0029 340.095 92.7484C340.438 92.4939 340.696 92.1545 340.868 91.7302H342.242C342.071 92.4939 341.641 93.0878 341.04 93.512C340.438 93.9363 339.665 94.1908 338.72 94.1908C338.033 94.1908 337.346 94.0211 336.744 93.6817C336.143 93.3423 335.714 92.9181 335.37 92.3242C335.026 91.7302 334.854 91.0514 334.854 90.2878C334.854 89.5241 335.026 88.8454 335.37 88.2514C335.714 87.6575 336.143 87.2332 336.744 86.8938C337.346 86.5545 337.947 86.3848 338.72 86.3848C339.407 86.3848 340.095 86.5545 340.696 86.8938C341.297 87.2332 341.727 87.6575 341.985 88.1666C342.328 88.6757 342.414 89.3545 342.414 90.0332C342.328 90.2029 342.328 90.4575 342.328 90.712ZM340.696 88.4211C340.438 88.0817 340.181 87.8272 339.837 87.6575C339.493 87.4878 339.064 87.4029 338.634 87.4029C337.947 87.4029 337.432 87.5726 337.002 87.9969C336.573 88.4211 336.315 88.9302 336.229 89.6938H341.04C341.04 89.1848 340.954 88.7605 340.696 88.4211Z" fill="black"/>
<path d="M349.03 87.4861V91.983C349.03 92.3224 349.116 92.577 349.288 92.7467C349.46 92.9164 349.718 93.0012 350.147 93.0012H351.092V94.1042H349.975C349.288 94.1042 348.773 93.9345 348.343 93.5951C348 93.2557 347.828 92.7466 347.828 91.983V87.4861H346.797V86.4679H347.828V84.5164H349.116V86.4679H351.092V87.4861H349.03Z" fill="black"/>
<path d="M357.534 87.4861V91.983C357.534 92.3224 357.62 92.577 357.792 92.7467C357.964 92.9164 358.222 93.0012 358.651 93.0012H359.596V94.1042H358.479C357.792 94.1042 357.277 93.9345 356.847 93.5951C356.504 93.2557 356.332 92.7466 356.332 91.983V87.4861H355.301V86.4679H356.332V84.5164H357.62V86.4679H359.596V87.4861H357.534Z" fill="black"/>
<path d="M371.533 90.712H365.434C365.52 91.4757 365.778 92.0696 366.207 92.4938C366.637 92.9181 367.238 93.0878 367.925 93.0878C368.441 93.0878 368.956 93.0029 369.3 92.7484C369.643 92.4939 369.901 92.1545 370.073 91.7302H371.447C371.276 92.4939 370.846 93.0878 370.245 93.512C369.643 93.9363 368.87 94.1908 367.925 94.1908C367.238 94.1908 366.551 94.0211 365.949 93.6817C365.348 93.3423 364.919 92.9181 364.575 92.3242C364.231 91.7302 364.06 91.0514 364.06 90.2878C364.06 89.5241 364.231 88.8454 364.575 88.2514C364.919 87.6575 365.348 87.2332 365.949 86.8938C366.551 86.5545 367.152 86.3848 367.925 86.3848C368.613 86.3848 369.3 86.5545 369.901 86.8938C370.502 87.2332 370.932 87.6575 371.19 88.1666C371.533 88.6757 371.619 89.3545 371.619 90.0332C371.533 90.2029 371.533 90.4575 371.533 90.712ZM369.901 88.4211C369.643 88.0817 369.386 87.8272 369.042 87.6575C368.698 87.4878 368.269 87.4029 367.839 87.4029C367.152 87.4029 366.637 87.5726 366.207 87.9969C365.778 88.4211 365.52 88.9302 365.434 89.6938H370.245C370.245 89.1848 370.159 88.7605 369.901 88.4211Z" fill="black"/>
<path d="M378.927 86.6375C379.357 86.383 379.872 86.2981 380.474 86.2981V87.5708H380.13C378.67 87.5708 377.982 88.3345 377.982 89.8617V94.0193H376.694V86.4678H377.982V87.7405C378.154 87.2314 378.498 86.892 378.927 86.6375Z" fill="black"/>
<path d="M394.474 93.5141C393.701 93.0899 393.1 92.4959 392.67 91.7323C392.241 90.9687 391.983 90.1202 391.983 89.1868C391.983 88.2535 392.241 87.405 392.67 86.6414C393.1 85.8777 393.701 85.2838 394.474 84.8596C395.247 84.4353 396.02 84.2656 396.965 84.2656C397.91 84.2656 398.684 84.4353 399.457 84.8596C400.23 85.2838 400.831 85.8777 401.261 86.6414C401.69 87.405 401.948 88.2535 401.948 89.1868C401.948 90.1202 401.69 90.9687 401.261 91.7323C400.831 92.4959 400.23 93.0899 399.457 93.5141C398.684 93.9383 397.91 94.108 396.965 94.108C396.02 94.108 395.247 93.9383 394.474 93.5141ZM398.769 92.5808C399.285 92.2414 399.714 91.8171 400.058 91.2232C400.402 90.6293 400.488 89.9505 400.488 89.1868C400.488 88.4232 400.316 87.7444 400.058 87.1505C399.714 86.5565 399.285 86.1323 398.769 85.7929C398.254 85.4535 397.653 85.2838 396.88 85.2838C396.106 85.2838 395.591 85.4535 394.99 85.7929C394.474 86.1323 394.045 86.5565 393.701 87.1505C393.357 87.7444 393.271 88.4232 393.271 89.1868C393.271 89.9505 393.443 90.6293 393.701 91.2232C393.959 91.8171 394.474 92.2414 394.99 92.5808C395.505 92.9202 396.192 93.0899 396.794 93.0899C397.395 93.0899 398.254 92.8353 398.769 92.5808Z" fill="black"/>
<path d="M410.114 87.4879H408.482V94.0212H407.193V87.4879H406.162V86.4697H407.193V85.9606C407.193 85.1121 407.451 84.5182 407.88 84.094C408.31 83.6697 408.997 83.5 410.028 83.5V84.5182C409.427 84.5182 409.083 84.603 408.825 84.8576C408.568 85.1121 408.482 85.4515 408.482 85.9606V86.4697H410.114V87.4879Z" fill="black"/>
<path d="M418.096 87.4879H416.464V94.0212H415.175V87.4879H414.145V86.4697H415.175V85.9606C415.175 85.1121 415.433 84.5182 415.863 84.094C416.292 83.6697 416.979 83.5 418.01 83.5V84.5182C417.409 84.5182 417.065 84.603 416.808 84.8576C416.55 85.1121 416.464 85.4515 416.464 85.9606V86.4697H418.096V87.4879Z" fill="black"/>
<path d="M430.042 90.712H423.943C424.029 91.4757 424.286 92.0696 424.716 92.4938C425.146 92.9181 425.747 93.0878 426.434 93.0878C426.95 93.0878 427.465 93.0029 427.809 92.7484C428.152 92.4939 428.41 92.1545 428.582 91.7302H429.956C429.784 92.4939 429.355 93.0878 428.753 93.512C428.152 93.9363 427.379 94.1908 426.434 94.1908C425.747 94.1908 425.06 94.0211 424.458 93.6817C423.857 93.3423 423.427 92.9181 423.084 92.3242C422.74 91.7302 422.568 91.0514 422.568 90.2878C422.568 89.5241 422.74 88.8454 423.084 88.2514C423.427 87.6575 423.857 87.2332 424.458 86.8938C425.06 86.5545 425.661 86.3848 426.434 86.3848C427.121 86.3848 427.809 86.5545 428.41 86.8938C429.011 87.2332 429.441 87.6575 429.698 88.1666C430.042 88.6757 430.128 89.3545 430.128 90.0332C430.042 90.2029 430.042 90.4575 430.042 90.712ZM428.41 88.4211C428.152 88.0817 427.894 87.8272 427.551 87.6575C427.207 87.4878 426.778 87.4029 426.348 87.4029C425.661 87.4029 425.146 87.5726 424.716 87.9969C424.286 88.4211 424.029 88.9302 423.943 89.6938H428.753C428.753 89.1848 428.668 88.7605 428.41 88.4211Z" fill="black"/>
<path d="M437.427 86.6375C437.856 86.383 438.372 86.2981 438.973 86.2981V87.5708H438.63C437.169 87.5708 436.482 88.3345 436.482 89.8617V94.0193H435.193V86.4678H436.482V87.7405C436.654 87.2314 436.997 86.892 437.427 86.6375Z" fill="black"/>
<path d="M32.126 29.6953H79.7175V30.8832C79.7175 36.9923 74.735 41.9135 68.5498 41.9135H32.126V29.6953Z" fill="#5A1E9A"/>
<path d="M32.126 50.4094H67.3472V51.5973C67.3472 57.7064 62.3647 62.6276 56.1795 62.6276H32.126V50.4094Z" fill="#5A1E9A"/>
<path d="M32.126 71.104H51.1111V72.2919C51.1111 78.401 46.1286 83.3222 39.9434 83.3222H32.126V71.104Z" fill="#5A1E9A"/>
</svg>
