<svg width="28" height="27" viewBox="0 0 28 27" fill="none" xmlns="http://www.w3.org/2000/svg">
<path d="M3.7047 18.9375V15.3125C3.7047 14.8318 3.90518 14.3708 4.26203 14.0309C4.61889 13.691 5.10288 13.5 5.60755 13.5H13.2189V9.875H4.65612C4.15146 9.875 3.66746 9.68404 3.31061 9.34413C2.95376 9.00422 2.75328 8.5432 2.75328 8.0625V2.625C2.75328 2.1443 2.95376 1.68328 3.31061 1.34337C3.66746 1.00346 4.15146 0.8125 4.65612 0.8125H23.6845C24.1892 0.8125 24.6732 1.00346 25.0301 1.34337C25.3869 1.68328 25.5874 2.1443 25.5874 2.625V8.0625C25.5874 8.5432 25.3869 9.00422 25.0301 9.34413C24.6732 9.68404 24.1892 9.875 23.6845 9.875H15.1218V13.5H22.7331C23.2378 13.5 23.7218 13.691 24.0786 14.0309C24.4355 14.3708 24.636 14.8318 24.636 15.3125V18.9375H27.4902V26.1875H19.8789V18.9375H22.7331V15.3125H15.1218V18.9375H17.976V26.1875H10.3647V18.9375H13.2189V15.3125H5.60755V18.9375H8.46181V26.1875H0.850439V18.9375H3.7047ZM21.7817 24.375H25.5874V20.75H21.7817V24.375ZM12.2675 20.75V24.375H16.0732V20.75H12.2675ZM23.6845 8.0625V2.625H4.65612V8.0625H23.6845ZM2.75328 24.375H6.55897V20.75H2.75328V24.375Z" fill="#989898"/>
</svg>
