<svg width="15" height="14" viewBox="0 0 15 14" fill="none" xmlns="http://www.w3.org/2000/svg">
<path d="M7.5 14C11.6421 14 15 10.866 15 7C15 3.13401 11.6421 0 7.5 0C3.35786 0 0 3.13401 0 7C0 10.866 3.35786 14 7.5 14Z" fill="#AAAAAA"/>
<path d="M7.49911 12.8013C10.9321 12.8013 13.715 10.2038 13.715 6.99976C13.715 3.79567 10.9321 1.19824 7.49911 1.19824C4.06616 1.19824 1.2832 3.79567 1.2832 6.99976C1.2832 10.2038 4.06616 12.8013 7.49911 12.8013Z" fill="white"/>
<path d="M1.45508 2.4912L2.77326 1.19727L13.921 11.167L12.6028 12.4609L1.45508 2.4912Z" fill="white"/>
<path d="M4.25 3.7124H10.5455V3.86089C10.5455 4.62452 9.88636 5.23967 9.06818 5.23967H4.25V3.7124Z" fill="#5A1E9A"/>
<path d="M4.25 6.2998H8.90909V6.44829C8.90909 7.21193 8.25 7.82708 7.43182 7.82708H4.25V6.2998Z" fill="#5A1E9A"/>
<path d="M4.25 8.88818H6.76136V9.03667C6.76136 9.8003 6.10227 10.4155 5.28409 10.4155H4.25V8.88818Z" fill="#5A1E9A"/>
</svg>
