<svg width="16" height="16" viewBox="0 0 16 16" fill="none" xmlns="http://www.w3.org/2000/svg">
<path d="M1.33288 15.5C1.3993 15.5081 1.46645 15.5081 1.53288 15.5L4.86621 14.6667C5.01408 14.6316 5.14952 14.5566 5.25788 14.45L15.4995 4.17504C15.81 3.86277 15.9842 3.44035 15.9842 3.00004C15.9842 2.55973 15.81 2.13731 15.4995 1.82504L14.1829 0.500042C14.0281 0.345081 13.8443 0.222149 13.6419 0.138275C13.4396 0.0544016 13.2227 0.0112305 13.0037 0.0112305C12.7847 0.0112305 12.5678 0.0544016 12.3655 0.138275C12.1631 0.222149 11.9793 0.345081 11.8245 0.500042L1.58288 10.7417C1.4752 10.8506 1.39767 10.9855 1.35788 11.1334L0.524543 14.4667C0.494591 14.5745 0.486664 14.6873 0.501233 14.7982C0.515803 14.9092 0.552571 15.0161 0.609344 15.1125C0.666118 15.209 0.741733 15.293 0.83168 15.3595C0.921627 15.4261 1.02406 15.4739 1.13288 15.5C1.1993 15.5081 1.26645 15.5081 1.33288 15.5ZM12.9995 1.67504L14.3245 3.00004L12.9995 4.32504L11.6829 3.00004L12.9995 1.67504ZM2.92454 11.7584L10.4995 4.17504L11.8245 5.50004L4.24121 13.0834L2.48288 13.5167L2.92454 11.7584Z" fill="#A1A1A1"/>
</svg>
