<svg width="27" height="25" viewBox="0 0 27 25" fill="none" xmlns="http://www.w3.org/2000/svg">
<path d="M13.2139 24.6659C20.5117 24.6659 26.4277 19.1442 26.4277 12.3329C26.4277 5.52165 20.5117 0 13.2139 0C5.91605 0 0 5.52165 0 12.3329C0 19.1442 5.91605 24.6659 13.2139 24.6659Z" fill="#AAAAAA"/>
<path d="M13.2132 22.5539C19.2616 22.5539 24.1647 17.9776 24.1647 12.3325C24.1647 6.68736 19.2616 2.11108 13.2132 2.11108C7.16487 2.11108 2.26172 6.68736 2.26172 12.3325C2.26172 17.9776 7.16487 22.5539 13.2132 22.5539Z" fill="white"/>
<path d="M2.5625 4.3891L4.88494 2.10938L24.5256 19.6745L22.2031 21.9542L2.5625 4.3891Z" fill="white"/>
<path d="M7.48828 6.54004H18.5799V6.80165C18.5799 8.14706 17.4187 9.23086 15.9772 9.23086H7.48828V6.54004Z" fill="#5A1E9A"/>
<path d="M7.48828 11.0994H15.6969V11.361C15.6969 12.7064 14.5357 13.7902 13.0942 13.7902H7.48828V11.0994Z" fill="#5A1E9A"/>
<path d="M7.48828 15.6597H11.9129V15.9213C11.9129 17.2667 10.7517 18.3505 9.31019 18.3505H7.48828V15.6597Z" fill="#5A1E9A"/>
</svg>
