<svg width="14" height="13" viewBox="0 0 14 13" fill="none" xmlns="http://www.w3.org/2000/svg">
<path d="M7 13C10.866 13 14 10.0899 14 6.5C14 2.91015 10.866 0 7 0C3.13401 0 0 2.91015 0 6.5C0 10.0899 3.13401 13 7 13Z" fill="#AAAAAA"/>
<path d="M6.99878 11.8865C10.2029 11.8865 12.8003 9.47465 12.8003 6.49942C12.8003 3.5242 10.2029 1.1123 6.99878 1.1123C3.79469 1.1123 1.19727 3.5242 1.19727 6.49942C1.19727 9.47465 3.79469 11.8865 6.99878 11.8865Z" fill="white"/>
<path d="M1.35938 2.31382L2.58968 1.1123L12.9942 10.3699L11.7639 11.5714L1.35938 2.31382Z" fill="white"/>
<path d="M6.30469 10.9766V5.52498H6.45329C7.21756 5.52498 7.83321 6.09572 7.83321 6.80423V10.9766H6.30469Z" fill="#5A1E9A"/>
<path d="M4.20312 3.25H10.0789V3.38788C10.0789 4.09697 9.46373 4.66818 8.7001 4.66818H4.20312V3.25Z" fill="#5A1E9A"/>
</svg>
