<svg width="95" height="68" viewBox="0 0 95 68" fill="none" xmlns="http://www.w3.org/2000/svg">
<path d="M76.4641 46.4778C74.142 44.8143 71.4286 43.4566 68.4485 42.4669C72.6511 40.0298 75.3322 36.311 75.3322 32.1407C75.3322 24.7829 66.76 18.7466 56.4807 18.8595C46.3591 18.9724 38.2043 24.8759 38.2043 32.1407C38.2043 36.311 40.8948 40.0298 45.0881 42.4669C42.1074 43.4559 39.3939 44.8137 37.0725 46.4778C32.0071 50.1102 29.1311 54.9048 28.9455 60.018C28.9431 60.0889 28.9604 60.1594 28.9966 60.2254C29.0328 60.2914 29.0871 60.3516 29.1562 60.4023C29.2254 60.4531 29.3081 60.4934 29.3994 60.5209C29.4906 60.5484 29.5887 60.5626 29.6877 60.5626H34.883C35.282 60.5626 35.6159 60.3368 35.6252 60.0512C35.8015 56.1997 37.9817 52.5938 41.8132 49.8579C43.7739 48.447 46.106 47.3285 48.6746 46.567C51.2433 45.8056 53.9974 45.4164 56.7776 45.422C62.4275 45.422 67.7434 46.9958 71.7419 49.8579C75.5642 52.5938 77.7444 56.1997 77.9299 60.0512C77.9392 60.3368 78.2732 60.5626 78.6721 60.5626H83.8674C83.9664 60.5626 84.0645 60.5484 84.1558 60.5209C84.247 60.4934 84.3297 60.4531 84.3989 60.4023C84.468 60.3516 84.5223 60.2914 84.5585 60.2254C84.5947 60.1594 84.6121 60.0889 84.6096 60.018C84.424 54.9048 81.5481 50.1102 76.4641 46.4778ZM56.7776 40.6407C53.6047 40.6407 50.6174 39.7575 48.3816 38.1505C47.2595 37.3536 46.3732 36.4032 45.7754 35.3558C45.1777 34.3085 44.8809 33.1857 44.9026 32.0544C44.9304 29.8763 46.1457 27.7712 48.2702 26.2106C50.4968 24.577 53.4748 23.6673 56.657 23.6407C59.802 23.6208 62.8542 24.4974 65.0993 26.0712C67.4001 27.6849 68.6618 29.8431 68.6618 32.1407C68.6618 34.4118 67.4279 36.5434 65.1828 38.1505C64.0814 38.9427 62.7713 39.5707 61.3286 39.9981C59.8858 40.4255 58.339 40.644 56.7776 40.6407ZM33.5378 33.8938C33.4543 33.3161 33.4079 32.7317 33.4079 32.1407C33.4079 31.0849 33.5471 30.0556 33.8069 29.0528C33.8718 28.8138 33.6955 28.5681 33.3894 28.4684C32.1277 28.0634 30.968 27.5056 29.966 26.8016C28.7854 25.9822 27.8564 24.9957 27.2382 23.9049C26.62 22.8141 26.3263 21.6431 26.3757 20.4665C26.4592 18.3349 27.656 16.3095 29.7434 14.7821C32.0349 13.102 35.115 12.1856 38.3899 12.2122C41.3493 12.2321 44.2068 13.0489 46.3684 14.4966C47.1013 14.988 47.7322 15.5325 48.261 16.1169C48.4465 16.3227 48.8083 16.4091 49.1238 16.3294C50.7566 15.9243 52.4822 15.6388 54.2541 15.5059C54.7737 15.4661 55.0705 15.0677 54.8386 14.7356C51.8235 10.4657 45.6633 7.51728 38.5383 7.43759C28.2497 7.3247 19.6775 13.361 19.6775 20.7122C19.6775 24.8825 22.3586 28.6013 26.5613 31.0384C23.6111 32.0145 20.8928 33.3626 18.5364 35.0493C13.4524 38.6817 10.5764 43.4762 10.3909 48.5962C10.3884 48.667 10.4057 48.7376 10.4419 48.8036C10.4781 48.8695 10.5324 48.9297 10.6016 48.9804C10.6707 49.0312 10.7534 49.0715 10.8447 49.099C10.9359 49.1266 11.034 49.1407 11.133 49.1407H16.3376C16.7366 49.1407 17.0705 48.9149 17.0798 48.6294C17.2561 44.7778 19.4363 41.172 23.2678 38.436C25.9953 36.4837 29.3352 35.129 32.9812 34.4716C33.343 34.4052 33.5842 34.1595 33.5378 33.8938Z" fill="#9C4EDD"/>
</svg>
