<svg width="18" height="25" viewBox="0 0 18 25" fill="none" xmlns="http://www.w3.org/2000/svg">
<path d="M14.2007 1.5625C14.6447 1.5625 15.0705 1.72712 15.3845 2.02015C15.6984 2.31317 15.8748 2.7106 15.8748 3.125V21.875C15.8748 22.2894 15.6984 22.6868 15.3845 22.9799C15.0705 23.2729 14.6447 23.4375 14.2007 23.4375H4.15608C3.71207 23.4375 3.28626 23.2729 2.9723 22.9799C2.65835 22.6868 2.48197 22.2894 2.48197 21.875V3.125C2.48197 2.7106 2.65835 2.31317 2.9723 2.02015C3.28626 1.72712 3.71207 1.5625 4.15608 1.5625H14.2007ZM4.15608 0C3.26807 0 2.41644 0.32924 1.78853 0.915291C1.16062 1.50134 0.807861 2.2962 0.807861 3.125V21.875C0.807861 22.7038 1.16062 23.4987 1.78853 24.0847C2.41644 24.6708 3.26807 25 4.15608 25H14.2007C15.0887 25 15.9404 24.6708 16.5683 24.0847C17.1962 23.4987 17.5489 22.7038 17.5489 21.875V3.125C17.5489 2.2962 17.1962 1.50134 16.5683 0.915291C15.9404 0.32924 15.0887 0 14.2007 0L4.15608 0Z" fill="white"/>
<path d="M9.1785 21.875C9.6225 21.875 10.0483 21.7104 10.3623 21.4174C10.6762 21.1243 10.8526 20.7269 10.8526 20.3125C10.8526 19.8981 10.6762 19.5007 10.3623 19.2076C10.0483 18.9146 9.6225 18.75 9.1785 18.75C8.7345 18.75 8.30869 18.9146 7.99473 19.2076C7.68077 19.5007 7.50439 19.8981 7.50439 20.3125C7.50439 20.7269 7.68077 21.1243 7.99473 21.4174C8.30869 21.7104 8.7345 21.875 9.1785 21.875Z" fill="white"/>
</svg>
