<svg width="11" height="14" viewBox="0 0 11 14" fill="none" xmlns="http://www.w3.org/2000/svg">
<path d="M10.3093 0.409337C10.2015 0.353243 10.0804 0.327577 9.95904 0.335093C9.83771 0.34261 9.72072 0.383026 9.62063 0.452002L0.953958 6.452C0.8654 6.51336 0.79303 6.59526 0.743045 6.6907C0.693061 6.78614 0.666951 6.89227 0.666951 7C0.666951 7.10774 0.69306 7.21387 0.743045 7.30931C0.79303 7.40474 0.8654 7.48665 0.953958 7.548L9.62063 13.548C9.72064 13.6172 9.83769 13.6577 9.95908 13.6652C10.0805 13.6726 10.2016 13.6468 10.3093 13.5903C10.4171 13.5339 10.5073 13.449 10.5703 13.345C10.6333 13.2409 10.6666 13.1216 10.6666 13L10.6666 1C10.6666 0.878312 10.6334 0.758936 10.5704 0.654815C10.5074 0.550694 10.4171 0.465801 10.3093 0.409337Z" fill="#9C4EDD"/>
</svg>
