<svg width="69" height="69" viewBox="0 0 69 69" fill="none" xmlns="http://www.w3.org/2000/svg">
<path d="M57.5006 25.8743C55.2846 25.8797 53.0974 25.3712 51.111 24.3888C49.1246 23.4064 47.3929 21.977 46.052 20.2126C44.7111 18.4482 43.7974 16.3971 43.3828 14.2201C42.9682 12.0432 43.0639 9.79975 43.6623 7.66602H7.66732C6.65065 7.66602 5.67563 8.06988 4.95674 8.78877C4.23785 9.50766 3.83398 10.4827 3.83398 11.4993V57.4993C3.83398 58.516 4.23785 59.491 4.95674 60.2099C5.67563 60.9288 6.65065 61.3327 7.66732 61.3327H61.334C62.3506 61.3327 63.3257 60.9288 64.0446 60.2099C64.7634 59.491 65.1673 58.516 65.1673 57.4993V23.651C62.8746 25.1049 60.2155 25.8761 57.5006 25.8743ZM17.0973 15.3327C18.2346 15.3327 19.3463 15.6699 20.2918 16.3017C21.2374 16.9335 21.9744 17.8316 22.4096 18.8823C22.8448 19.9329 22.9587 21.0891 22.7368 22.2044C22.515 23.3198 21.9673 24.3444 21.1632 25.1485C20.359 25.9527 19.3345 26.5003 18.2191 26.7222C17.1037 26.9441 15.9476 26.8302 14.8969 26.395C13.8462 25.9598 12.9482 25.2228 12.3164 24.2772C11.6845 23.3316 11.3473 22.2199 11.3473 21.0827C11.3473 19.5577 11.9531 18.0951 13.0315 17.0168C14.1098 15.9385 15.5723 15.3327 17.0973 15.3327ZM11.5007 51.7493V43.891L23.0006 32.2377C23.3598 31.8807 23.8455 31.6803 24.3519 31.6803C24.8583 31.6803 25.344 31.8807 25.7031 32.2377L30.6673 37.0868L15.9473 51.7493H11.5007ZM57.5006 51.7493H21.3715L33.3123 39.8085L43.6623 29.4585C44.0214 29.1015 44.5072 28.9012 45.0136 28.9012C45.5199 28.9012 46.0057 29.1015 46.3648 29.4585L57.5006 40.5943V51.7493Z" fill="#9C4EDD"/>
<path d="M57.4994 21.0827C62.7921 21.0827 67.0827 16.7921 67.0827 11.4993C67.0827 6.20662 62.7921 1.91602 57.4994 1.91602C52.2066 1.91602 47.916 6.20662 47.916 11.4993C47.916 16.7921 52.2066 21.0827 57.4994 21.0827Z" fill="#9C4EDD"/>
</svg>
