<svg width="163" height="75" viewBox="0 0 163 75" fill="none" xmlns="http://www.w3.org/2000/svg">
<path d="M37.5 0.5H124.976C145.411 0.5 161.976 17.0655 161.976 37.5C161.976 57.9345 145.411 74.5 124.976 74.5H37.5C17.0654 74.5 0.5 57.9345 0.5 37.5C0.5 17.0655 17.0655 0.5 37.5 0.5Z" fill="#9C4EDD" stroke="#9C4EDD"/>
<path d="M99.518 34.6322C98.3526 25.4535 90.494 18.3335 81.0006 18.3335C73.6513 18.3335 67.2673 22.6295 64.3527 29.4002C58.6247 31.1122 54.334 36.5202 54.334 42.3335C54.334 49.6855 60.3153 55.6668 67.6673 55.6668H97.0006C102.883 55.6668 107.667 50.8828 107.667 45.0002C107.663 42.6098 106.858 40.2897 105.381 38.4104C103.904 36.531 101.84 35.2008 99.518 34.6322V34.6322ZM83.6673 42.3335V50.3335H78.334V42.3335H70.334L81.0006 29.0002L91.6673 42.3335H83.6673Z" fill="white"/>
</svg>
