<svg width="28" height="22" viewBox="0 0 28 22" fill="none" xmlns="http://www.w3.org/2000/svg">
<path d="M14.1988 9.34397C14.1754 9.31409 14.1455 9.28992 14.1114 9.2733C14.0773 9.25668 14.0398 9.24805 14.0019 9.24805C13.964 9.24805 13.9265 9.25668 13.8924 9.2733C13.8583 9.28992 13.8284 9.31409 13.805 9.34397L10.305 13.7721C10.2761 13.809 10.2582 13.8532 10.2533 13.8997C10.2484 13.9463 10.2567 13.9933 10.2772 14.0353C10.2978 14.0774 10.3297 14.1128 10.3695 14.1375C10.4092 14.1623 10.4551 14.1754 10.5019 14.1753H12.8113V21.7503C12.8113 21.8878 12.9238 22.0003 13.0613 22.0003H14.9363C15.0738 22.0003 15.1863 21.8878 15.1863 21.7503V14.1784H17.5019C17.7113 14.1784 17.8269 13.9378 17.6988 13.7753L14.1988 9.34397Z" fill="#676666"/>
<path d="M23.3565 6.45943C21.9252 2.6844 18.2783 0 14.0064 0C9.73446 0 6.08756 2.68127 4.65629 6.45631C1.97814 7.15944 0 9.60009 0 12.5001C0 15.9533 2.7969 18.7502 6.24693 18.7502H7.50007C7.63757 18.7502 7.75007 18.6377 7.75007 18.5002V16.6252C7.75007 16.4877 7.63757 16.3752 7.50007 16.3752H6.24693C5.1938 16.3752 4.20316 15.9564 3.46566 15.197C2.73127 14.4408 2.34065 13.422 2.37502 12.3657C2.40315 11.5407 2.6844 10.7657 3.19378 10.1126C3.71566 9.44696 4.44692 8.96258 5.25942 8.74695L6.44381 8.43758L6.87819 7.29382C7.14694 6.58131 7.52194 5.91568 7.99382 5.31255C8.45968 4.71476 9.0115 4.18926 9.63134 3.75316C10.9157 2.85003 12.4282 2.3719 14.0064 2.3719C15.5845 2.3719 17.097 2.85003 18.3814 3.75316C19.0033 4.19066 19.5533 4.71567 20.0189 5.31255C20.4908 5.91568 20.8658 6.58443 21.1346 7.29382L21.5658 8.43445L22.7471 8.74695C24.4408 9.20321 25.6252 10.7438 25.6252 12.5001C25.6252 13.5345 25.2221 14.5095 24.4909 15.2408C24.1322 15.6015 23.7056 15.8875 23.2357 16.0822C22.7658 16.2769 22.262 16.3765 21.7533 16.3752H20.5002C20.3627 16.3752 20.2502 16.4877 20.2502 16.6252V18.5002C20.2502 18.6377 20.3627 18.7502 20.5002 18.7502H21.7533C25.2034 18.7502 28.0003 15.9533 28.0003 12.5001C28.0003 9.60321 26.0284 7.16569 23.3565 6.45943Z" fill="#676666"/>
</svg>
