<svg width="25" height="25" viewBox="0 0 25 25" fill="none" xmlns="http://www.w3.org/2000/svg">
<path d="M1.5625 3.90625C1.5625 3.28465 1.80943 2.68851 2.24897 2.24897C2.68851 1.80943 3.28465 1.5625 3.90625 1.5625H8.59375C9.21535 1.5625 9.81149 1.80943 10.251 2.24897C10.6906 2.68851 10.9375 3.28465 10.9375 3.90625V8.59375C10.9375 9.21535 10.6906 9.81149 10.251 10.251C9.81149 10.6906 9.21535 10.9375 8.59375 10.9375H3.90625C3.28465 10.9375 2.68851 10.6906 2.24897 10.251C1.80943 9.81149 1.5625 9.21535 1.5625 8.59375V3.90625ZM3.90625 3.125C3.69905 3.125 3.50034 3.20731 3.35382 3.35382C3.20731 3.50034 3.125 3.69905 3.125 3.90625V8.59375C3.125 8.80095 3.20731 8.99966 3.35382 9.14618C3.50034 9.29269 3.69905 9.375 3.90625 9.375H8.59375C8.80095 9.375 8.99966 9.29269 9.14618 9.14618C9.29269 8.99966 9.375 8.80095 9.375 8.59375V3.90625C9.375 3.69905 9.29269 3.50034 9.14618 3.35382C8.99966 3.20731 8.80095 3.125 8.59375 3.125H3.90625ZM14.0625 3.90625C14.0625 3.28465 14.3094 2.68851 14.749 2.24897C15.1885 1.80943 15.7846 1.5625 16.4062 1.5625H21.0938C21.7154 1.5625 22.3115 1.80943 22.751 2.24897C23.1906 2.68851 23.4375 3.28465 23.4375 3.90625V8.59375C23.4375 9.21535 23.1906 9.81149 22.751 10.251C22.3115 10.6906 21.7154 10.9375 21.0938 10.9375H16.4062C15.7846 10.9375 15.1885 10.6906 14.749 10.251C14.3094 9.81149 14.0625 9.21535 14.0625 8.59375V3.90625ZM16.4062 3.125C16.199 3.125 16.0003 3.20731 15.8538 3.35382C15.7073 3.50034 15.625 3.69905 15.625 3.90625V8.59375C15.625 8.80095 15.7073 8.99966 15.8538 9.14618C16.0003 9.29269 16.199 9.375 16.4062 9.375H21.0938C21.301 9.375 21.4997 9.29269 21.6462 9.14618C21.7927 8.99966 21.875 8.80095 21.875 8.59375V3.90625C21.875 3.69905 21.7927 3.50034 21.6462 3.35382C21.4997 3.20731 21.301 3.125 21.0938 3.125H16.4062ZM1.5625 16.4062C1.5625 15.7846 1.80943 15.1885 2.24897 14.749C2.68851 14.3094 3.28465 14.0625 3.90625 14.0625H8.59375C9.21535 14.0625 9.81149 14.3094 10.251 14.749C10.6906 15.1885 10.9375 15.7846 10.9375 16.4062V21.0938C10.9375 21.7154 10.6906 22.3115 10.251 22.751C9.81149 23.1906 9.21535 23.4375 8.59375 23.4375H3.90625C3.28465 23.4375 2.68851 23.1906 2.24897 22.751C1.80943 22.3115 1.5625 21.7154 1.5625 21.0938V16.4062ZM3.90625 15.625C3.69905 15.625 3.50034 15.7073 3.35382 15.8538C3.20731 16.0003 3.125 16.199 3.125 16.4062V21.0938C3.125 21.301 3.20731 21.4997 3.35382 21.6462C3.50034 21.7927 3.69905 21.875 3.90625 21.875H8.59375C8.80095 21.875 8.99966 21.7927 9.14618 21.6462C9.29269 21.4997 9.375 21.301 9.375 21.0938V16.4062C9.375 16.199 9.29269 16.0003 9.14618 15.8538C8.99966 15.7073 8.80095 15.625 8.59375 15.625H3.90625ZM14.0625 16.4062C14.0625 15.7846 14.3094 15.1885 14.749 14.749C15.1885 14.3094 15.7846 14.0625 16.4062 14.0625H21.0938C21.7154 14.0625 22.3115 14.3094 22.751 14.749C23.1906 15.1885 23.4375 15.7846 23.4375 16.4062V21.0938C23.4375 21.7154 23.1906 22.3115 22.751 22.751C22.3115 23.1906 21.7154 23.4375 21.0938 23.4375H16.4062C15.7846 23.4375 15.1885 23.1906 14.749 22.751C14.3094 22.3115 14.0625 21.7154 14.0625 21.0938V16.4062ZM16.4062 15.625C16.199 15.625 16.0003 15.7073 15.8538 15.8538C15.7073 16.0003 15.625 16.199 15.625 16.4062V21.0938C15.625 21.301 15.7073 21.4997 15.8538 21.6462C16.0003 21.7927 16.199 21.875 16.4062 21.875H21.0938C21.301 21.875 21.4997 21.7927 21.6462 21.6462C21.7927 21.4997 21.875 21.301 21.875 21.0938V16.4062C21.875 16.199 21.7927 16.0003 21.6462 15.8538C21.4997 15.7073 21.301 15.625 21.0938 15.625H16.4062Z" fill="#9C4EDD"/>
</svg>
