<svg width="22" height="22" viewBox="0 0 22 22" fill="none" xmlns="http://www.w3.org/2000/svg">
<path d="M13.75 11.0037C13.75 11.8223 13.5988 12.6042 13.3274 13.3274C12.5847 13.6074 11.7974 13.7506 11.0037 13.75H10.9954C10.202 13.75 9.41513 13.6069 8.67258 13.3274C8.39276 12.5847 8.24959 11.7974 8.25 11.0037V10.9954C8.25 10.1768 8.40033 9.39583 8.67258 8.67258C9.41503 8.39277 10.202 8.2496 10.9954 8.25H11.0037C11.8223 8.25 12.606 8.40033 13.3274 8.6735C13.5997 9.39583 13.75 10.1777 13.75 10.9972V11.0037ZM21.8487 9.16667H15.4275L19.9632 4.62733C19.2504 3.62477 18.3751 2.7483 17.3736 2.03408L12.8324 6.57067V0.15125C12.2278 0.0523244 11.6163 0.00174752 11.0037 0L10.9945 0C10.3712 0 9.76067 0.0559167 9.16575 0.15125V6.5725L4.62825 2.03592C3.6246 2.74846 2.74769 3.62444 2.03408 4.62733L6.57067 9.16667H0.15125C0.15125 9.16667 0 10.373 0 10.9954V11.0037C0 11.627 0.0559167 12.2393 0.15125 12.8324H6.5725L2.03592 17.3717C2.74825 18.3756 3.62426 19.2525 4.62733 19.9659L9.16667 15.4284V21.8487C9.76999 21.948 10.3803 21.9986 10.9918 22H11.0073C11.6298 22 12.2393 21.945 12.8324 21.8487V15.4284L17.3717 19.9659C17.8741 19.6222 18.3434 19.2216 18.7733 18.7834H18.7779C19.2115 18.3572 19.6084 17.8888 19.9659 17.38L15.4284 12.8434H21.8487C21.945 12.2522 22 11.6481 22 11.0284V11C22 10.3785 21.945 9.76892 21.8487 9.17583" fill="#9747FF"/>
</svg>
