<svg width="18" height="18" viewBox="0 0 18 18" fill="none" xmlns="http://www.w3.org/2000/svg">
<path d="M10.2864 7.71306C9.60384 7.03075 8.67822 6.64746 7.71309 6.64746C6.74797 6.64746 5.82235 7.03075 5.13976 7.71306L2.56559 10.2864C1.88299 10.969 1.49951 11.8948 1.49951 12.8601C1.49951 13.8255 1.88299 14.7513 2.56559 15.4339C3.24819 16.1165 4.174 16.5 5.13934 16.5C6.10469 16.5 7.03049 16.1165 7.71309 15.4339L8.99976 14.1472" stroke="white" stroke-width="1.66667" stroke-linecap="round" stroke-linejoin="round"/>
<path d="M7.71289 10.2864C8.39548 10.9687 9.3211 11.352 10.2862 11.352C11.2513 11.352 12.177 10.9687 12.8596 10.2864L15.4337 7.71309C16.1163 7.03049 16.4998 6.10469 16.4998 5.13934C16.4998 4.174 16.1163 3.24819 15.4337 2.56559C14.7511 1.88299 13.8253 1.49951 12.86 1.49951C11.8946 1.49951 10.9688 1.88299 10.2862 2.56559L8.99956 3.85226" stroke="white" stroke-width="1.66667" stroke-linecap="round" stroke-linejoin="round"/>
</svg>
