<svg width="75" height="75" viewBox="0 0 75 75" fill="none" xmlns="http://www.w3.org/2000/svg">
<path d="M73.882 38.8941L70.232 35.2441C68.7413 33.7533 66.3169 33.7559 64.8261 35.2441L45.1146 54.9556L42.3982 64.9182L41.7335 65.5829C41.2366 66.0799 41.2353 66.8816 41.7258 67.3823L41.7194 67.408L41.7438 67.4016C41.9922 67.6462 42.315 67.7704 42.639 67.7704C42.9668 67.7704 43.2947 67.6449 43.5444 67.3952L44.2104 66.7292L54.1718 64.0128L73.882 44.3013C75.3728 42.8105 75.3728 40.3849 73.882 38.8941ZM48.0718 55.6215L61.1901 42.5032L66.6242 47.9372L53.5059 61.0556L48.0718 55.6215ZM46.9166 58.0882L51.0405 62.2121L45.3695 63.7579L46.9166 58.0882ZM72.0711 42.4903L68.4352 46.1263L63.0011 40.6935L66.637 37.0576C67.1301 36.5645 67.9306 36.5658 68.4223 37.0563L72.0724 40.7063C72.5629 41.1968 72.5629 41.9986 72.0711 42.4903Z" fill="#DBA6FF"/>
<path d="M37.1408 57.1789H4.9679C10.7926 52.5632 23.9238 42.0908 30.6706 36.1713L32.4905 37.7786C33.7725 38.9235 35.4579 39.496 37.142 39.496C38.8236 39.496 40.5065 38.9248 41.7846 37.7837L71.7201 11.351V31.5633C71.7201 32.2715 72.2938 32.844 73.0008 32.844C73.7078 32.844 74.2815 32.2715 74.2815 31.5633V8.51039C74.2815 8.50015 74.2764 8.49246 74.2751 8.48222C74.2726 8.34006 74.2508 8.19662 74.1983 8.0583C74.1944 8.04933 74.188 8.04293 74.1842 8.03397C74.1701 7.99939 74.147 7.97249 74.1317 7.94047C74.0792 7.83674 74.0164 7.74068 73.9396 7.65616C73.9063 7.62029 73.8717 7.58956 73.8345 7.55754C73.7551 7.4871 73.6681 7.42947 73.5733 7.38208C73.531 7.36031 73.4926 7.33854 73.4491 7.32189C73.3082 7.2681 73.1596 7.23096 73.0008 7.23096H1.28072C1.12191 7.23096 0.973344 7.2681 0.831185 7.32189C0.786359 7.33854 0.747938 7.36031 0.706955 7.38208C0.612182 7.43075 0.525093 7.48838 0.445689 7.55754C0.408548 7.59084 0.373969 7.62029 0.34067 7.65616C0.263827 7.74068 0.202353 7.83545 0.148563 7.94047C0.133194 7.97377 0.110142 8.00067 0.0960537 8.03397C0.0922115 8.04293 0.085808 8.04933 0.0819658 8.0583C0.0307372 8.19662 0.00896501 8.34006 0.00640358 8.48222C0.00512286 8.49246 0 8.50143 0 8.51167V58.4596C0 58.4634 0.00256143 58.466 0.00256143 58.4711C0.00384215 58.6082 0.0243336 58.7452 0.0704394 58.8797C0.0755622 58.895 0.0870887 58.9066 0.0934923 58.9219C0.111422 58.9668 0.138317 59.0052 0.160089 59.0474C0.208757 59.1409 0.265108 59.228 0.334267 59.3049C0.370127 59.3446 0.405987 59.3791 0.445689 59.4137C0.523813 59.4816 0.60834 59.538 0.700552 59.5853C0.744096 59.6084 0.783798 59.6327 0.829904 59.6507C0.972063 59.7032 1.12191 59.7403 1.28072 59.7403H37.1408C37.8477 59.7403 38.4215 59.1678 38.4215 58.4596C38.4215 57.7514 37.8477 57.1789 37.1408 57.1789ZM2.56143 55.8162V11.351L28.7354 34.4628C21.6198 40.6794 7.79444 51.6756 2.56143 55.8162ZM69.6159 9.79239L40.0851 35.8678C38.4625 37.3175 35.8203 37.3175 34.1913 35.8626L31.6567 33.6252C31.649 33.6163 31.6478 33.606 31.6401 33.5983C31.6119 33.5663 31.5722 33.5535 31.5415 33.5253L4.66565 9.79239H69.6159Z" fill="#7F31C3"/>
</svg>
