<svg width="75" height="75" viewBox="0 0 75 75" fill="none" xmlns="http://www.w3.org/2000/svg">
<path d="M59.2735 46.4596C57.7381 44.8608 55.8861 44.006 53.9232 44.006C51.9762 44.006 50.1084 44.845 48.5096 46.4437L43.5076 51.4299C43.096 51.2083 42.6845 51.0026 42.2887 50.7968C41.7189 50.5118 41.1807 50.2427 40.7216 49.9578C36.0362 46.9819 31.7781 43.1038 27.6942 38.0859C25.7155 35.5849 24.3858 33.4796 23.4203 31.3426C24.7183 30.1554 25.9213 28.9207 27.0926 27.7335C27.5359 27.2903 27.9791 26.8313 28.4223 26.3881C31.7464 23.0639 31.7464 18.7583 28.4223 15.4342L24.1009 11.1128C23.6102 10.6221 23.1037 10.1156 22.6288 9.60904C21.679 8.62762 20.6818 7.61455 19.6529 6.66479C18.1174 5.14518 16.2813 4.33789 14.3501 4.33789C12.4189 4.33789 10.5511 5.14518 8.96814 6.66479C8.95231 6.68062 8.95231 6.68062 8.93648 6.69645L3.55453 12.1259C1.52838 14.152 0.372847 16.6214 0.119578 19.4865C-0.260324 24.1086 1.10099 28.4142 2.14572 31.2318C4.71006 38.1492 8.54075 44.56 14.2551 51.4299C21.1883 59.7086 29.5303 66.2461 39.0596 70.8524C42.7003 72.5778 47.5599 74.6198 52.9893 74.9681C53.3217 74.9839 53.67 74.9997 53.9866 74.9997C57.6431 74.9997 60.714 73.6859 63.12 71.0741C63.1359 71.0424 63.1675 71.0266 63.1834 70.9949C64.0065 69.9977 64.9562 69.0954 65.9535 68.1298C66.6341 67.4808 67.3306 66.8002 68.0113 66.0878C69.5784 64.4574 70.4015 62.5579 70.4015 60.6109C70.4015 58.6481 69.5626 56.7644 67.9638 55.1815L59.2735 46.4596ZM64.9404 63.1278C64.9246 63.1278 64.9246 63.1436 64.9404 63.1278C64.3231 63.7926 63.6899 64.3941 63.0092 65.0589C61.9803 66.0404 60.9356 67.0693 59.9542 68.2248C58.3554 69.9344 56.4718 70.7416 54.0024 70.7416C53.7649 70.7416 53.5117 70.7416 53.2742 70.7258C48.5729 70.4251 44.2041 68.5889 40.9274 67.0218C31.9681 62.6846 24.1009 56.527 17.5634 48.7231C12.1656 42.2173 8.55658 36.2022 6.16636 29.7439C4.69424 25.8024 4.15604 22.7315 4.39348 19.8347C4.55177 17.9827 5.26409 16.4473 6.57792 15.1334L11.9757 9.73567C12.7513 9.00752 13.5745 8.61179 14.3817 8.61179C15.379 8.61179 16.1863 9.2133 16.6928 9.71984C16.7086 9.73567 16.7245 9.7515 16.7403 9.76733C17.7059 10.6696 18.624 11.6035 19.5896 12.6008C20.0803 13.1073 20.5868 13.6138 21.0934 14.1362L25.4147 18.4576C27.0926 20.1355 27.0926 21.6868 25.4147 23.3647C24.9557 23.8237 24.5125 24.2828 24.0534 24.726C22.7238 26.0873 21.4574 27.3536 20.0803 28.5883C20.0486 28.62 20.017 28.6358 20.0011 28.6675C18.6398 30.0288 18.8931 31.3584 19.178 32.2607C19.1938 32.3082 19.2097 32.3557 19.2255 32.4032C20.3494 35.1258 21.9323 37.6901 24.3383 40.7452L24.3542 40.761C28.7231 46.143 33.3294 50.3377 38.4106 53.5511C39.0596 53.9626 39.7244 54.295 40.3576 54.6116C40.9274 54.8966 41.4656 55.1656 41.9247 55.4506C41.988 55.4822 42.0513 55.5297 42.1146 55.5614C42.6528 55.8305 43.1593 55.9571 43.6817 55.9571C44.9955 55.9571 45.8187 55.134 46.0878 54.8649L51.5014 49.4513C52.0396 48.9131 52.8943 48.2641 53.8916 48.2641C54.873 48.2641 55.6803 48.8814 56.171 49.4196C56.1868 49.4355 56.1868 49.4355 56.2027 49.4513L64.9246 58.1732C66.555 59.7878 66.555 61.4499 64.9404 63.1278Z" fill="#7F31C3"/>
<path d="M40.5317 17.8408C44.679 18.5372 48.4463 20.5001 51.4539 23.5076C54.4614 26.5152 56.4084 30.2826 57.1207 34.4298C57.2949 35.4746 58.1971 36.2027 59.226 36.2027C59.3527 36.2027 59.4635 36.1869 59.5901 36.171C60.7615 35.9811 61.5371 34.873 61.3472 33.7017C60.4924 28.6838 58.118 24.1091 54.4931 20.4842C50.8682 16.8593 46.2935 14.485 41.2757 13.6302C40.1043 13.4402 39.0121 14.2159 38.8063 15.3714C38.6005 16.5269 39.3603 17.6508 40.5317 17.8408Z" fill="#DBA6FF"/>
<path d="M74.913 33.0841C73.5042 24.8212 69.6102 17.3023 63.6268 11.3188C57.6433 5.33538 50.1244 1.44138 41.8615 0.032579C40.706 -0.173201 39.6138 0.618262 39.408 1.7738C39.218 2.94516 39.9937 4.03738 41.165 4.24316C48.5415 5.49367 55.2689 8.99194 60.6192 14.3264C65.9695 19.6767 69.4519 26.4041 70.7024 33.7806C70.8766 34.8253 71.7788 35.5534 72.8077 35.5534C72.9344 35.5534 73.0452 35.5376 73.1718 35.5218C74.3274 35.3477 75.1188 34.2396 74.913 33.0841Z" fill="#7F31C3"/>
</svg>
