<svg width="35" height="35" viewBox="0 0 35 35" fill="none" xmlns="http://www.w3.org/2000/svg">
<path d="M28.4375 4.375H6.5625C5.98234 4.375 5.42594 4.60547 5.0157 5.0157C4.60547 5.42594 4.375 5.98234 4.375 6.5625V28.4375C4.375 29.0177 4.60547 29.5741 5.0157 29.9843C5.42594 30.3945 5.98234 30.625 6.5625 30.625H28.4375C29.0177 30.625 29.5741 30.3945 29.9843 29.9843C30.3945 29.5741 30.625 29.0177 30.625 28.4375V6.5625C30.625 5.98234 30.3945 5.42594 29.9843 5.0157C29.5741 4.60547 29.0177 4.375 28.4375 4.375ZM15.3125 23.5156L9.84375 18.0939L11.5828 16.4062L15.3125 20.0659L23.4161 12.0312L25.1562 13.7561L15.3125 23.5156Z" fill="#BBBBBB"/>
</svg>
