<svg width="38" height="38" viewBox="0 0 38 38" fill="none" xmlns="http://www.w3.org/2000/svg">
<g clip-path="url(#clip0_1804_6583)">
<path d="M11.4001 17.7333H10.1334V20.2667H11.4001V17.7333ZM26.6001 20.2667H27.8668V17.7333H26.6001V20.2667ZM21.5335 25.3333H20.2668V27.8667H21.5335V25.3333ZM26.6001 27.8667H27.8668V25.3333H26.6001V27.8667ZM11.4001 10.1333H10.1334V12.6667H11.4001V10.1333ZM16.4668 12.6667H17.7334V10.1333H16.4668V12.6667ZM26.6001 1.26667L27.4969 0.369867L27.1245 0H26.6001V1.26667ZM34.2001 8.86667H35.4668V8.34227L35.0969 7.96987L34.2001 8.86667ZM11.4001 20.2667H26.6001V17.7333H11.4001V20.2667ZM21.5335 27.8667H26.6001V25.3333H21.5335V27.8667ZM11.4001 12.6667H16.4668V10.1333H11.4001V12.6667ZM31.6668 35.4667H6.33345V38H31.6668V35.4667ZM5.06678 34.2V3.8H2.53345V34.2H5.06678ZM6.33345 2.53333H26.6001V0H6.33345V2.53333ZM32.9335 8.86667V34.2H35.4668V8.86667H32.9335ZM25.7033 2.16347L33.3033 9.76347L35.0969 7.96987L27.4969 0.369867L25.7033 2.16347ZM6.33345 35.4667C5.99751 35.4667 5.67533 35.3332 5.43778 35.0957C5.20023 34.8581 5.06678 34.5359 5.06678 34.2H2.53345C2.53345 35.2078 2.9338 36.1744 3.64644 36.887C4.35908 37.5996 5.32563 38 6.33345 38V35.4667ZM31.6668 38C32.6746 38 33.6412 37.5996 34.3538 36.887C35.0664 36.1744 35.4668 35.2078 35.4668 34.2H32.9335C32.9335 34.5359 32.8 34.8581 32.5625 35.0957C32.3249 35.3332 32.0027 35.4667 31.6668 35.4667V38ZM5.06678 3.8C5.06678 3.46406 5.20023 3.14188 5.43778 2.90433C5.67533 2.66679 5.99751 2.53333 6.33345 2.53333V0C5.32563 0 4.35908 0.400356 3.64644 1.11299C2.9338 1.82563 2.53345 2.79218 2.53345 3.8H5.06678Z" fill="#BBBBBB"/>
</g>
<defs>
<clipPath id="clip0_1804_6583">
<rect width="38" height="38" fill="white"/>
</clipPath>
</defs>
</svg>
