<svg width="40" height="40" viewBox="0 0 40 40" fill="none" xmlns="http://www.w3.org/2000/svg">
<path d="M36.9141 16.0938H26.9141C26.7422 16.0938 26.6016 16.2344 26.6016 16.4062V18.2812C26.6016 18.4531 26.7422 18.5938 26.9141 18.5938H36.9141C37.0859 18.5938 37.2266 18.4531 37.2266 18.2812V16.4062C37.2266 16.2344 37.0859 16.0938 36.9141 16.0938ZM31.6797 21.4062H26.9141C26.7422 21.4062 26.6016 21.5469 26.6016 21.7188V23.5938C26.6016 23.7656 26.7422 23.9062 26.9141 23.9062H31.6797C31.8516 23.9062 31.9922 23.7656 31.9922 23.5938V21.7188C31.9922 21.5469 31.8516 21.4062 31.6797 21.4062ZM18.6445 12.5977H16.9531C16.7109 12.5977 16.5156 12.793 16.5156 13.0352V22.7227C16.5156 22.8633 16.582 22.9922 16.6953 23.0742L22.5117 27.3164C22.707 27.457 22.9805 27.418 23.1211 27.2227L24.125 25.8516V25.8477C24.2656 25.6523 24.2227 25.3789 24.0273 25.2383L19.0781 21.6602V13.0352C19.082 12.793 18.8828 12.5977 18.6445 12.5977V12.5977Z" fill="#9747FF"/>
<path d="M31.4375 26.3244H29.1797C28.961 26.3244 28.7539 26.4377 28.6367 26.6252C28.1407 27.4104 27.5625 28.1369 26.8985 28.801C25.7539 29.9455 24.4219 30.844 22.9414 31.469C21.4063 32.1174 19.7774 32.4455 18.0977 32.4455C16.4141 32.4455 14.7852 32.1174 13.2539 31.469C11.7735 30.844 10.4414 29.9455 9.2969 28.801C8.15237 27.6565 7.25393 26.3244 6.62893 24.844C5.9805 23.3127 5.65237 21.6838 5.65237 20.0002C5.65237 18.3166 5.9805 16.6916 6.62893 15.1565C7.25393 13.676 8.15237 12.344 9.2969 11.1994C10.4414 10.0549 11.7735 9.15646 13.2539 8.53146C14.7852 7.88303 16.418 7.5549 18.0977 7.5549C19.7813 7.5549 21.4102 7.88303 22.9414 8.53146C24.4219 9.15646 25.7539 10.0549 26.8985 11.1994C27.5625 11.8635 28.1407 12.5901 28.6367 13.3752C28.7539 13.5627 28.961 13.676 29.1797 13.676H31.4375C31.7071 13.676 31.8789 13.3947 31.7578 13.1565C29.211 8.09006 24.0469 4.79709 18.2813 4.73068C9.83987 4.62521 2.82815 11.5354 2.81253 19.969C2.7969 28.4182 9.64456 35.2737 18.0938 35.2737C23.9336 35.2737 29.1836 31.969 31.7578 26.844C31.8789 26.6057 31.7032 26.3244 31.4375 26.3244V26.3244Z" fill="#9747FF"/>
</svg>
