<svg width="28" height="27" viewBox="0 0 28 27" fill="none" xmlns="http://www.w3.org/2000/svg">
<path d="M14 0C11.2311 0 8.52431 0.791761 6.22202 2.27516C3.91973 3.75856 2.12532 5.86697 1.06569 8.33377C0.00606593 10.8006 -0.271181 13.515 0.269012 16.1337C0.809205 18.7525 2.14258 21.1579 4.10051 23.0459C6.05845 24.9339 8.55301 26.2197 11.2687 26.7406C13.9845 27.2615 16.7994 26.9942 19.3576 25.9724C21.9157 24.9506 24.1022 23.2203 25.6406 21.0002C27.1789 18.7801 28 16.17 28 13.5C28 9.91958 26.525 6.4858 23.8995 3.95406C21.274 1.42232 17.713 0 14 0V0ZM23.7563 15.1875H4.24376C4.14608 15.1875 4.04937 15.1689 3.95913 15.1329C3.8689 15.0969 3.78691 15.044 3.71784 14.9774C3.64878 14.9108 3.594 14.8318 3.55662 14.7448C3.51924 14.6578 3.50001 14.5645 3.50001 14.4703V12.5297C3.50001 12.3395 3.57836 12.1571 3.71784 12.0226C3.85732 11.8881 4.0465 11.8125 4.24376 11.8125H23.7563C23.9535 11.8125 24.1427 11.8881 24.2822 12.0226C24.4216 12.1571 24.5 12.3395 24.5 12.5297V14.4619C24.5012 14.5568 24.4828 14.6509 24.4459 14.7389C24.4091 14.8269 24.3545 14.907 24.2853 14.9745C24.2161 15.042 24.1337 15.0955 24.0429 15.1321C23.9521 15.1687 23.8547 15.1875 23.7563 15.1875Z" fill="#9C4EDD"/>
</svg>
