<svg width="44" height="44" viewBox="0 0 44 44" fill="none" xmlns="http://www.w3.org/2000/svg">
<g clip-path="url(#clip0_1804_4710)">
<path d="M22 2.75C11.3695 2.75 2.75 11.3695 2.75 22C2.75 32.6305 11.3695 41.25 22 41.25C32.6305 41.25 41.25 32.6305 41.25 22C41.25 11.3695 32.6305 2.75 22 2.75ZM22 37.9844C13.1742 37.9844 6.01562 30.8258 6.01562 22C6.01562 13.1742 13.1742 6.01562 22 6.01562C30.8258 6.01562 37.9844 13.1742 37.9844 22C37.9844 30.8258 30.8258 37.9844 22 37.9844ZM24.0496 21.0031L22.9582 20.7496V14.9789C24.591 15.2023 25.6008 16.225 25.7727 17.4797C25.7941 17.6516 25.9402 17.7762 26.1121 17.7762H28.0414C28.2434 17.7762 28.4023 17.6 28.3852 17.398C28.123 14.7211 25.9188 13.0023 22.9754 12.7059V11.3008C22.9754 11.1117 22.8207 10.957 22.6316 10.957H21.4242C21.2352 10.957 21.0805 11.1117 21.0805 11.3008V12.7188C18.0383 13.0152 15.6578 14.6953 15.6578 17.832C15.6578 20.7367 17.7977 22.1375 20.0449 22.6746L21.1063 22.9453V29.077C19.207 28.8234 18.1414 27.8094 17.9223 26.443C17.8965 26.2797 17.7504 26.1594 17.5828 26.1594H15.5977C15.3957 26.1594 15.2367 26.3312 15.2539 26.5332C15.4473 28.8965 17.2391 31.0707 21.0633 31.35V32.6992C21.0633 32.8883 21.218 33.043 21.407 33.043H22.6273C22.8164 33.043 22.9711 32.8883 22.9711 32.6949L22.9625 31.3328C26.327 31.0363 28.7332 29.2359 28.7332 26.0047C28.7289 23.0227 26.834 21.6906 24.0496 21.0031ZM21.102 20.307C20.8613 20.2383 20.6594 20.1738 20.4574 20.0922C19.0051 19.568 18.3305 18.7215 18.3305 17.6301C18.3305 16.0703 19.5121 15.1809 21.102 14.9789V20.307ZM22.9582 29.0898V23.3449C23.0914 23.3836 23.2117 23.4137 23.3363 23.4395C25.3687 24.0582 26.052 24.9176 26.052 26.2367C26.052 27.9168 24.7887 28.9266 22.9582 29.0898Z" fill="#BBBBBB"/>
</g>
<defs>
<clipPath id="clip0_1804_4710">
<rect width="44" height="44" rx="20" fill="white"/>
</clipPath>
</defs>
</svg>
