<svg width="34" height="34" viewBox="0 0 34 34" fill="none" xmlns="http://www.w3.org/2000/svg">
<path fill-rule="evenodd" clip-rule="evenodd" d="M16.9993 1.41602C8.3931 1.41602 1.41602 8.3931 1.41602 16.9993C1.41602 25.6056 8.3931 32.5827 16.9993 32.5827C25.6056 32.5827 32.5827 25.6056 32.5827 16.9993C32.5827 8.3931 25.6056 1.41602 16.9993 1.41602ZM12.3343 13.8728C12.0671 13.6147 11.7092 13.4719 11.3378 13.4751C10.9663 13.4784 10.611 13.6274 10.3484 13.89C10.0857 14.1527 9.9367 14.508 9.93348 14.8794C9.93025 15.2509 10.073 15.6087 10.3311 15.8759L15.9978 21.5426C16.2634 21.8082 16.6237 21.9574 16.9993 21.9574C17.375 21.9574 17.7353 21.8082 18.0009 21.5426L23.6676 15.8759C23.9257 15.6087 24.0684 15.2509 24.0652 14.8794C24.062 14.508 23.913 14.1527 23.6503 13.89C23.3877 13.6274 23.0324 13.4784 22.6609 13.4751C22.2895 13.4719 21.9316 13.6147 21.6644 13.8728L16.9993 18.5378L12.3343 13.8728Z" fill="#BBBBBB"/>
</svg>
