<svg width="28" height="28" viewBox="0 0 28 28" fill="none" xmlns="http://www.w3.org/2000/svg">
<path d="M16.4804 21.002L16.7504 21C17.9704 21 18.6104 21.506 19.4024 22.704L19.7954 23.312C20.1024 23.767 20.2944 23.957 20.5354 24.057C20.9684 24.235 21.3274 24.147 22.6444 23.513L23.0474 23.317C23.8714 22.913 24.4334 22.681 25.0674 22.522C25.163 22.4981 25.2623 22.4933 25.3598 22.5078C25.4573 22.5223 25.5509 22.5558 25.6354 22.6065C25.7199 22.6572 25.7936 22.7241 25.8523 22.8033C25.911 22.8825 25.9535 22.9724 25.9774 23.068C26.0013 23.1636 26.0061 23.263 25.9916 23.3605C25.9771 23.4579 25.9435 23.5516 25.8928 23.6361C25.8421 23.7206 25.7753 23.7943 25.6961 23.8529C25.6169 23.9116 25.527 23.9541 25.4314 23.978C25.0374 24.076 24.6584 24.218 24.1644 24.446L23.0054 25.003C21.4374 25.743 20.9054 25.832 19.9644 25.443C19.3394 25.186 18.9844 24.813 18.4644 24.018L18.2694 23.714C17.6674 22.766 17.3644 22.5 16.7494 22.5L16.5914 22.504C16.1584 22.53 15.8774 22.728 14.0094 24.114C12.2674 25.408 10.9384 26.025 9.24935 26.025C7.18935 26.025 5.24735 25.647 3.43135 24.89L6.31335 24.224C7.25735 24.424 8.23535 24.525 9.24835 24.525C10.5384 24.525 11.6084 24.028 13.1154 22.91L14.2754 22.054C15.5464 21.13 15.8294 21.016 16.4804 21.002ZM22.7774 3.22201C23.5807 4.02574 24.032 5.11562 24.032 6.25201C24.032 7.38841 23.5807 8.47829 22.7774 9.28201L21.7414 10.318C22.8934 11.72 22.8514 13.205 21.7814 14.279L18.7804 17.281C18.6395 17.4216 18.4486 17.5004 18.2496 17.5003C18.0507 17.5001 17.8599 17.4208 17.7194 17.28C17.5788 17.1392 17.4999 16.9483 17.5001 16.7493C17.5003 16.5503 17.5795 16.3596 17.7204 16.219L20.7184 13.22C21.2044 12.734 21.2604 12.13 20.6784 11.382L10.0854 21.976C9.78714 22.274 9.41118 22.4823 9.00035 22.577L2.92035 23.981C2.79631 24.0098 2.66699 24.0065 2.54458 23.9714C2.42216 23.9364 2.31068 23.8708 2.22065 23.7807C2.13061 23.6907 2.06498 23.5792 2.02994 23.4568C1.99489 23.3344 1.9916 23.2051 2.02035 23.081L3.42335 17.001C3.5179 16.5898 3.72616 16.2135 4.02435 15.915L16.7164 3.22201C17.1143 2.8241 17.5866 2.50846 18.1065 2.29311C18.6264 2.07776 19.1836 1.96692 19.7464 1.96692C20.3091 1.96692 20.8663 2.07776 21.3862 2.29311C21.9061 2.50846 22.3785 2.8241 22.7764 3.22201H22.7774Z" fill="#BBBBBB"/>
</svg>
