<svg width="40" height="40" viewBox="0 0 40 40" fill="none" xmlns="http://www.w3.org/2000/svg">
<path d="M14.5117 32.8454L30 17.357L22.6433 10.0004L7.155 25.4887C6.94177 25.7022 6.79031 25.9694 6.71667 26.262L5 35.0004L13.7367 33.2837C14.03 33.2104 14.2983 33.0587 14.5117 32.8454V32.8454ZM35 12.357C35.6249 11.7319 35.976 10.8842 35.976 10.0004C35.976 9.11649 35.6249 8.26879 35 7.6437L32.3567 5.00037C31.7316 4.37547 30.8839 4.02441 30 4.02441C29.1161 4.02441 28.2684 4.37547 27.6433 5.00037L25 7.6437L32.3567 15.0004L35 12.357Z" fill="#9747FF"/>
</svg>
