<svg width="40" height="40" viewBox="0 0 40 40" fill="none" xmlns="http://www.w3.org/2000/svg">
<path d="M34.9224 18.0469C36.1295 18.0469 36.6334 16.4961 35.6529 15.7812L20.7349 4.92969C20.5219 4.7736 20.2647 4.68945 20.0006 4.68945C19.7365 4.68945 19.4792 4.7736 19.2662 4.92969L4.34822 15.7812C3.36776 16.4922 3.87166 18.0469 5.0826 18.0469H7.50057V32.6563H4.68807C4.51619 32.6563 4.37557 32.7969 4.37557 32.9688V35C4.37557 35.1719 4.51619 35.3125 4.68807 35.3125H35.3131C35.4849 35.3125 35.6256 35.1719 35.6256 35V32.9688C35.6256 32.7969 35.4849 32.6563 35.3131 32.6563H32.5006V18.0469H34.9224ZM14.8834 32.6563H10.3131V18.0469H14.8834V32.6563ZM22.2662 32.6563H17.6959V18.0469H22.2662V32.6563ZM29.6881 32.6563H25.0787V18.0469H29.6881V32.6563Z" fill="#9747FF"/>
</svg>
