<svg width="40" height="40" viewBox="0 0 40 40" fill="none" xmlns="http://www.w3.org/2000/svg">
<path d="M33.8633 6.63672L20.5898 2.11328C20.4297 2.05859 20.2148 2.03125 20 2.03125C19.7852 2.03125 19.5703 2.05859 19.4102 2.11328L6.13672 6.63672C5.8125 6.74609 5.54688 7.12109 5.54688 7.46484V26.3086C5.54688 26.6523 5.76953 27.1055 6.03906 27.3203L19.5039 37.8125C19.6406 37.918 19.8164 37.9727 19.9961 37.9727C20.1758 37.9727 20.3555 37.918 20.4883 37.8125L33.9531 27.3203C34.2227 27.1094 34.4453 26.6562 34.4453 26.3086V7.46484C34.4531 7.12109 34.1875 6.75 33.8633 6.63672V6.63672ZM27.1289 13.3086L18.8242 24.7422C18.7658 24.8221 18.6894 24.8871 18.6012 24.9319C18.5129 24.9767 18.4154 25.0001 18.3164 25.0001C18.2174 25.0001 18.1199 24.9767 18.0316 24.9319C17.9434 24.8871 17.867 24.8221 17.8086 24.7422L12.8711 17.9453C12.7227 17.7383 12.8711 17.4492 13.125 17.4492H15.2813C15.4805 17.4492 15.6719 17.5469 15.7891 17.707L18.3164 21.1836L24.2109 13.0664C24.3281 12.9063 24.5156 12.8086 24.7187 12.8086H26.875C27.1289 12.8125 27.2773 13.1016 27.1289 13.3086V13.3086Z" fill="#9747FF"/>
</svg>
