<svg width="40" height="40" viewBox="0 0 40 40" fill="none" xmlns="http://www.w3.org/2000/svg">
<path d="M8.75015 28.75C7.18434 28.7497 5.64731 28.3292 4.29939 27.5324C2.95147 26.7356 1.84205 25.5917 1.08687 24.2201C0.331694 22.8484 -0.0415792 21.2992 0.00599341 19.7342C0.0535661 18.1691 0.520242 16.6454 1.35734 15.3222C2.19443 13.9989 3.37128 12.9245 4.7651 12.2111C6.15892 11.4976 7.71866 11.1713 9.28159 11.266C10.8445 11.3608 12.3534 11.8733 13.6508 12.7499C14.9482 13.6266 15.9866 14.8353 16.6576 16.25H35.0001L38.7501 20L35.0001 23.75L32.5001 21.25L30.0001 23.75L27.5001 21.25L25.0001 23.75L22.5001 21.25L20.0001 23.75H16.6576C15.9479 25.2463 14.828 26.5105 13.4283 27.3956C12.0285 28.2807 10.4063 28.7503 8.75015 28.75V28.75ZM6.25015 22.5C6.91319 22.5 7.54907 22.2366 8.01792 21.7678C8.48676 21.2989 8.75015 20.663 8.75015 20C8.75015 19.337 8.48676 18.7011 8.01792 18.2322C7.54907 17.7634 6.91319 17.5 6.25015 17.5C5.58711 17.5 4.95122 17.7634 4.48238 18.2322C4.01354 18.7011 3.75015 19.337 3.75015 20C3.75015 20.663 4.01354 21.2989 4.48238 21.7678C4.95122 22.2366 5.58711 22.5 6.25015 22.5V22.5Z" fill="#9747FF"/>
</svg>
