<svg width="34" height="34" viewBox="0 0 34 34" fill="none" xmlns="http://www.w3.org/2000/svg">
<path d="M9.5625 8.5C10.1493 8.5 10.625 8.0243 10.625 7.4375C10.625 6.8507 10.1493 6.375 9.5625 6.375C8.9757 6.375 8.5 6.8507 8.5 7.4375C8.5 8.0243 8.9757 8.5 9.5625 8.5Z" fill="#999999"/>
<path d="M28.6875 23.375V19.125C28.6875 18.5614 28.4636 18.0209 28.0651 17.6224C27.6666 17.2239 27.1261 17 26.5625 17H18.0625V12.75H27.625C28.1886 12.75 28.7291 12.5261 29.1276 12.1276C29.5261 11.7291 29.75 11.1886 29.75 10.625V4.25C29.75 3.68641 29.5261 3.14591 29.1276 2.7474C28.7291 2.34888 28.1886 2.125 27.625 2.125H6.375C5.81141 2.125 5.27091 2.34888 4.8724 2.7474C4.47388 3.14591 4.25 3.68641 4.25 4.25V10.625C4.25 11.1886 4.47388 11.7291 4.8724 12.1276C5.27091 12.5261 5.81141 12.75 6.375 12.75H15.9375V17H7.4375C6.87391 17 6.33341 17.2239 5.9349 17.6224C5.53638 18.0209 5.3125 18.5614 5.3125 19.125V23.375H2.125V31.875H10.625V23.375H7.4375V19.125H15.9375V23.375H12.75V31.875H21.25V23.375H18.0625V19.125H26.5625V23.375H23.375V31.875H31.875V23.375H28.6875ZM8.5 29.75H4.25V25.5H8.5V29.75ZM19.125 25.5V29.75H14.875V25.5H19.125ZM6.375 10.625V4.25H27.625V10.625H6.375ZM29.75 29.75H25.5V25.5H29.75V29.75Z" fill="#999999"/>
</svg>
