<svg width="34" height="34" viewBox="0 0 34 34" fill="none" xmlns="http://www.w3.org/2000/svg">
<path fill-rule="evenodd" clip-rule="evenodd" d="M4.25 26.5625C4.25 26.2807 4.36194 26.0105 4.5612 25.8112C4.76046 25.6119 5.03071 25.5 5.3125 25.5H20.1875C20.4693 25.5 20.7395 25.6119 20.9388 25.8112C21.1381 26.0105 21.25 26.2807 21.25 26.5625C21.25 26.8443 21.1381 27.1145 20.9388 27.3138C20.7395 27.5131 20.4693 27.625 20.1875 27.625H5.3125C5.03071 27.625 4.76046 27.5131 4.5612 27.3138C4.36194 27.1145 4.25 26.8443 4.25 26.5625ZM4.25 20.1875C4.25 19.9057 4.36194 19.6355 4.5612 19.4362C4.76046 19.2369 5.03071 19.125 5.3125 19.125H28.6875C28.9693 19.125 29.2395 19.2369 29.4388 19.4362C29.6381 19.6355 29.75 19.9057 29.75 20.1875C29.75 20.4693 29.6381 20.7395 29.4388 20.9388C29.2395 21.1381 28.9693 21.25 28.6875 21.25H5.3125C5.03071 21.25 4.76046 21.1381 4.5612 20.9388C4.36194 20.7395 4.25 20.4693 4.25 20.1875ZM4.25 13.8125C4.25 13.5307 4.36194 13.2605 4.5612 13.0612C4.76046 12.8619 5.03071 12.75 5.3125 12.75H28.6875C28.9693 12.75 29.2395 12.8619 29.4388 13.0612C29.6381 13.2605 29.75 13.5307 29.75 13.8125C29.75 14.0943 29.6381 14.3645 29.4388 14.5638C29.2395 14.7631 28.9693 14.875 28.6875 14.875H5.3125C5.03071 14.875 4.76046 14.7631 4.5612 14.5638C4.36194 14.3645 4.25 14.0943 4.25 13.8125ZM12.75 7.4375C12.75 7.15571 12.8619 6.88546 13.0612 6.6862C13.2605 6.48694 13.5307 6.375 13.8125 6.375H28.6875C28.9693 6.375 29.2395 6.48694 29.4388 6.6862C29.6381 6.88546 29.75 7.15571 29.75 7.4375C29.75 7.71929 29.6381 7.98954 29.4388 8.1888C29.2395 8.38806 28.9693 8.5 28.6875 8.5H13.8125C13.5307 8.5 13.2605 8.38806 13.0612 8.1888C12.8619 7.98954 12.75 7.71929 12.75 7.4375Z" fill="#BBBBBB"/>
</svg>
