<svg width="44" height="44" viewBox="0 0 44 44" fill="none" xmlns="http://www.w3.org/2000/svg">
<path d="M13.75 17.1875C13.75 17.7345 13.5327 18.2591 13.1459 18.6459C12.7591 19.0327 12.2345 19.25 11.6875 19.25C11.1405 19.25 10.6159 19.0327 10.2291 18.6459C9.8423 18.2591 9.625 17.7345 9.625 17.1875C9.625 16.6405 9.8423 16.1159 10.2291 15.7291C10.6159 15.3423 11.1405 15.125 11.6875 15.125C12.2345 15.125 12.7591 15.3423 13.1459 15.7291C13.5327 16.1159 13.75 16.6405 13.75 17.1875ZM16.8795 13.0735C18.5125 12.6074 20.2028 12.3723 21.901 12.375C23.7325 12.375 25.4843 12.6418 27.1068 13.1258C27.4535 13.2214 27.8239 13.1774 28.1385 13.0031C28.4532 12.8289 28.687 12.5383 28.7899 12.1936C28.8928 11.849 28.8565 11.4777 28.6889 11.1595C28.5213 10.8413 28.2357 10.6014 27.8932 10.4913C25.9485 9.91329 23.9299 9.62148 21.901 9.62503C19.8825 9.62503 17.9382 9.90828 16.1205 10.428C15.7697 10.5287 15.4732 10.7646 15.2963 11.0838C15.1194 11.403 15.0766 11.7795 15.1772 12.1303C15.2779 12.4811 15.5138 12.7776 15.833 12.9545C16.1523 13.1313 16.5287 13.1742 16.8795 13.0735Z" fill="#BBBBBB"/>
<path fill-rule="evenodd" clip-rule="evenodd" d="M21.901 4.19922C13.7142 4.19922 6.58071 8.88522 4.52096 15.543H3.00846C2.60754 15.5434 2.21156 15.6315 1.84827 15.8011C1.48498 15.9707 1.16316 16.2176 0.905362 16.5247C0.647565 16.8317 0.460024 17.1915 0.355878 17.5786C0.251732 17.9658 0.233499 18.371 0.302458 18.766L1.00096 22.781C1.16742 23.7382 1.66639 24.6059 2.40994 25.2312C3.1535 25.8565 4.09391 26.1993 5.06546 26.1992H5.78871C6.61371 27.61 7.68071 28.8887 8.93746 29.9997L6.93271 36.8115C6.87242 37.0166 6.86079 37.2329 6.89874 37.4433C6.93668 37.6536 7.02315 37.8523 7.15129 38.0234C7.27942 38.1945 7.44569 38.3334 7.63688 38.429C7.82808 38.5246 8.03894 38.5743 8.25271 38.5742H13.7527C14.0364 38.5743 14.3132 38.4865 14.5451 38.3231C14.777 38.1596 14.9526 37.9284 15.048 37.6612L16.3735 33.946C18.1197 34.4217 19.976 34.6802 21.9037 34.6802C23.848 34.6802 25.7207 34.419 27.4807 33.9322L28.974 37.7052C29.0754 37.9616 29.2516 38.1815 29.4796 38.3365C29.7077 38.4914 29.977 38.5743 30.2527 38.5742H35.7527C35.9673 38.574 36.1788 38.5236 36.3704 38.427C36.5619 38.3304 36.7283 38.1903 36.856 38.0179C36.9838 37.8455 37.0694 37.6456 37.1061 37.4342C37.1427 37.2229 37.1294 37.0058 37.0672 36.8005L34.9745 29.909C37.9775 27.2112 39.875 23.5372 39.875 19.4397C39.875 19.041 39.8557 18.6422 39.82 18.2545C40.5377 17.952 41.217 17.523 41.7587 17.0335C42.625 17.875 44 17.875 44 15.8867C44 16.5 42.625 16.5 42.7322 15.8152C42.8477 15.5945 42.9311 15.3583 42.9797 15.114C43.0444 14.7955 43.0274 14.4658 42.9302 14.1556C42.8331 13.8455 42.659 13.5649 42.4242 13.3402C42.1766 13.085 41.8507 12.9198 41.4984 12.871C41.1462 12.8222 40.7877 12.8925 40.48 13.0707C40.197 13.2271 39.9557 13.449 39.7762 13.718C39.5968 13.9869 39.4845 14.2949 39.4487 14.6162C39.3827 15.2845 39.6742 15.9362 40.3287 16.4147C40.1016 16.5717 39.8636 16.7123 39.6165 16.8355C38.148 9.50947 30.5855 4.19922 21.901 4.19922ZM6.91896 17.215C8.17021 11.5335 14.2532 6.94922 21.901 6.94922C30.5525 6.94922 37.125 12.7627 37.125 19.4397C37.125 22.8882 35.409 26.0672 32.5325 28.3717C32.3187 28.5437 32.1612 28.7757 32.0804 29.0379C31.9995 29.3001 31.9989 29.5805 32.0787 29.843L33.8937 35.8242H31.185L29.5625 31.735C29.4318 31.4054 29.179 31.1391 28.8567 30.9915C28.5344 30.844 28.1675 30.8266 27.8327 30.943C26.015 31.5755 24.0102 31.9302 21.901 31.9302C19.8824 31.9354 17.8773 31.6017 15.9692 30.943C15.6267 30.8239 15.2511 30.845 14.924 31.0015C14.597 31.1581 14.345 31.4375 14.223 31.779L12.7792 35.8242H10.087L11.8277 29.9117C11.9054 29.6482 11.9024 29.3676 11.819 29.1058C11.7357 28.8441 11.5759 28.6133 11.3602 28.4432C9.88887 27.3044 8.68382 25.8582 7.82921 24.2055C7.71473 23.9783 7.53948 23.7873 7.32295 23.6538C7.10642 23.5203 6.85709 23.4495 6.60271 23.4492H5.06271C4.73931 23.4489 4.42638 23.3345 4.17893 23.1263C3.93147 22.9181 3.76533 22.6293 3.70971 22.3107L3.01121 18.2957H5.57696C5.89032 18.2955 6.19419 18.1882 6.43824 17.9916C6.6823 17.7951 6.8519 17.5211 6.91896 17.215ZM41.6267 14.8582C41.5777 15.0673 41.486 15.2639 41.3572 15.4357C41.3161 15.4143 41.2757 15.3913 41.2362 15.367C40.8347 15.1195 40.8045 14.8857 40.8182 14.7537C40.8317 14.655 40.8678 14.5608 40.9236 14.4783C40.9794 14.3958 41.0534 14.3273 41.14 14.278C41.2747 14.2037 41.36 14.2202 41.4507 14.311C41.5272 14.3775 41.584 14.4636 41.615 14.5601C41.646 14.6565 41.6501 14.7596 41.6267 14.8582Z" fill="#BBBBBB"/>
</svg>
