<svg width="31" height="31" viewBox="0 0 31 31" fill="none" xmlns="http://www.w3.org/2000/svg">
<path d="M5.16602 13.5625C4.09393 13.5625 3.22852 14.4279 3.22852 15.5C3.22852 16.5721 4.09393 17.4375 5.16602 17.4375C6.2381 17.4375 7.10352 16.5721 7.10352 15.5C7.10352 14.4279 6.2381 13.5625 5.16602 13.5625ZM5.16602 5.8125C4.09393 5.8125 3.22852 6.67792 3.22852 7.75C3.22852 8.82208 4.09393 9.6875 5.16602 9.6875C6.2381 9.6875 7.10352 8.82208 7.10352 7.75C7.10352 6.67792 6.2381 5.8125 5.16602 5.8125ZM5.16602 21.3125C4.09393 21.3125 3.22852 22.1908 3.22852 23.25C3.22852 24.3092 4.10685 25.1875 5.16602 25.1875C6.22518 25.1875 7.10352 24.3092 7.10352 23.25C7.10352 22.1908 6.2381 21.3125 5.16602 21.3125ZM9.04102 24.5417H27.1243V21.9583H9.04102V24.5417ZM9.04102 16.7917H27.1243V14.2083H9.04102V16.7917ZM9.04102 6.45833V9.04167H27.1243V6.45833H9.04102Z" fill="#BBBBBB"/>
</svg>
