<svg width="40" height="40" viewBox="0 0 40 40" fill="none" xmlns="http://www.w3.org/2000/svg">
<g clip-path="url(#clip0_1804_4448)">
<path d="M11.346 0C11.7173 0 12.0734 0.1475 12.3359 0.410051C12.5985 0.672601 12.746 1.0287 12.746 1.4V4.018H27.78V1.418C27.78 1.0467 27.9275 0.690601 28.1901 0.428051C28.4526 0.1655 28.8087 0.018 29.18 0.018C29.5513 0.018 29.9074 0.1655 30.1699 0.428051C30.4325 0.690601 30.58 1.0467 30.58 1.418V4.018H36C37.0605 4.018 38.0776 4.43915 38.8277 5.18887C39.5778 5.93858 39.9995 6.95548 40 8.016V36.002C39.9995 37.0625 39.5778 38.0794 38.8277 38.8291C38.0776 39.5788 37.0605 40 36 40H4C2.93948 40 1.92237 39.5788 1.17228 38.8291C0.422192 38.0794 0.00053026 37.0625 0 36.002L0 8.016C0.00053026 6.95548 0.422192 5.93858 1.17228 5.18887C1.92237 4.43915 2.93948 4.018 4 4.018H9.946V1.398C9.94653 1.02704 10.0943 0.671462 10.3568 0.409343C10.6193 0.147225 10.975 -3.78527e-07 11.346 0V0ZM2.8 15.484V36.002C2.8 36.1596 2.83104 36.3156 2.89134 36.4612C2.95165 36.6068 3.04004 36.7391 3.15147 36.8505C3.2629 36.962 3.39519 37.0504 3.54078 37.1107C3.68637 37.171 3.84241 37.202 4 37.202H36C36.1576 37.202 36.3136 37.171 36.4592 37.1107C36.6048 37.0504 36.7371 36.962 36.8485 36.8505C36.96 36.7391 37.0483 36.6068 37.1087 36.4612C37.169 36.3156 37.2 36.1596 37.2 36.002V15.512L2.8 15.484ZM13.334 29.238V32.57H10V29.238H13.334ZM21.666 29.238V32.57H18.334V29.238H21.666ZM30 29.238V32.57H26.666V29.238H30ZM13.334 21.284V24.616H10V21.284H13.334ZM21.666 21.284V24.616H18.334V21.284H21.666ZM30 21.284V24.616H26.666V21.284H30ZM9.946 6.816H4C3.84241 6.816 3.68637 6.84704 3.54078 6.90734C3.39519 6.96765 3.2629 7.05604 3.15147 7.16747C3.04004 7.2789 2.95165 7.41119 2.89134 7.55678C2.83104 7.70237 2.8 7.85841 2.8 8.016V12.686L37.2 12.714V8.016C37.2 7.85841 37.169 7.70237 37.1087 7.55678C37.0483 7.41119 36.96 7.2789 36.8485 7.16747C36.7371 7.05604 36.6048 6.96765 36.4592 6.90734C36.3136 6.84704 36.1576 6.816 36 6.816H30.58V8.674C30.58 9.0453 30.4325 9.4014 30.1699 9.66395C29.9074 9.9265 29.5513 10.074 29.18 10.074C28.8087 10.074 28.4526 9.9265 28.1901 9.66395C27.9275 9.4014 27.78 9.0453 27.78 8.674V6.816H12.746V8.656C12.746 9.0273 12.5985 9.3834 12.3359 9.64595C12.0734 9.9085 11.7173 10.056 11.346 10.056C10.9747 10.056 10.6186 9.9085 10.3561 9.64595C10.0935 9.3834 9.946 9.0273 9.946 8.656V6.816V6.816Z" fill="#9747FF"/>
</g>
<defs>
<clipPath id="clip0_1804_4448">
<rect width="40" height="40" fill="white"/>
</clipPath>
</defs>
</svg>
