<svg width="44" height="44" viewBox="0 0 44 44" fill="none" xmlns="http://www.w3.org/2000/svg">
<path d="M13.7499 7.33301C10.2116 7.33301 7.33325 10.2113 7.33325 13.7497C7.33325 17.288 10.2116 20.1663 13.7499 20.1663C17.2883 20.1663 20.1666 17.288 20.1666 13.7497C20.1666 10.2113 17.2883 7.33301 13.7499 7.33301ZM13.7499 16.4997C12.2283 16.4997 10.9999 15.2713 10.9999 13.7497C10.9999 12.228 12.2283 10.9997 13.7499 10.9997C15.2716 10.9997 16.4999 12.228 16.4999 13.7497C16.4999 15.2713 15.2716 16.4997 13.7499 16.4997ZM30.2499 23.833C26.7116 23.833 23.8333 26.7113 23.8333 30.2497C23.8333 33.788 26.7116 36.6663 30.2499 36.6663C33.7883 36.6663 36.6666 33.788 36.6666 30.2497C36.6666 26.7113 33.7883 23.833 30.2499 23.833ZM30.2499 32.9997C28.7283 32.9997 27.4999 31.7713 27.4999 30.2497C27.4999 28.728 28.7283 27.4997 30.2499 27.4997C31.7716 27.4997 32.9999 28.728 32.9999 30.2497C32.9999 31.7713 31.7716 32.9997 30.2499 32.9997ZM9.91825 36.6663L7.33325 34.0813L34.0816 7.33301L36.6666 9.91801L9.91825 36.6663Z" fill="#BBBBBB"/>
</svg>
