<svg width="36" height="29" viewBox="0 0 36 29" fill="none" xmlns="http://www.w3.org/2000/svg">
<path d="M9 12.6875V16.3125H27V12.6875C27 10.6881 28.6144 9.0625 30.6 9.0625H32.4C32.4 6.06055 29.9812 3.625 27 3.625H9C6.01875 3.625 3.6 6.06055 3.6 9.0625H5.4C7.38562 9.0625 9 10.6881 9 12.6875ZM32.4 10.875H30.6C29.6044 10.875 28.8 11.685 28.8 12.6875V18.125H7.2V12.6875C7.2 11.685 6.39562 10.875 5.4 10.875H3.6C1.61438 10.875 0 12.5006 0 14.5C0 15.8367 0.73125 16.9922 1.8 17.6209V24.4688C1.8 24.9672 2.205 25.375 2.7 25.375H6.3C6.795 25.375 7.2 24.9672 7.2 24.4688V23.5625H28.8V24.4688C28.8 24.9672 29.205 25.375 29.7 25.375H33.3C33.795 25.375 34.2 24.9672 34.2 24.4688V17.6209C35.2687 16.9922 36 15.8367 36 14.5C36 12.5006 34.3856 10.875 32.4 10.875Z" fill="#9747FF"/>
</svg>
