<svg width="31" height="31" viewBox="0 0 31 31" fill="none" xmlns="http://www.w3.org/2000/svg">
<path d="M19.6946 20.8088L21.8646 18.6388C22.1569 18.3501 22.5267 18.1526 22.9291 18.07C23.3315 17.9875 23.7492 18.0235 24.1315 18.1738L26.7762 19.2297C27.1626 19.3865 27.4938 19.6542 27.7283 19.999C27.9627 20.3438 28.0899 20.7503 28.0937 21.1672V26.011C28.0915 26.2946 28.0318 26.5748 27.9184 26.8348C27.805 27.0948 27.6402 27.3291 27.4338 27.5237C27.2275 27.7183 26.9839 27.8692 26.7177 27.9671C26.4515 28.0651 26.1682 28.1082 25.885 28.0938C7.35277 26.941 3.6134 11.2472 2.90621 5.24098C2.87338 4.94603 2.90338 4.64747 2.99422 4.36495C3.08506 4.08242 3.2347 3.82233 3.43328 3.60179C3.63186 3.38125 3.87488 3.20525 4.14636 3.08538C4.41785 2.9655 4.71163 2.90447 5.0084 2.90629H9.68746C10.105 2.90753 10.5126 3.03365 10.8579 3.26844C11.2032 3.50322 11.4703 3.83594 11.625 4.22379L12.6809 6.86848C12.8361 7.24926 12.8758 7.66735 12.7948 8.07051C12.7138 8.47368 12.5158 8.84405 12.2256 9.13535L10.0556 11.3054C10.0556 11.3054 11.3053 19.7625 19.6946 20.8088Z" fill="#BBBBBB"/>
</svg>
