<svg width="44" height="44" viewBox="0 0 44 44" fill="none" xmlns="http://www.w3.org/2000/svg">
<path d="M22.9735 3.15103C22.8458 3.02298 22.694 2.92139 22.527 2.85207C22.3599 2.78275 22.1809 2.74707 22 2.74707C21.8191 2.74707 21.6401 2.78275 21.473 2.85207C21.306 2.92139 21.1542 3.02298 21.0265 3.15103L4.5265 19.651C4.3989 19.779 4.29776 19.9308 4.22887 20.0978C4.15997 20.2649 4.12468 20.4438 4.125 20.6245V39.8745C4.125 40.2392 4.26987 40.5889 4.52773 40.8468C4.78559 41.1047 5.13533 41.2495 5.5 41.2495H17.875C18.2397 41.2495 18.5894 41.1047 18.8473 40.8468C19.1051 40.5889 19.25 40.2392 19.25 39.8745V28.8745H24.75V39.8745C24.75 40.2392 24.8949 40.5889 25.1527 40.8468C25.4106 41.1047 25.7603 41.2495 26.125 41.2495H38.5C38.8647 41.2495 39.2144 41.1047 39.4723 40.8468C39.7301 40.5889 39.875 40.2392 39.875 39.8745V20.6245C39.8753 20.4438 39.84 20.2649 39.7711 20.0978C39.7022 19.9308 39.6011 19.779 39.4735 19.651L35.75 15.9303V6.87453C35.75 6.50986 35.6051 6.16012 35.3473 5.90226C35.0894 5.64439 34.7397 5.49953 34.375 5.49953H31.625C31.2603 5.49953 30.9106 5.64439 30.6527 5.90226C30.3949 6.16012 30.25 6.50986 30.25 6.87453V10.4303L22.9735 3.15103ZM6.875 38.4995V21.1938L22 6.06878L37.125 21.1938V38.4995H27.5V27.4995C27.5 27.1349 27.3551 26.7851 27.0973 26.5273C26.8394 26.2694 26.4897 26.1245 26.125 26.1245H17.875C17.5103 26.1245 17.1606 26.2694 16.9027 26.5273C16.6449 26.7851 16.5 27.1349 16.5 27.4995V38.4995H6.875Z" fill="#BBBBBB"/>
</svg>
