<svg width="30" height="30" viewBox="0 0 30 30" fill="none" xmlns="http://www.w3.org/2000/svg">
<path d="M26.4469 21.6293C27.4605 20.8588 28.125 19.6529 28.125 18.2812C28.125 15.951 26.2359 14.0625 23.9062 14.0625H23.0818C23.8682 13.3752 24.375 12.3762 24.375 11.25C24.375 9.17871 22.6963 7.5 20.625 7.5H20.2805C20.4896 6.91113 20.625 6.28594 20.625 5.625C20.625 2.51836 18.1066 0 15 0C14.6971 0 14.4053 0.0433594 14.1146 0.0890625C14.6666 0.857812 15 1.79414 15 2.8125C15 5.40117 12.9012 7.5 10.3125 7.5H9.375C7.30371 7.5 5.625 9.17871 5.625 11.25C5.625 12.3762 6.13184 13.3752 6.91816 14.0625H6.09375C3.76406 14.0625 1.875 15.951 1.875 18.2812C1.875 19.6529 2.53945 20.8588 3.55312 21.6293C1.5416 21.9504 0 23.6789 0 25.7812C0 28.1109 1.88906 30 4.21875 30H25.7812C28.1109 30 30 28.1109 30 25.7812C30 23.6789 28.4584 21.9504 26.4469 21.6293Z" fill="#9747FF"/>
</svg>
