<svg width="38" height="44" viewBox="0 0 38 44" fill="none" xmlns="http://www.w3.org/2000/svg">
<path d="M20.5827 24.7506H4.74935C4.32942 24.7506 3.9267 24.9438 3.62976 25.2876C3.33283 25.6314 3.16602 26.0978 3.16602 26.584C3.16602 27.0702 3.33283 27.5365 3.62976 27.8803C3.9267 28.2242 4.32942 28.4173 4.74935 28.4173H20.5827C21.0026 28.4173 21.4053 28.2242 21.7023 27.8803C21.9992 27.5365 22.166 27.0702 22.166 26.584C22.166 26.0978 21.9992 25.6314 21.7023 25.2876C21.4053 24.9438 21.0026 24.7506 20.5827 24.7506ZM33.2494 15.584H4.74935C4.32942 15.584 3.9267 15.7771 3.62976 16.121C3.33283 16.4648 3.16602 16.9311 3.16602 17.4173C3.16602 17.9035 3.33283 18.3699 3.62976 18.7137C3.9267 19.0575 4.32942 19.2507 4.74935 19.2507H33.2494C33.6693 19.2507 34.072 19.0575 34.3689 18.7137C34.6659 18.3699 34.8327 17.9035 34.8327 17.4173C34.8327 16.9311 34.6659 16.4648 34.3689 16.121C34.072 15.7771 33.6693 15.584 33.2494 15.584Z" fill="#BBBBBB"/>
</svg>
