<svg width="40" height="40" viewBox="0 0 40 40" fill="none" xmlns="http://www.w3.org/2000/svg">
<path d="M19.9998 12.5003C20.4971 12.5003 20.974 12.3027 21.3256 11.9511C21.6773 11.5995 21.8748 11.1225 21.8748 10.6253C21.8748 10.128 21.6773 9.65107 21.3256 9.29944C20.974 8.94781 20.4971 8.75026 19.9998 8.75026C19.5025 8.75026 19.0256 8.94781 18.674 9.29944C18.3224 9.65107 18.1248 10.128 18.1248 10.6253C18.1248 11.1225 18.3224 11.5995 18.674 11.9511C19.0256 12.3027 19.5025 12.5003 19.9998 12.5003ZM21.8398 3.63776C21.3197 3.2151 20.67 2.98438 19.9998 2.98438C19.3296 2.98438 18.6799 3.2151 18.1598 3.63776L5.65482 13.8003C4.13482 15.0403 5.00982 17.5003 6.96982 17.5003H7.49982V28.0003C6.01482 28.7578 4.99982 30.3003 4.99982 32.0828V33.7503C4.99982 34.0818 5.13152 34.3997 5.36594 34.6341C5.60036 34.8686 5.9183 35.0003 6.24982 35.0003H33.7498C34.0813 35.0003 34.3993 34.8686 34.6337 34.6341C34.8681 34.3997 34.9998 34.0818 34.9998 33.7503V32.0828C34.9998 30.3028 33.9848 28.7578 32.4998 28.0003V17.5003H33.0298C34.9898 17.5003 35.8648 15.0378 34.3423 13.8003L21.8423 3.63526L21.8398 3.63776ZM19.7398 5.57776C19.8141 5.51769 19.9068 5.48492 20.0023 5.48492C20.0979 5.48492 20.1905 5.51769 20.2648 5.57776L31.8523 15.0003H8.14482L19.7398 5.57526V5.57776ZM29.9998 27.5003H27.4998V17.5003H29.9998V27.5003ZM24.9998 27.5003H21.2498V17.5003H24.9998V27.5003ZM18.7498 27.5003H14.9998V17.5003H18.7498V27.5003ZM30.4173 30.0003C31.5673 30.0003 32.4998 30.9328 32.4998 32.0828V32.5003H7.49982V32.0828C7.49982 30.9328 8.43232 30.0003 9.58232 30.0003H30.4173ZM12.4998 27.5003H9.99982V17.5003H12.4998V27.5003Z" fill="#9747FF"/>
</svg>
