<svg width="34" height="34" viewBox="0 0 34 34" fill="none" xmlns="http://www.w3.org/2000/svg">
<path d="M16.7989 15.4578C15.9302 22.4533 11.4932 23.6977 11.4932 28.5614C11.4932 31.5636 14.0143 33.9997 16.9995 33.9997C19.9847 33.9997 22.5041 31.5619 22.5041 28.5614C22.5041 23.6977 18.0671 22.4533 17.1984 15.4578C17.1712 15.2487 16.8261 15.2487 16.7989 15.4578V15.4578ZM6.60062 0.157802C5.73192 7.1533 1.29492 8.396 1.29492 13.2614C1.29492 16.2619 3.81432 18.6997 6.79952 18.6997C9.78472 18.6997 12.3041 16.2619 12.3041 13.2614C12.3041 8.3977 7.86712 7.1533 6.99842 0.157802C6.97292 -0.0512984 6.62612 -0.0512984 6.60062 0.157802V0.157802ZM27.0006 0.157802C26.1319 7.1533 21.6949 8.3977 21.6949 13.2614C21.6949 16.2619 24.2143 18.6997 27.1995 18.6997C30.1847 18.6997 32.7041 16.2619 32.7041 13.2614C32.7041 8.3977 28.2671 7.1533 27.3984 0.157802C27.3712 -0.0512984 27.0261 -0.0512984 27.0006 0.157802V0.157802Z" fill="#9747FF"/>
</svg>
