<svg width="36" height="36" viewBox="0 0 36 36" fill="none" xmlns="http://www.w3.org/2000/svg">
<path d="M18 2C14.8355 2 11.7421 2.93838 9.11088 4.69649C6.4797 6.45459 4.42894 8.95345 3.21793 11.8771C2.00693 14.8007 1.69008 18.0177 2.30744 21.1214C2.92481 24.2251 4.44866 27.0761 6.6863 29.3137C8.92394 31.5513 11.7749 33.0752 14.8786 33.6926C17.9823 34.3099 21.1993 33.9931 24.1229 32.7821C27.0466 31.5711 29.5454 29.5203 31.3035 26.8891C33.0616 24.2579 34 21.1645 34 18C34 13.7565 32.3143 9.68687 29.3137 6.68629C26.3131 3.68571 22.2435 2 18 2ZM29.15 20H6.85001C6.73838 20 6.62785 19.978 6.52473 19.9353C6.4216 19.8926 6.3279 19.83 6.24897 19.751C6.17004 19.6721 6.10743 19.5784 6.06471 19.4753C6.02199 19.3722 6.00001 19.2616 6.00001 19.15V16.85C6.00001 16.6246 6.08956 16.4084 6.24897 16.249C6.40837 16.0896 6.62457 16 6.85001 16H29.15C29.3754 16 29.5916 16.0896 29.751 16.249C29.9105 16.4084 30 16.6246 30 16.85V19.14C30.0013 19.2525 29.9803 19.3641 29.9382 19.4684C29.8961 19.5726 29.8337 19.6675 29.7546 19.7475C29.6756 19.8275 29.5814 19.891 29.4776 19.9344C29.3738 19.9777 29.2625 20 29.15 20Z" fill="#BBBBBB"/>
</svg>
