<svg width="34" height="34" viewBox="0 0 34 34" fill="none" xmlns="http://www.w3.org/2000/svg">
<path fill-rule="evenodd" clip-rule="evenodd" d="M16.9974 1.41602C8.39115 1.41602 1.41406 8.3931 1.41406 16.9993C1.41406 25.6056 8.39115 32.5827 16.9974 32.5827C25.6036 32.5827 32.5807 25.6056 32.5807 16.9993C32.5807 8.3931 25.6036 1.41602 16.9974 1.41602ZM12.3323 13.8728C12.0651 13.6147 11.7073 13.4719 11.3358 13.4751C10.9644 13.4784 10.6091 13.6274 10.3464 13.89C10.0837 14.1527 9.93475 14.508 9.93152 14.8794C9.9283 15.2509 10.0711 15.6087 10.3291 15.8759L15.9958 21.5426C16.2615 21.8082 16.6217 21.9574 16.9974 21.9574C17.373 21.9574 17.7333 21.8082 17.999 21.5426L23.6656 15.8759C23.9237 15.6087 24.0665 15.2509 24.0633 14.8794C24.06 14.508 23.911 14.1527 23.6484 13.89C23.3857 13.6274 23.0304 13.4784 22.659 13.4751C22.2875 13.4719 21.9297 13.6147 21.6625 13.8728L16.9974 18.5378L12.3323 13.8728Z" fill="#BBBBBB"/>
</svg>
