<svg width="95" height="93" viewBox="0 0 95 93" fill="none" xmlns="http://www.w3.org/2000/svg">
<path d="M94.0631 77.7714C80.1278 52.8503 66.1865 27.9292 52.2483 3.00808C51.7835 2.14561 51.087 1.42368 50.234 0.920102C49.381 0.416523 48.4038 0.150391 47.4077 0.150391C46.4116 0.150391 45.4344 0.416523 44.5814 0.920102C43.7284 1.42368 43.032 2.14561 42.5672 3.00808C28.6304 27.9292 14.6817 52.8503 0.752317 77.7714C-1.40448 81.6207 1.34458 86.6107 5.58841 86.6107H89.2329C91.5842 86.6107 93.1636 85.3712 93.9874 83.6899C95.0235 82.0886 95.3011 79.9627 94.069 77.7685" fill="#9C4EDD"/>
<path d="M42.923 50.0997L41.6034 30.8284C41.357 27.0749 41.2383 24.3779 41.2383 22.7417C41.2383 20.5126 41.832 18.779 43.0225 17.5279C44.2174 16.284 45.7879 15.6592 47.7354 15.6592C50.0852 15.6592 51.663 16.4599 52.4527 18.051C53.2498 19.6524 53.6536 21.9512 53.6536 24.9548C53.6536 26.7204 53.5556 28.5193 53.3597 30.343L51.5933 50.1767C51.4018 52.5395 50.9936 54.3501 50.3657 55.6099C49.7334 56.8756 48.6913 57.5005 47.2352 57.5005C45.7627 57.5005 44.7266 56.8916 44.1595 55.6739C43.5762 54.4518 43.168 52.5933 42.923 50.0997ZM47.483 76.5713C45.8131 76.5713 44.357 76.0452 43.1086 74.983C41.8602 73.9251 41.2383 72.4429 41.2383 70.5394C41.2383 68.8784 41.832 67.4587 43.0225 66.2948C44.2174 65.1236 45.6736 64.5423 47.4029 64.5423C49.1322 64.5423 50.5987 65.1236 51.8219 66.2948C53.0316 67.4587 53.6536 68.8784 53.6536 70.5394C53.6536 72.4139 53.0316 73.8932 51.8041 74.9627C50.6239 76.0154 49.0796 76.5904 47.483 76.5713Z" fill="#1F2E35"/>
</svg>
