<svg width="45" height="45" viewBox="0 0 45 45" fill="none" xmlns="http://www.w3.org/2000/svg">
<path d="M1.96701e-06 22.5C2.4887e-06 16.5326 2.37053 10.8097 6.5901 6.59009C10.8097 2.37053 16.5326 -2.4887e-06 22.5 -1.96701e-06C28.4674 -1.44533e-06 34.1903 2.37053 38.4099 6.59009C42.6295 10.8097 45 16.5326 45 22.5C45 28.4674 42.6295 34.1903 38.4099 38.4099C34.1903 42.6295 28.4674 45 22.5 45C16.5326 45 10.8097 42.6295 6.5901 38.4099C2.37053 34.1903 1.44533e-06 28.4674 1.96701e-06 22.5ZM21.0938 32.3437C21.0938 32.7167 21.2419 33.0744 21.5056 33.3381C21.7694 33.6018 22.127 33.75 22.5 33.75C22.873 33.75 23.2306 33.6018 23.4944 33.3381C23.7581 33.0744 23.9063 32.7167 23.9063 32.3437L23.9063 16.0509L29.9419 22.0894C30.2059 22.3534 30.5641 22.5018 30.9375 22.5018C31.3109 22.5018 31.6691 22.3534 31.9331 22.0894C32.1972 21.8253 32.3455 21.4672 32.3455 21.0937C32.3455 20.7203 32.1972 20.3622 31.9331 20.0981L23.4956 11.6606C23.365 11.5297 23.2098 11.4258 23.039 11.3549C22.8681 11.284 22.685 11.2475 22.5 11.2475C22.315 11.2475 22.1319 11.284 21.961 11.3549C21.7902 11.4258 21.635 11.5297 21.5044 11.6606L13.0669 20.0981C12.8028 20.3622 12.6545 20.7203 12.6545 21.0937C12.6545 21.4672 12.8028 21.8253 13.0669 22.0894C13.3309 22.3534 13.6891 22.5018 14.0625 22.5018C14.4359 22.5018 14.7941 22.3534 15.0581 22.0894L21.0938 16.0509L21.0938 32.3437Z" fill="white"/>
</svg>
