<svg width="26" height="27" viewBox="0 0 26 27" fill="none" xmlns="http://www.w3.org/2000/svg">
<path d="M25.7852 20.674L18.8757 13.4993L25.7829 6.32531C25.851 6.25465 25.905 6.17076 25.9418 6.07844C25.9786 5.98611 25.9976 5.88716 25.9976 5.78722C25.9976 5.68729 25.9786 5.58834 25.9418 5.49601C25.905 5.40369 25.851 5.3198 25.7829 5.24914L20.9442 0.222929C20.8067 0.0801886 20.6202 0 20.4258 0C20.2314 0 20.045 0.0801886 19.9075 0.222929L12.9991 7.39689L6.09185 0.222929C5.81703 -0.0628505 5.33039 -0.0628505 5.0552 0.222929L0.215314 5.24837C0.0780447 5.39124 0.000953138 5.58483 0.000953138 5.78665C0.000953138 5.98847 0.0780447 6.18206 0.215314 6.32493L7.1237 13.4993L0.214209 20.6744C0.0770293 20.8173 0 21.0109 0 21.2127C0 21.4144 0.0770293 21.608 0.214209 21.7509L5.05336 26.7768C5.12138 26.8475 5.20217 26.9037 5.29111 26.942C5.38005 26.9803 5.47539 27 5.57168 27C5.66797 27 5.76331 26.9803 5.85225 26.942C5.94119 26.9037 6.02198 26.8475 6.09 26.7768L12.9991 19.6016L19.9086 26.7764C20.0519 26.9248 20.2387 26.9994 20.4269 26.9994C20.6152 26.9994 20.8023 26.9248 20.9456 26.7764L25.7855 21.7505C25.9229 21.6077 26.0001 21.4141 26 21.2122C25.9999 21.0103 25.9226 20.8167 25.7852 20.674Z" fill="black"/>
</svg>
