<svg width="23" height="23" viewBox="0 0 23 23" fill="none" xmlns="http://www.w3.org/2000/svg">
<path fill-rule="evenodd" clip-rule="evenodd" d="M14.9949 0.234525C15.0691 0.160184 15.1572 0.101202 15.2542 0.0609587C15.3512 0.0207151 15.4551 0 15.5601 0C15.6651 0 15.7691 0.0207151 15.8661 0.0609587C15.9631 0.101202 16.0512 0.160184 16.1253 0.234525L22.5116 6.62077C22.5859 6.69492 22.6449 6.78301 22.6851 6.88C22.7254 6.97698 22.7461 7.08095 22.7461 7.18595C22.7461 7.29095 22.7254 7.39492 22.6851 7.49191C22.6449 7.58889 22.5859 7.67698 22.5116 7.75114L19.4749 10.7878L18.1514 16.0772C18.0507 16.48 17.8471 16.8496 17.5605 17.15C17.2738 17.4503 16.9141 17.671 16.5165 17.7903L0 22.746L4.95574 6.22802C5.07519 5.83089 5.29572 5.47158 5.59574 5.18528C5.89575 4.89898 6.26498 4.69549 6.66726 4.59473L11.9567 3.27278L14.9949 0.234525ZM12.1211 4.87733L7.05522 6.1434C6.92075 6.17696 6.79733 6.24496 6.69711 6.3407C6.59689 6.43644 6.52332 6.55662 6.48365 6.68942L2.38048 20.364L16.0583 16.2608C16.1903 16.2208 16.3097 16.1473 16.4048 16.0474C16.4999 15.9475 16.5676 15.8246 16.6011 15.6908L17.8688 10.6233L12.1211 4.87573V4.87733Z" fill="white"/>
<path fill-rule="evenodd" clip-rule="evenodd" d="M2.52012 20.3224L10.7712 13.5722C11.0869 13.5722 11.3956 13.4785 11.6582 13.3031C11.9207 13.1277 12.1254 12.8783 12.2462 12.5866C12.367 12.2948 12.3987 11.9738 12.3371 11.6641C12.2754 11.3544 12.1234 11.0699 11.9001 10.8467C11.6768 10.6234 11.3923 10.4713 11.0826 10.4097C10.7729 10.3481 10.4519 10.3797 10.1602 10.5006C9.86845 10.6214 9.6191 10.826 9.44367 11.0886C9.26824 11.3511 9.1746 11.6598 9.1746 11.9756L2.42432 20.2266L2.38281 20.3639L2.52012 20.3224Z" fill="white"/>
</svg>
