<svg width="63" height="53" viewBox="0 0 63 53" fill="none" xmlns="http://www.w3.org/2000/svg">
<path d="M32.0141 35.4334C31.6859 35.7439 31.5 36.1684 31.5 36.6135V43.0625H38.3184C38.7848 43.0625 39.2317 42.8862 39.5598 42.5732L56.7208 26.2177L49.2964 19.1911L32.0141 35.4334ZM62.1797 17.3285L58.6906 14.0264C57.6105 12.9912 55.8469 12.9912 54.7531 14.0264L51.7727 16.8472L59.197 23.8738L62.1775 21.053C63.2734 20.0199 63.2734 18.3533 62.1797 17.3285ZM28 0V13.25H42L28 0ZM28 46.375C26.2423 46.3455 24.6509 45.4062 23.8569 43.903C23.5424 43.2949 22.9819 43.2302 22.75 43.2302C22.5181 43.2302 21.957 43.2949 21.6563 43.8642L20.8087 45.4563C20.5188 46.023 19.8078 46.375 19.25 46.375H19.1297C18.4188 46.3232 17.8172 45.8833 17.5984 45.2363L15.75 40.0191L14.5906 43.3213C13.9453 45.1432 12.1406 46.375 10.1117 46.375H8.75C7.77984 46.375 7 45.64 7 44.7188C7 43.7975 7.77984 43.0625 8.75 43.0625H10.1063C10.6395 43.0625 11.1018 42.739 11.2656 42.2732L13.2617 36.6181C13.6172 35.599 14.6125 34.9158 15.75 34.9158C16.8875 34.9158 17.8828 35.6016 18.2383 36.6238L19.7564 40.9332C21.9166 39.2511 25.6769 39.9239 26.9752 42.3948C27.1797 42.7727 27.5844 43.0211 28 43.0521V35.9199C28.0001 35.4829 28.0914 35.0503 28.2688 34.6468C28.4462 34.2434 28.7062 33.8771 29.0337 33.5691L42 21.376V16.5625H28C26.0673 16.5625 24.5 15.0791 24.5 13.25V0H5.25C2.35047 0 0 2.22455 0 4.96875V48.0312C0 50.7744 2.35047 53 5.25 53H36.75C39.6495 53 42 50.7754 42 48.0312V46.375H28Z" fill="black"/>
</svg>
