<svg width="46" height="46" viewBox="0 0 46 46" fill="none" xmlns="http://www.w3.org/2000/svg">
<path d="M23 11.5C23.5083 11.5 23.9958 11.7019 24.3553 12.0614C24.7147 12.4208 24.9167 12.9083 24.9167 13.4167V21.0833H32.5833C33.0917 21.0833 33.5792 21.2853 33.9386 21.6447C34.2981 22.0042 34.5 22.4917 34.5 23C34.5 23.5083 34.2981 23.9958 33.9386 24.3553C33.5792 24.7147 33.0917 24.9167 32.5833 24.9167H24.9167V32.5833C24.9167 33.0917 24.7147 33.5792 24.3553 33.9386C23.9958 34.2981 23.5083 34.5 23 34.5C22.4917 34.5 22.0042 34.2981 21.6447 33.9386C21.2853 33.5792 21.0833 33.0917 21.0833 32.5833V24.9167H13.4167C12.9083 24.9167 12.4208 24.7147 12.0614 24.3553C11.7019 23.9958 11.5 23.5083 11.5 23C11.5 22.4917 11.7019 22.0042 12.0614 21.6447C12.4208 21.2853 12.9083 21.0833 13.4167 21.0833H21.0833V13.4167C21.0833 12.9083 21.2853 12.4208 21.6447 12.0614C22.0042 11.7019 22.4917 11.5 23 11.5V11.5Z" fill="white"/>
<path d="M0 23C-4.50075e-08 19.9796 0.594912 16.9888 1.75077 14.1983C2.90663 11.4078 4.6008 8.87229 6.73654 6.73654C8.87229 4.6008 11.4078 2.90663 14.1983 1.75077C16.9888 0.594913 19.9796 0 23 0C26.0204 0 29.0112 0.594913 31.8017 1.75077C34.5922 2.90663 37.1277 4.6008 39.2635 6.73654C41.3992 8.87229 43.0934 11.4078 44.2492 14.1983C45.4051 16.9888 46 19.9796 46 23C46 29.1 43.5768 34.9501 39.2635 39.2635C34.9501 43.5768 29.1 46 23 46C16.9 46 11.0499 43.5768 6.73654 39.2635C2.42321 34.9501 9.08968e-08 29.1 0 23V23ZM23 3.83333C17.9167 3.83333 13.0416 5.85267 9.44712 9.44712C5.85267 13.0416 3.83333 17.9167 3.83333 23C3.83333 28.0833 5.85267 32.9584 9.44712 36.5529C13.0416 40.1473 17.9167 42.1667 23 42.1667C28.0833 42.1667 32.9584 40.1473 36.5529 36.5529C40.1473 32.9584 42.1667 28.0833 42.1667 23C42.1667 17.9167 40.1473 13.0416 36.5529 9.44712C32.9584 5.85267 28.0833 3.83333 23 3.83333V3.83333Z" fill="white"/>
</svg>
