<svg width="44" height="44" viewBox="0 0 44 44" fill="none" xmlns="http://www.w3.org/2000/svg">
<path d="M22.0002 0.333496C17.7149 0.333496 13.5259 1.60422 9.96282 3.98499C6.39975 6.36575 3.62268 9.74962 1.98278 13.7087C0.342884 17.6678 -0.0861883 22.0242 0.749825 26.2271C1.58584 30.43 3.64939 34.2907 6.67953 37.3208C9.70966 40.3509 13.5703 42.4145 17.7732 43.2505C21.9761 44.0865 26.3326 43.6575 30.2916 42.0176C34.2507 40.3777 37.6346 37.6006 40.0153 34.0375C42.3961 30.4744 43.6668 26.2854 43.6668 22.0002C43.6668 19.1549 43.1064 16.3374 42.0176 13.7087C40.9287 11.08 39.3328 8.69145 37.3208 6.67952C35.3089 4.66758 32.9204 3.07162 30.2916 1.98277C27.6629 0.893921 24.8455 0.333496 22.0002 0.333496ZM22.0002 35.0002C21.5716 35.0002 21.1527 34.8731 20.7964 34.635C20.4401 34.3969 20.1624 34.0585 19.9984 33.6626C19.8344 33.2667 19.7915 32.8311 19.8751 32.4108C19.9587 31.9905 20.1651 31.6044 20.4681 31.3014C20.7711 30.9984 21.1572 30.7921 21.5775 30.7085C21.9978 30.6249 22.4334 30.6678 22.8293 30.8318C23.2252 30.9957 23.5636 31.2735 23.8017 31.6298C24.0398 31.9861 24.1668 32.405 24.1668 32.8335C24.1668 33.4081 23.9386 33.9592 23.5322 34.3656C23.1259 34.7719 22.5748 35.0002 22.0002 35.0002ZM24.1668 23.8202V26.3335C24.1668 26.9081 23.9386 27.4592 23.5322 27.8656C23.1259 28.2719 22.5748 28.5002 22.0002 28.5002C21.4255 28.5002 20.8744 28.2719 20.4681 27.8656C20.0618 27.4592 19.8335 26.9081 19.8335 26.3335V22.0002C19.8335 21.4255 20.0618 20.8744 20.4681 20.4681C20.8744 20.0618 21.4255 19.8335 22.0002 19.8335C22.643 19.8335 23.2713 19.6429 23.8058 19.2858C24.3402 18.9287 24.7568 18.4211 25.0028 17.8272C25.2488 17.2334 25.3131 16.5799 25.1877 15.9495C25.0623 15.319 24.7528 14.7399 24.2983 14.2854C23.8437 13.8309 23.2647 13.5213 22.6342 13.3959C22.0038 13.2705 21.3503 13.3349 20.7565 13.5809C20.1626 13.8269 19.655 14.2434 19.2979 14.7779C18.9408 15.3124 18.7502 15.9407 18.7502 16.5835C18.7502 17.1581 18.5219 17.7092 18.1156 18.1156C17.7092 18.5219 17.1581 18.7502 16.5835 18.7502C16.0089 18.7502 15.4578 18.5219 15.0514 18.1156C14.6451 17.7092 14.4168 17.1581 14.4168 16.5835C14.4112 15.1758 14.7974 13.7943 15.5324 12.5937C16.2673 11.3931 17.3219 10.4208 18.5782 9.78559C19.8344 9.15038 21.2426 8.87736 22.6452 8.99712C24.0478 9.11687 25.3894 9.62466 26.5197 10.4636C27.6501 11.3026 28.5246 12.4397 29.0454 13.7475C29.5662 15.0553 29.7127 16.4822 29.4684 17.8686C29.2242 19.2549 28.5989 20.5459 27.6626 21.5971C26.7263 22.6482 25.5158 23.418 24.1668 23.8202Z" fill="white"/>
</svg>
