<svg width="57" height="57" viewBox="0 0 57 57" fill="none" xmlns="http://www.w3.org/2000/svg">
<path d="M10.8679 45.1406C11.0065 45.1406 11.1452 45.1268 11.2839 45.106L22.9462 43.0605C23.0849 43.0328 23.2166 42.9704 23.3137 42.8664L52.7052 13.4749C52.7695 13.4108 52.8204 13.3346 52.8552 13.2507C52.89 13.1668 52.9079 13.0769 52.9079 12.9861C52.9079 12.8953 52.89 12.8054 52.8552 12.7215C52.8204 12.6376 52.7695 12.5614 52.7052 12.4973L41.1815 0.966699C41.0498 0.834961 40.8765 0.765625 40.6893 0.765625C40.502 0.765625 40.3287 0.834961 40.197 0.966699L10.8055 30.3582C10.7015 30.4622 10.6391 30.587 10.6113 30.7257L8.56592 42.388C8.49847 42.7594 8.52257 43.1417 8.63613 43.5017C8.7497 43.8618 8.94931 44.1887 9.21768 44.4542C9.67529 44.8979 10.2508 45.1406 10.8679 45.1406ZM15.5411 33.0484L40.6893 7.90723L45.7716 12.9895L20.6234 38.1308L14.4595 39.2193L15.5411 33.0484ZM54.0156 50.9648H2.98438C1.75713 50.9648 0.765625 51.9563 0.765625 53.1836V55.6797C0.765625 55.9848 1.01523 56.2344 1.32031 56.2344H55.6797C55.9848 56.2344 56.2344 55.9848 56.2344 55.6797V53.1836C56.2344 51.9563 55.2429 50.9648 54.0156 50.9648Z" fill="white"/>
</svg>
