<svg width="44" height="44" viewBox="0 0 44 44" fill="none" xmlns="http://www.w3.org/2000/svg">
<path d="M22.0007 0.333496C17.7154 0.333496 13.5264 1.60422 9.9633 3.98499C6.40024 6.36575 3.62317 9.74962 1.98327 13.7087C0.343372 17.6678 -0.0857 22.0242 0.750313 26.2271C1.58633 30.43 3.64988 34.2907 6.68001 37.3208C9.71015 40.3509 13.5708 42.4145 17.7737 43.2505C21.9766 44.0865 26.3331 43.6575 30.2921 42.0176C34.2512 40.3777 37.6351 37.6006 40.0158 34.0375C42.3966 30.4745 43.6673 26.2854 43.6673 22.0002C43.6673 19.1549 43.1069 16.3374 42.018 13.7087C40.9292 11.08 39.3332 8.69145 37.3213 6.67952C35.3094 4.66758 32.9209 3.07162 30.2921 1.98277C27.6634 0.893921 24.846 0.333496 22.0007 0.333496ZM22.0007 35.0002C21.5721 35.0002 21.1532 34.8731 20.7969 34.635C20.4406 34.3969 20.1629 34.0585 19.9989 33.6626C19.8349 33.2667 19.792 32.8311 19.8756 32.4108C19.9592 31.9905 20.1656 31.6044 20.4686 31.3014C20.7716 30.9984 21.1577 30.7921 21.578 30.7085C21.9983 30.6249 22.4339 30.6678 22.8298 30.8318C23.2257 30.9957 23.5641 31.2735 23.8022 31.6298C24.0403 31.9861 24.1673 32.405 24.1673 32.8335C24.1673 33.4081 23.9391 33.9592 23.5327 34.3656C23.1264 34.7719 22.5753 35.0002 22.0007 35.0002ZM24.1673 23.8202V26.3335C24.1673 26.9081 23.9391 27.4592 23.5327 27.8656C23.1264 28.2719 22.5753 28.5002 22.0007 28.5002C21.426 28.5002 20.8749 28.2719 20.4686 27.8656C20.0623 27.4592 19.834 26.9081 19.834 26.3335V22.0002C19.834 21.4255 20.0623 20.8744 20.4686 20.4681C20.8749 20.0618 21.426 19.8335 22.0007 19.8335C22.6434 19.8335 23.2718 19.6429 23.8063 19.2858C24.3407 18.9287 24.7573 18.4211 25.0033 17.8272C25.2493 17.2334 25.3136 16.5799 25.1882 15.9495C25.0628 15.319 24.7533 14.7399 24.2988 14.2854C23.8442 13.8309 23.2651 13.5213 22.6347 13.3959C22.0043 13.2705 21.3508 13.3349 20.7569 13.5809C20.1631 13.8269 19.6555 14.2434 19.2984 14.7779C18.9413 15.3124 18.7507 15.9407 18.7507 16.5835C18.7507 17.1581 18.5224 17.7092 18.1161 18.1156C17.7097 18.5219 17.1586 18.7502 16.584 18.7502C16.0094 18.7502 15.4583 18.5219 15.0519 18.1156C14.6456 17.7092 14.4173 17.1581 14.4173 16.5835C14.4117 15.1758 14.7979 13.7943 15.5329 12.5937C16.2678 11.3931 17.3224 10.4208 18.5787 9.78559C19.8349 9.15038 21.2431 8.87736 22.6457 8.99712C24.0483 9.11687 25.3899 9.62466 26.5202 10.4636C27.6506 11.3026 28.5251 12.4397 29.0459 13.7475C29.5667 15.0553 29.7132 16.4822 29.4689 17.8686C29.2247 19.2549 28.5994 20.5459 27.6631 21.5971C26.7268 22.6482 25.5163 23.418 24.1673 23.8202Z" fill="#5A1E9A"/>
</svg>
