<svg width="65" height="65" viewBox="0 0 65 65" fill="none" xmlns="http://www.w3.org/2000/svg">
<path d="M60.0491 4.9576C59.6337 4.54231 59.1072 4.25594 58.5328 4.13296C57.9585 4.00998 57.3608 4.05564 56.8118 4.26443L6.02674 23.4864H6.01659C5.43103 23.7116 4.92927 24.1121 4.57984 24.6332C4.2304 25.1542 4.05033 25.7704 4.06422 26.3976C4.07811 27.0249 4.28528 27.6325 4.65744 28.1376C5.02959 28.6427 5.54859 29.0205 6.14354 29.2196L6.19559 29.2361L23.6263 36.6794C23.9662 36.7826 24.3273 36.7948 24.6735 36.7148C25.0197 36.6349 25.3389 36.4655 25.5991 36.2236L53.5745 10.1563C53.6579 10.073 53.7568 10.0068 53.8657 9.96173C53.9746 9.91662 54.0914 9.8934 54.2093 9.8934C54.3272 9.8934 54.4439 9.91662 54.5528 9.96173C54.6617 10.0068 54.7607 10.073 54.844 10.1563C54.9274 10.2397 54.9935 10.3386 55.0386 10.4476C55.0837 10.5565 55.107 10.6732 55.107 10.7911C55.107 10.909 55.0837 11.0257 55.0386 11.1346C54.9935 11.2435 54.9274 11.3425 54.844 11.4259L28.7755 39.3886C28.5336 39.6488 28.3642 39.968 28.2843 40.3141C28.2043 40.6603 28.2165 41.0214 28.3197 41.3614L35.7655 58.8022C35.7731 58.8276 35.7808 58.8505 35.7896 58.8746C36.1959 60.0514 37.2242 60.8817 38.4671 60.9376H38.594C39.2215 60.9412 39.8355 60.7559 40.3562 60.4059C40.877 60.0558 41.2804 59.5572 41.514 58.9749L60.7334 8.20379C60.9452 7.65444 60.9932 7.05549 60.8718 6.4794C60.7504 5.9033 60.4646 5.37472 60.0491 4.9576Z" fill="white"/>
</svg>
