<svg width="51" height="46" viewBox="0 0 51 46" fill="none" xmlns="http://www.w3.org/2000/svg">
<path d="M6.625 6.6665V0.166504H11.0417V6.6665H17.6667V10.9998H11.0417V17.4998H6.625V10.9998H0V6.6665H6.625ZM13.25 19.6665V13.1665H19.875V6.6665H35.3333L39.3746 10.9998H46.375C48.8042 10.9998 50.7917 12.9498 50.7917 15.3332V41.3332C50.7917 43.7165 48.8042 45.6665 46.375 45.6665H11.0417C8.6125 45.6665 6.625 43.7165 6.625 41.3332V19.6665H13.25ZM28.7083 39.1665C34.8033 39.1665 39.75 34.3132 39.75 28.3332C39.75 22.3532 34.8033 17.4998 28.7083 17.4998C22.6133 17.4998 17.6667 22.3532 17.6667 28.3332C17.6667 34.3132 22.6133 39.1665 28.7083 39.1665ZM21.6417 28.3332C21.6417 32.1682 24.7996 35.2665 28.7083 35.2665C32.6171 35.2665 35.775 32.1682 35.775 28.3332C35.775 24.4982 32.6171 21.3998 28.7083 21.3998C24.7996 21.3998 21.6417 24.4982 21.6417 28.3332Z" fill="white"/>
</svg>
