<svg width="33" height="19" viewBox="0 0 33 19" fill="none" xmlns="http://www.w3.org/2000/svg">
<path d="M6.24961 14.625C6.24961 14.4062 6.3576 14.1964 6.54983 14.0416C6.74205 13.8869 7.00276 13.8 7.27461 13.8H25.7246C25.9965 13.8 26.2572 13.8869 26.4494 14.0416C26.6416 14.1964 26.7496 14.4062 26.7496 14.625C26.7496 14.8438 26.6416 15.0537 26.4494 15.2084C26.2572 15.3631 25.9965 15.45 25.7246 15.45H7.27461C7.00276 15.45 6.74205 15.3631 6.54983 15.2084C6.3576 15.0537 6.24961 14.8438 6.24961 14.625ZM19.5787 7.20826C19.9878 7.20826 20.3802 7.07744 20.6695 6.84459C20.9588 6.61174 21.1213 6.29593 21.1213 5.96663C21.1213 5.63733 20.9588 5.32152 20.6695 5.08867C20.3802 4.85582 19.9878 4.72501 19.5787 4.72501C19.1696 4.72501 18.7772 4.85582 18.4879 5.08867C18.1986 5.32152 18.0361 5.63733 18.0361 5.96663C18.0361 6.29593 18.1986 6.61174 18.4879 6.84459C18.7772 7.07744 19.1696 7.20826 19.5787 7.20826ZM27.2724 5.96581C27.2724 6.2951 27.1098 6.61092 26.8205 6.84377C26.5312 7.07662 26.1389 7.20743 25.7297 7.20743C25.3206 7.20743 24.9282 7.07662 24.6389 6.84377C24.3496 6.61092 24.1871 6.2951 24.1871 5.96581C24.1871 5.63651 24.3496 5.32069 24.6389 5.08784C24.9282 4.85499 25.3206 4.72418 25.7297 4.72418C26.1389 4.72418 26.5312 4.85499 26.8205 5.08784C27.1098 5.32069 27.2724 5.63651 27.2724 5.96581ZM7.27871 7.20826C7.68784 7.20826 8.08021 7.07744 8.36951 6.84459C8.65881 6.61174 8.82133 6.29593 8.82133 5.96663C8.82133 5.63733 8.65881 5.32152 8.36951 5.08867C8.08021 4.85582 7.68784 4.72501 7.27871 4.72501C6.86958 4.72501 6.47721 4.85582 6.18791 5.08867C5.89861 5.32152 5.73608 5.63733 5.73608 5.96663C5.73608 6.29593 5.89861 6.61174 6.18791 6.84459C6.47721 7.07744 6.86958 7.20826 7.27871 7.20826ZM11.8871 10.0908C11.8871 10.2539 11.8472 10.4153 11.7697 10.566C11.6922 10.7166 11.5785 10.8535 11.4353 10.9688C11.292 11.0841 11.122 11.1755 10.9348 11.2379C10.7477 11.3003 10.5471 11.3324 10.3445 11.3324C10.1419 11.3324 9.94131 11.3003 9.75415 11.2379C9.56699 11.1755 9.39693 11.0841 9.25368 10.9688C9.11044 10.8535 8.99681 10.7166 8.91928 10.566C8.84176 10.4153 8.80186 10.2539 8.80186 10.0908C8.80186 9.76151 8.96439 9.44569 9.25368 9.21284C9.54298 8.97999 9.93535 8.84918 10.3445 8.84918C10.7536 8.84918 11.146 8.97999 11.4353 9.21284C11.7246 9.44569 11.8871 9.76151 11.8871 10.0908ZM16.5037 11.3333C16.9128 11.3333 17.3052 11.2024 17.5945 10.9696C17.8838 10.7367 18.0463 10.4209 18.0463 10.0916C18.0463 9.76233 17.8838 9.44652 17.5945 9.21367C17.3052 8.98082 16.9128 8.85001 16.5037 8.85001C16.0946 8.85001 15.7022 8.98082 15.4129 9.21367C15.1236 9.44652 14.9611 9.76233 14.9611 10.0916C14.9611 10.4209 15.1236 10.7367 15.4129 10.9696C15.7022 11.2024 16.0946 11.3333 16.5037 11.3333ZM24.2056 10.0908C24.2056 10.4199 24.0431 10.7355 23.754 10.9682C23.4649 11.2009 23.0728 11.3316 22.664 11.3316C22.2551 11.3316 21.863 11.2009 21.5739 10.9682C21.2848 10.7355 21.1224 10.4199 21.1224 10.0908C21.1224 9.76173 21.2848 9.44612 21.5739 9.21343C21.863 8.98073 22.2551 8.85001 22.664 8.85001C23.0728 8.85001 23.4649 8.98073 23.754 9.21343C24.0431 9.44612 24.2056 9.76173 24.2056 10.0908ZM13.4287 7.20826C13.8378 7.20826 14.2302 7.07744 14.5195 6.84459C14.8088 6.61174 14.9713 6.29593 14.9713 5.96663C14.9713 5.63733 14.8088 5.32152 14.5195 5.08867C14.2302 4.85582 13.8378 4.72501 13.4287 4.72501C13.0196 4.72501 12.6272 4.85582 12.3379 5.08867C12.0486 5.32152 11.8861 5.63733 11.8861 5.96663C11.8861 6.29593 12.0486 6.61174 12.3379 6.84459C12.6272 7.07744 13.0196 7.20826 13.4287 7.20826ZM0.0996094 3.07501C0.0996094 2.4186 0.423582 1.78907 1.00026 1.32492C1.57693 0.860764 2.35907 0.600006 3.17461 0.600006H29.8246C30.6402 0.600006 31.4223 0.860764 31.999 1.32492C32.5756 1.78907 32.8996 2.4186 32.8996 3.07501V16.275C32.8996 16.9314 32.5756 17.5609 31.999 18.0251C31.4223 18.4892 30.6402 18.75 29.8246 18.75H3.17461C2.35907 18.75 1.57693 18.4892 1.00026 18.0251C0.423582 17.5609 0.0996094 16.9314 0.0996094 16.275V3.07501ZM3.17461 2.25001C2.90276 2.25001 2.64205 2.33693 2.44983 2.49164C2.2576 2.64636 2.14961 2.8562 2.14961 3.07501V16.275C2.14961 16.4938 2.2576 16.7037 2.44983 16.8584C2.64205 17.0131 2.90276 17.1 3.17461 17.1H29.8246C30.0965 17.1 30.3572 17.0131 30.5494 16.8584C30.7416 16.7037 30.8496 16.4938 30.8496 16.275V3.07501C30.8496 2.8562 30.7416 2.64636 30.5494 2.49164C30.3572 2.33693 30.0965 2.25001 29.8246 2.25001H3.17461Z" fill="white"/>
</svg>
