<svg width="60" height="60" viewBox="0 0 60 60" fill="none" xmlns="http://www.w3.org/2000/svg">
<g clip-path="url(#clip0_8035_9458)">
<path d="M58.7496 16.2674C58.4099 15.0555 57.7481 13.9583 56.8346 13.0924C55.8953 12.2 54.7441 11.5615 53.4896 11.2374C48.7946 9.99995 29.9846 9.99995 29.9846 9.99995C22.1429 9.91073 14.3032 10.3031 6.50959 11.1749C5.25507 11.523 4.106 12.1757 3.16459 13.0749C2.23959 13.9649 1.56959 15.0624 1.21959 16.2649C0.378822 20.7943 -0.0296801 25.3933 -0.000410167 29.9999C-0.0304102 34.6024 0.37709 39.1999 1.21959 43.7349C1.56209 44.9324 2.22959 46.0249 3.15709 46.9074C4.08459 47.7899 5.23959 48.4274 6.50959 48.7649C11.2671 49.9999 29.9846 49.9999 29.9846 49.9999C37.8362 50.0893 45.686 49.6969 53.4896 48.8249C54.7441 48.5009 55.8953 47.8624 56.8346 46.9699C57.7477 46.1043 58.4088 45.0069 58.7471 43.7949C59.6098 39.2673 60.0293 34.6664 59.9996 30.0574C60.0645 25.429 59.6455 20.8064 58.7496 16.2649V16.2674ZM24.0046 38.5599V21.4424L39.6546 30.0024L24.0046 38.5599Z" fill="white"/>
</g>
<defs>
<clipPath id="clip0_8035_9458">
<rect width="60" height="60" fill="white"/>
</clipPath>
</defs>
</svg>
