<svg width="125" height="125" viewBox="0 0 125 125" fill="none" xmlns="http://www.w3.org/2000/svg">
<g clip-path="url(#clip0_8042_9460)">
<path d="M122.396 33.8907C121.688 31.3659 120.309 29.08 118.406 27.2762C116.449 25.4168 114.051 24.0868 111.438 23.4116C101.656 20.8334 62.4688 20.8334 62.4688 20.8334C46.132 20.6476 29.7991 21.4651 13.5625 23.2814C10.9489 24.0064 8.55506 25.3662 6.59379 27.2397C4.66671 29.0939 3.27087 31.3803 2.54171 33.8855C0.790108 43.3217 -0.0609384 52.9029 4.06676e-05 62.5001C-0.0624593 72.0887 0.786499 81.6668 2.54171 91.1147C3.25525 93.6095 4.64587 95.8855 6.57817 97.7241C8.51046 99.5626 10.9167 100.891 13.5625 101.594C23.474 104.167 62.4688 104.167 62.4688 104.167C78.8264 104.353 95.18 103.535 111.438 101.719C114.051 101.044 116.449 99.7136 118.406 97.8543C120.309 96.0508 121.686 93.7646 122.391 91.2397C124.188 81.8072 125.062 72.2219 125 62.6199C125.135 52.9772 124.262 43.3468 122.396 33.8855V33.8907ZM50.0105 80.3334V44.672L82.6146 62.5053L50.0105 80.3334Z" fill="#9747FF"/>
</g>
<defs>
<clipPath id="clip0_8042_9460">
<rect width="125" height="125" fill="white"/>
</clipPath>
</defs>
</svg>
